<svg width="36" height="36" viewBox="0 0 36 36" fill="none" xmlns="http://www.w3.org/2000/svg">
<rect x="4" y="4" width="28" height="28" rx="4" fill="#F19202"/>
<line x1="12" y1="15" x2="12" y2="22" stroke="white" stroke-width="2" stroke-linecap="round"/>
<line x1="17" y1="12" x2="17" y2="22" stroke="white" stroke-width="2" stroke-linecap="round" stroke-linejoin="bevel"/>
<line x1="22" y1="9" x2="22" y2="19" stroke="white" stroke-width="2" stroke-linecap="round"/>
<path d="M23.2044 18C24.3195 18 25.3889 18.4413 26.1773 19.2269C26.9658 20.0125 27.4088 21.078 27.4088 22.189C27.4088 23.3 26.9658 24.3655 26.1773 25.1511C25.3889 25.9367 24.3195 26.3781 23.2044 26.3781C22.0893 26.3781 21.0199 25.9367 20.2314 25.1511C19.443 24.3655 19 23.3 19 22.189C19 21.078 19.443 20.0125 20.2314 19.2269C21.0199 18.4413 22.0893 18 23.2044 18ZM23.2044 19.7953C23.1281 19.7952 23.0527 19.811 22.9829 19.8416C22.9131 19.8723 22.8505 19.917 22.7991 19.9731C22.7476 20.0292 22.7085 20.0954 22.6842 20.1674C22.6599 20.2394 22.6509 20.3157 22.6578 20.3913L22.877 22.7887C22.8855 22.8693 22.9237 22.9439 22.9841 22.9981C23.0446 23.0523 23.123 23.0823 23.2044 23.0823C23.2857 23.0823 23.3642 23.0523 23.4246 22.9981C23.4851 22.9439 23.5232 22.8693 23.5317 22.7887L23.7503 20.3913C23.7573 20.3157 23.7483 20.2395 23.724 20.1675C23.6997 20.0956 23.6607 20.0294 23.6093 19.9734C23.5579 19.9173 23.4954 19.8725 23.4257 19.8418C23.3559 19.8112 23.2806 19.7953 23.2044 19.7953ZM23.2044 24.5828C23.3318 24.5828 23.454 24.5323 23.5441 24.4425C23.6343 24.3528 23.6849 24.231 23.6849 24.104C23.6849 23.9771 23.6343 23.8553 23.5441 23.7655C23.454 23.6757 23.3318 23.6253 23.2044 23.6253C23.0769 23.6253 22.9547 23.6757 22.8646 23.7655C22.7745 23.8553 22.7239 23.9771 22.7239 24.104C22.7239 24.231 22.7745 24.3528 22.8646 24.4425C22.9547 24.5323 23.0769 24.5828 23.2044 24.5828Z" fill="white"/>
</svg>
