<svg width="36" height="36" viewBox="0 0 36 36" fill="none" xmlns="http://www.w3.org/2000/svg">
<rect x="4" y="4" width="28" height="28" rx="4" fill="#FF8200"/>
<path d="M18.0263 15.0142C17.8815 15.0142 17.7407 15.0682 17.6339 15.1657L15.8399 16.8024C15.8381 16.806 15.8381 16.8096 15.8345 16.8096C15.5317 17.0934 15.5372 17.5464 15.7962 17.8283C16.0287 18.0666 16.5143 18.1488 16.8197 17.8784C16.8228 17.8756 16.8246 17.8756 16.8264 17.8738L18.2831 16.544C18.4016 16.4372 18.5885 16.4441 18.6955 16.5622C18.8049 16.6804 18.7958 16.8646 18.6773 16.9737L18.201 17.4079L20.8564 19.5565C20.9088 19.6019 20.9567 19.6473 21 19.6973V16.162C20.2527 15.4169 19.2407 15 18.1845 15L18.0263 15.0142ZM17.7674 17.8047L17.2203 18.3047C16.6778 18.7979 15.8481 18.7502 15.364 18.2252C14.8753 17.6919 14.9136 16.8642 15.446 16.3767L16.9377 15.0142H16.8173C15.7633 15.0142 14.7495 15.434 14.0036 16.1766L14 20.2495L14.3328 20.2502L15.9831 21.7386C16.4845 22.1455 17.2185 22.0682 17.6242 21.5704L17.9546 21.8476C18.2442 22.0677 18.6727 22.0386 18.9098 21.7499L19.482 21.0478L19.58 21.1296C19.8307 21.3297 20.1978 21.2933 20.4006 21.0432L20.5745 20.8289C20.7773 20.5788 20.7393 20.2144 20.4889 20.0116L17.7674 17.8047Z" fill="white"/>
<path d="M9.50938 21.8025C8.55305 20.128 8.20675 18.1653 8.52646 16.2316C8.84617 14.298 9.81319 12.5063 11.2712 11.1464C12.7292 9.78647 14.593 8.9377 16.5613 8.73731C18.5296 8.53692 20.4873 8.99661 22.118 10.0421L20.7296 12.0993C19.5575 11.3478 18.1502 11.0174 16.7353 11.1614C15.3204 11.3055 13.9807 11.9156 12.9326 12.8932C11.8845 13.8707 11.1894 15.1586 10.9596 16.5486C10.7297 17.9386 10.9787 19.3495 11.6661 20.5531L9.50938 21.8025Z" fill="white"/>
<path d="M13.5572 26.3473C15.0729 27.1319 16.8045 27.447 18.5333 27.2526C20.262 27.0582 21.9101 26.3631 23.2692 25.2552C24.6283 24.1473 25.6373 22.6764 26.1687 21.0284C26.7 19.3804 26.7299 17.6295 26.2544 15.9969L23.8832 16.7403C24.225 17.9139 24.2035 19.1725 23.8215 20.3571C23.4396 21.5418 22.7143 22.5991 21.7373 23.3955C20.7603 24.1919 19.5756 24.6916 18.3329 24.8313C17.0903 24.971 15.8455 24.7446 14.756 24.1806L13.5572 26.3473Z" fill="white"/>
<path d="M19 14L23.0909 8L24 14H19Z" fill="white"/>
<path d="M16.1064 22.487L14.3263 28.8691L11.411 24.5486L16.1064 22.487Z" fill="white"/>
<path d="M22 20V16H23V20H22Z" fill="white"/>
<path d="M12 20V16H13V20H12Z" fill="white"/>
</svg>
