<svg width="20" height="20" viewBox="0 0 20 20" fill="none" xmlns="http://www.w3.org/2000/svg">
<g clip-path="url(#clip0_14035_31623)">
<path d="M15.2812 15.875H5.71875C5.29606 15.875 4.89068 15.7071 4.5918 15.4082C4.29291 15.1093 4.125 14.7039 4.125 14.2812V7.90625C4.125 7.76535 4.18097 7.63023 4.2806 7.5306C4.38023 7.43097 4.51535 7.375 4.65625 7.375H16.3438C16.4846 7.375 16.6198 7.43097 16.7194 7.5306C16.819 7.63023 16.875 7.76535 16.875 7.90625V14.2812C16.875 14.7039 16.7071 15.1093 16.4082 15.4082C16.1093 15.7071 15.7039 15.875 15.2812 15.875ZM5.1875 8.4375V14.2812C5.1875 14.4221 5.24347 14.5573 5.3431 14.6569C5.44273 14.7565 5.57785 14.8125 5.71875 14.8125H15.2812C15.4221 14.8125 15.5573 14.7565 15.6569 14.6569C15.7565 14.5573 15.8125 14.4221 15.8125 14.2812V8.4375H5.1875Z" fill="#140C4D"/>
<path d="M17.4062 8.4375H3.59375C3.45285 8.4375 3.31773 8.38153 3.2181 8.2819C3.11847 8.18227 3.0625 8.04715 3.0625 7.90625V6.75344C3.06287 6.33089 3.23103 5.92579 3.53 5.62719L5.56469 3.5925C5.86329 3.29353 6.26839 3.12537 6.69094 3.125H14.3091C14.7316 3.12537 15.1367 3.29353 15.4353 3.5925L17.47 5.62719C17.769 5.92579 17.9371 6.33089 17.9375 6.75344V7.90625C17.9375 8.04715 17.8815 8.18227 17.7819 8.2819C17.6823 8.38153 17.5471 8.4375 17.4062 8.4375ZM4.125 7.375H16.875V6.75344C16.8744 6.61277 16.818 6.47808 16.7183 6.37891L14.6836 4.34422C14.5844 4.24445 14.4497 4.18809 14.3091 4.1875H6.69094C6.55027 4.18809 6.41558 4.24445 6.31641 4.34422L4.28172 6.37625C4.232 6.42567 4.19256 6.48444 4.16566 6.54918C4.13876 6.61392 4.12494 6.68334 4.125 6.75344V7.375ZM12.0938 10.5625H8.90625C8.76535 10.5625 8.63023 10.5065 8.5306 10.4069C8.43097 10.3073 8.375 10.1721 8.375 10.0312C8.375 9.89035 8.43097 9.75523 8.5306 9.6556C8.63023 9.55597 8.76535 9.5 8.90625 9.5H12.0938C12.2346 9.5 12.3698 9.55597 12.4694 9.6556C12.569 9.75523 12.625 9.89035 12.625 10.0312C12.625 10.1721 12.569 10.3073 12.4694 10.4069C12.3698 10.5065 12.2346 10.5625 12.0938 10.5625Z" fill="#140C4D"/>
</g>
<defs>
<clipPath id="clip0_14035_31623">
<rect width="17" height="17" fill="white" transform="translate(2 1)"/>
</clipPath>
</defs>
</svg>
