<svg xmlns="http://www.w3.org/2000/svg" width="18" height="22" viewBox="0 0 18 22">
  <g id="Cost_Invoice" data-name="Cost Invoice" transform="translate(-3 -1)">
    <path id="Subtraction_13" data-name="Subtraction 13" d="M-186-86h-18v-22h18v22Zm-17-21v20h16v-20Z" transform="translate(207 109)" fill="#14054e"/>
    <rect id="Rectangle_56" data-name="Rectangle 56" width="16" height="1" transform="translate(4 3)" fill="#14054e"/>
    <rect id="Rectangle_63" data-name="Rectangle 63" width="8" height="1" transform="translate(11 18)" fill="#35aaee"/>
    <rect id="Rectangle_64" data-name="Rectangle 64" width="3" height="1" transform="translate(16 20)" fill="#35aaee"/>
    <text id="Invoice" transform="translate(19 8)" fill="#35aaee" font-size="4" font-family="Raleway-ExtraBold, Raleway" font-weight="800"><tspan x="-13.948" y="0">Invoice</tspan></text>
    <path id="Path_381" data-name="Path 381" d="M-1.55-4.341a.539.539,0,0,0-.122-.09,2.514,2.514,0,0,0-.258-.136,3.621,3.621,0,0,0-.348-.139A2.084,2.084,0,0,0-2.664-4.8v.947l.223.056a5.917,5.917,0,0,1,.64.212,1.72,1.72,0,0,1,.484.285,1.156,1.156,0,0,1,.306.414A1.438,1.438,0,0,1-.9-2.3a1.5,1.5,0,0,1-.139.675,1.285,1.285,0,0,1-.372.456A1.661,1.661,0,0,1-1.951-.9a2.593,2.593,0,0,1-.637.1V.01h-.48V-.8A4.244,4.244,0,0,1-4.018-1a3.434,3.434,0,0,1-.846-.4l.5-1a.777.777,0,0,0,.15.115,2.436,2.436,0,0,0,.31.167,4.275,4.275,0,0,0,.425.167,2.659,2.659,0,0,0,.487.115v-.926l-.334-.1a4.121,4.121,0,0,1-.592-.226,1.563,1.563,0,0,1-.414-.282,1.024,1.024,0,0,1-.244-.369,1.358,1.358,0,0,1-.08-.487,1.571,1.571,0,0,1,.125-.644,1.5,1.5,0,0,1,.338-.484,1.55,1.55,0,0,1,.5-.317,2.332,2.332,0,0,1,.623-.15v-.7h.48v.7a2.992,2.992,0,0,1,.849.2,5.684,5.684,0,0,1,.689.327ZM-2.128-2.19a.323.323,0,0,0-.146-.282,1.613,1.613,0,0,0-.39-.184v.835Q-2.128-1.842-2.128-2.19ZM-3.479-4.4a.338.338,0,0,0,.122.275,1.092,1.092,0,0,0,.365.178v-.856Q-3.479-4.766-3.479-4.4Z" transform="translate(14.912 15.727)" fill="#35aaee"/>
  </g>
</svg>
