<svg width="36" height="36" viewBox="0 0 36 36" fill="none" xmlns="http://www.w3.org/2000/svg">
<rect x="4" y="4" width="28" height="28" rx="4" fill="#15094E"/>
<path fill-rule="evenodd" clip-rule="evenodd" d="M11 10C10.4477 10 10 10.4477 10 11V13C10 13.5523 10.4477 14 11 14H13C13.5523 14 14 13.5523 14 13V11C14 10.4477 13.5523 10 13 10H11ZM11 16C10.4477 16 10 16.4477 10 17V25C10 25.5523 10.4477 26 11 26H13C13.5523 26 14 25.5523 14 25V17C14 16.4477 13.5523 16 13 16H11ZM16 22C16 21.4477 16.4477 21 17 21H25C25.5523 21 26 21.4477 26 22V25C26 25.5523 25.5523 26 25 26H17C16.4477 26 16 25.5523 16 25V22ZM17 10C16.4477 10 16 10.4477 16 11V18C16 18.5523 16.4477 19 17 19H25C25.5523 19 26 18.5523 26 18V11C26 10.4477 25.5523 10 25 10H17Z" fill="white"/>
</svg>
