<svg width="37" height="36" viewBox="0 0 37 36" fill="none" xmlns="http://www.w3.org/2000/svg">
<g clip-path="url(#clip0_17367_97638)">
<path d="M14.3613 17.4797C15.3609 17.4797 16.3381 17.1756 17.1692 16.6059C18.0004 16.0361 18.6482 15.2263 19.0307 14.2788C19.4132 13.3314 19.5133 12.2888 19.3183 11.283C19.1233 10.2772 18.642 9.35324 17.9351 8.62808C17.2283 7.90292 16.3277 7.40908 15.3473 7.20901C14.3669 7.00894 13.3507 7.11162 12.4272 7.50408C11.5037 7.89653 10.7143 8.56113 10.159 9.41383C9.60362 10.2665 9.3072 11.269 9.3072 12.2946C9.3072 13.6698 9.83969 14.9886 10.7875 15.961C11.7353 16.9335 13.0209 17.4797 14.3613 17.4797ZM14.3613 9.18345C14.9611 9.18345 15.5474 9.36592 16.0461 9.70777C16.5448 10.0496 16.9334 10.5355 17.163 11.104C17.3925 11.6725 17.4525 12.298 17.3355 12.9015C17.2185 13.505 16.9297 14.0594 16.5056 14.4945C16.0815 14.9295 15.5412 15.2259 14.9529 15.3459C14.3647 15.4659 13.755 15.4043 13.2008 15.1689C12.6467 14.9334 12.1731 14.5346 11.8399 14.023C11.5067 13.5114 11.3288 12.9099 11.3288 12.2946C11.3288 11.4694 11.6483 10.6781 12.217 10.0947C12.7857 9.51123 13.5571 9.18345 14.3613 9.18345ZM17.8183 18.5168H10.9043C9.0846 18.5764 7.36228 19.3742 6.11531 20.7352C4.86834 22.0961 4.19861 23.909 4.25308 25.776V30.9612C4.25308 31.2363 4.35958 31.5 4.54914 31.6945C4.73871 31.889 4.99582 31.9983 5.2639 31.9983H23.4587C23.7268 31.9983 23.9839 31.889 24.1735 31.6945C24.3631 31.5 24.4696 31.2363 24.4696 30.9612V25.776C24.524 23.909 23.8543 22.0961 22.6073 20.7352C21.3604 19.3742 19.638 18.5764 17.8183 18.5168ZM22.4479 29.9242H6.27473V25.776C6.21989 24.459 6.67652 23.1734 7.54444 22.2013C8.41235 21.2293 9.62067 20.6501 10.9043 20.5909H17.8183C19.102 20.6501 20.3103 21.2293 21.1782 22.2013C22.0461 23.1734 22.5027 24.459 22.4479 25.776V29.9242Z" fill="#15104E"/>
<circle cx="26.75" cy="9.5" r="5.5" fill="#32BCF3"/>
<line y1="-0.5" x2="2.22741" y2="-0.5" transform="matrix(0.707114 0.7071 -0.707114 0.7071 24.25 9.57422)" stroke="#FDFDFD"/>
<line y1="-0.5" x2="4.45482" y2="-0.5" transform="matrix(0.707114 -0.7071 0.707114 0.7071 25.8242 11.1484)" stroke="#FDFDFD"/>
</g>
<defs>
<clipPath id="clip0_17367_97638">
<rect width="28" height="28" fill="white" transform="translate(4.25 4)"/>
</clipPath>
</defs>
</svg>
