<svg width="15" height="14" viewBox="0 0 15 14" fill="none" xmlns="http://www.w3.org/2000/svg">
<g id="Group 46" clip-path="url(#clip0_323_6244)">
<path id="Path 11" d="M1.36364 0.5H13.6364C14.1666 0.5 14.5 0.873354 14.5 1.22135V9.77082C14.5 10.1188 14.1666 10.4922 13.6364 10.4922H1.36364C0.833421 10.4922 0.5 10.1188 0.5 9.77082V1.22135C0.5 0.873354 0.83342 0.5 1.36364 0.5Z" stroke="#15014E"/>
<path id="Path 12" d="M6.47266 10.881H8.52604V12.9344H6.47266V10.881Z" stroke="#15014E"/>
<g id="Path 13">
<mask id="path-3-inside-1_323_6244" fill="white">
<path d="M1.83203 12.824H13.168V13.4347H1.83203V12.824Z"/>
</mask>
<path d="M1.83203 12.824V10.824H-0.167969V12.824H1.83203ZM13.168 12.824H15.168V10.824H13.168V12.824ZM13.168 13.4347V15.4347H15.168V13.4347H13.168ZM1.83203 13.4347H-0.167969V15.4347H1.83203V13.4347ZM1.83203 14.824H13.168V10.824H1.83203V14.824ZM11.168 12.824V13.4347H15.168V12.824H11.168ZM13.168 11.4347H1.83203V15.4347H13.168V11.4347ZM3.83203 13.4347V12.824H-0.167969V13.4347H3.83203Z" fill="#15004E" mask="url(#path-3-inside-1_323_6244)"/>
</g>
<path id="Path 14" d="M3.05338 2.94299C3.45177 2.94299 3.77473 3.26596 3.77473 3.66434C3.77473 4.06273 3.45177 4.38569 3.05338 4.38569C2.65499 4.38569 2.33203 4.06273 2.33203 3.66434C2.33203 3.26596 2.65499 2.94299 3.05338 2.94299Z" stroke="#32BDF4"/>
<path id="Path 15" d="M3.05338 6.60706C3.45177 6.60706 3.77473 6.93002 3.77473 7.32841C3.77473 7.72679 3.45177 8.04976 3.05338 8.04976C2.65499 8.04976 2.33203 7.72679 2.33203 7.32841C2.33203 6.93002 2.65499 6.60706 3.05338 6.60706Z" stroke="#32BDF4"/>
<rect id="Rectangle 6" x="5.81543" y="3.25" width="6.5" height="0.5" fill="#6C6C6C" stroke="#32BDF4" stroke-width="0.5"/>
<rect id="Rectangle 7" x="5.81543" y="7.25" width="6.5" height="0.5" fill="#6C6C6C" stroke="#32BDF4" stroke-width="0.5"/>
</g>
<defs>
<clipPath id="clip0_323_6244">
<rect width="15" height="13.4347" fill="white"/>
</clipPath>
</defs>
</svg>
