<svg width="16" height="16" viewBox="0 0 16 16" fill="none" xmlns="http://www.w3.org/2000/svg">
<mask id="mask0_1471_56710" style="mask-type:luminance" maskUnits="userSpaceOnUse" x="0" y="0" width="16" height="16">
<path fill-rule="evenodd" clip-rule="evenodd" d="M15.2727 0V15.2727H16V16H0V15.2727H14.5455V0.71036H7.27272V6.44389H6.54545V1e-05L15.2727 0ZM13.0909 13.0909V13.8182H11.6364V13.0909H13.0909ZM13.0909 10.9091V11.6364H11.6364V10.9091H13.0909ZM13.0909 8.72727V9.45454H11.6364V8.72727H13.0909ZM13.0909 6.54545V7.27272H11.6364V6.54545H13.0909ZM13.0909 4.36364V5.09091H8V4.36364H13.0909ZM13.0909 2.18182V2.90909H8V2.18182H13.0909Z" fill="white"/>
</mask>
<g mask="url(#mask0_1471_56710)">
<mask id="mask1_1471_56710" style="mask-type:alpha" maskUnits="userSpaceOnUse" x="-1" y="-1" width="18" height="18">
<path d="M-0.726562 16.728H16.728V-0.726562H-0.726562V16.728Z" fill="black"/>
</mask>
<g mask="url(#mask1_1471_56710)">
<path d="M-3.63477 -3.63477H19.638V19.638H-3.63477V-3.63477Z" fill="#14094E"/>
</g>
</g>
<mask id="mask2_1471_56710" style="mask-type:alpha" maskUnits="userSpaceOnUse" x="0" y="7" width="10" height="8">
<path d="M7.27482 7.63672L7.34015 7.64292L9.1691 7.9831C9.28821 8.00526 9.38707 8.08486 9.4351 8.19335L9.45474 8.24987L9.89018 9.93966C9.9403 10.1341 9.82326 10.3324 9.62879 10.3825C9.45592 10.4271 9.28004 10.3396 9.2079 10.183L9.18592 10.1211L8.9742 9.30216L6.8132 11.6374C6.76962 11.6845 6.71464 11.7189 6.65408 11.7376L6.59187 11.7511L3.97839 12.0804L1.03958 14.1175C0.892872 14.2192 0.697562 14.198 0.575612 14.0762L0.533562 14.0258C0.431862 13.8791 0.453002 13.6838 0.574872 13.5618L0.625252 13.5198L3.63692 11.4321C3.669 11.4099 3.70435 11.393 3.74156 11.3821L3.7986 11.3702L6.36892 11.0462L8.61564 8.61999L7.20715 8.35793C7.03164 8.32528 6.9092 8.17167 6.90994 7.99926L6.91614 7.93393C6.94878 7.75842 7.1024 7.63598 7.27481 7.63672H7.27482Z" fill="black"/>
</mask>
<g mask="url(#mask2_1471_56710)">
<mask id="mask3_1471_56710" style="mask-type:alpha" maskUnits="userSpaceOnUse" x="-1" y="-1" width="18" height="18">
<path d="M-0.726562 16.728H16.728V-0.726562H-0.726562V16.728Z" fill="black"/>
</mask>
<g mask="url(#mask3_1471_56710)">
<path d="M-3.16797 4H13.5378V17.8183H-3.16797L-3.16797 4Z" fill="#2EBDF3"/>
</g>
</g>
<mask id="mask4_1471_56710" style="mask-type:luminance" maskUnits="userSpaceOnUse" x="1" y="3" width="4" height="8">
<path fill-rule="evenodd" clip-rule="evenodd" d="M3.31689 10.0876V9.50581H3.33871C3.6975 9.50581 4.00053 9.44036 4.2478 9.30945C4.49507 9.17854 4.6781 9.00884 4.79689 8.80036C4.91568 8.59187 4.97507 8.36642 4.97507 8.124C4.97507 7.78945 4.89749 7.524 4.74234 7.32764C4.58719 7.13128 4.40537 6.98704 4.19689 6.89491C3.9884 6.80279 3.69507 6.69855 3.31689 6.58218V4.79309C3.55931 4.83187 3.75083 4.924 3.89144 5.06945C4.03205 5.2149 4.11932 5.37975 4.15326 5.56399H4.86599C4.8175 5.21975 4.65993 4.92641 4.39326 4.68399C4.12659 4.44157 3.76781 4.30339 3.3169 4.26945V3.63672H3.09145V4.26217C2.7666 4.26217 2.48054 4.31793 2.23327 4.42944C1.986 4.54095 1.79448 4.69853 1.65872 4.90217C1.52296 5.10581 1.45508 5.34096 1.45508 5.60763C1.45508 5.93248 1.53144 6.19187 1.68417 6.38581C1.8369 6.57975 2.01629 6.72157 2.22235 6.81127C2.42841 6.90096 2.71811 7.00158 3.09144 7.11309V8.97491C2.81993 8.93127 2.60538 8.82097 2.4478 8.644C2.29022 8.46703 2.20174 8.27673 2.18235 8.07309H1.4769C1.51084 8.45612 1.67326 8.77733 1.96417 9.03673C2.25508 9.29612 2.63084 9.44764 3.09144 9.49128V10.0876L3.31689 10.0876ZM3.09143 6.50945C2.79082 6.40763 2.56173 6.28885 2.40416 6.15309C2.24658 6.01733 2.1678 5.82582 2.1678 5.57855C2.1678 5.32158 2.25144 5.124 2.41871 4.98582C2.58598 4.84764 2.81023 4.77855 3.09144 4.77855L3.09143 6.50945ZM3.32416 8.98945H3.31689V7.18581C3.62234 7.28278 3.8575 7.40157 4.02234 7.54217C4.18719 7.68277 4.26961 7.88157 4.26961 8.13853C4.26961 8.3858 4.18719 8.58944 4.02234 8.74944C3.85749 8.90944 3.62476 8.98944 3.32416 8.98944V8.98945Z" fill="white"/>
</mask>
<g mask="url(#mask4_1471_56710)">
<mask id="mask5_1471_56710" style="mask-type:alpha" maskUnits="userSpaceOnUse" x="-1" y="-1" width="18" height="18">
<path d="M-0.726562 16.728H16.728V-0.726562H-0.726562V16.728Z" fill="black"/>
</mask>
<g mask="url(#mask5_1471_56710)">
<path d="M-2.18164 0H8.61109V13.7236H-2.18164V0Z" fill="#2EBDF3"/>
</g>
</g>
</svg>
