<svg xmlns="http://www.w3.org/2000/svg" width="16.428" height="22" viewBox="0 0 16.428 22">
  <g id="obligation_dashboard" data-name="obligation dashboard" transform="translate(-78 -23.6)">
    <path id="Path_359" data-name="Path 359" d="M94.29,27.236a.788.788,0,0,0-.086-.106l-3.218-3.293a.787.787,0,0,0-.249-.171.322.322,0,0,0-.2-.066.339.339,0,0,0-.046.013c-.024,0-.048.006-.072.006h-9a.772.772,0,0,0-.787.768v.62h-.6a.776.776,0,0,0-.787.774v.337h-.463A.78.78,0,0,0,78,26.9V44.829a.775.775,0,0,0,.787.771H91.05a.775.775,0,0,0,.787-.771v-.386H92.3a.778.778,0,0,0,.787-.776v-.52h.555a.782.782,0,0,0,.787-.781V27.68a.792.792,0,0,0-.008-.108A.322.322,0,0,0,94.29,27.236Zm-.946-.054H91a.143.143,0,0,1-.139-.144v-2.4ZM91.189,44.829a.127.127,0,0,1-.139.123H78.787a.127.127,0,0,1-.139-.123V26.9a.132.132,0,0,1,.139-.13h.463v16.9a.778.778,0,0,0,.787.776H91.189Zm1.249-1.161a.13.13,0,0,1-.139.128H80.036a.13.13,0,0,1-.139-.128V25.78a.128.128,0,0,1,.139-.126h.6V42.367a.782.782,0,0,0,.787.781H92.438Zm1.2-1.168H81.424a.134.134,0,0,1-.139-.133V24.387a.124.124,0,0,1,.139-.12h8.793v2.772A.792.792,0,0,0,91,27.83H93.78V42.367a.134.134,0,0,1-.139.133Z" fill="#14034e"/>
    <path id="Path_360" data-name="Path 360" d="M184.718,146h-9.394a.324.324,0,1,0,0,.648h9.394a.324.324,0,1,0,0-.648Z" transform="translate(-92.511 -116.736)" fill="#39baf3"/>
    <path id="Path_361" data-name="Path 361" d="M184.718,186h-9.394a.324.324,0,1,0,0,.648h9.394a.324.324,0,1,0,0-.648Z" transform="translate(-92.511 -154.885)" fill="#39baf3"/>
    <path id="Path_362" data-name="Path 362" d="M184.718,227h-9.394a.324.324,0,1,0,0,.648h9.394a.324.324,0,1,0,0-.648Z" transform="translate(-92.511 -193.987)" fill="#39baf3"/>
    <path id="Path_363" data-name="Path 363" d="M184.718,268h-9.394a.324.324,0,1,0,0,.648h9.394a.324.324,0,1,0,0-.648Z" transform="translate(-92.511 -233.09)" fill="#39baf3"/>
    <path id="Path_364" data-name="Path 364" d="M181.849,308.648a.324.324,0,1,0,0-.648h-6.525a.324.324,0,1,0,0,.648Z" transform="translate(-92.511 -271.239)" fill="#39baf3"/>
  </g>
</svg>
