<svg width="36" height="36" viewBox="0 0 36 36" fill="none" xmlns="http://www.w3.org/2000/svg">
<rect x="4" y="4" width="28" height="28" rx="4" fill="#FF8200"/>
<path d="M24.3479 16.7643C24.2034 16.7355 24.0685 16.6709 23.9555 16.5764C23.8426 16.4819 23.7551 16.3606 23.7011 16.2236L23.6991 16.2176L23.2931 15.2296C23.2308 15.0945 23.2045 14.9457 23.2165 14.7975C23.2285 14.6493 23.2786 14.5067 23.3618 14.3835L23.3598 14.3868L24.0185 13.5081C24.0989 13.3931 24.1392 13.2548 24.1333 13.1146C24.1274 12.9744 24.0756 12.84 23.9858 12.7321L23.9865 12.7334L23.2651 12.0101C23.1565 11.9207 23.0215 11.8695 22.8809 11.8644C22.7403 11.8592 22.602 11.9003 22.487 11.9814L22.489 11.9801L21.6116 12.6388C21.4879 12.7219 21.3448 12.7717 21.1962 12.7831C21.0476 12.7946 20.8985 12.7673 20.7636 12.7041L20.7689 12.7061L19.7808 12.3001C19.643 12.2479 19.5206 12.1617 19.4251 12.0494C19.3296 11.9372 19.2641 11.8025 19.2348 11.6581L19.2341 11.6527L19.0814 10.5654C19.0562 10.4272 18.9888 10.3003 18.8883 10.2021C18.7879 10.1039 18.6594 10.0394 18.5207 10.0173L18.5167 10.0167C18.5167 10.0167 18.3434 10 17.9993 10C17.6553 10 17.4866 10.0173 17.4866 10.0173C17.3471 10.0375 17.2174 10.1007 17.1154 10.1981C17.0135 10.2955 16.9445 10.4222 16.9179 10.5607L16.9172 10.5647L16.7619 11.6507C16.7332 11.795 16.6686 11.9298 16.5741 12.0426C16.4796 12.1553 16.3582 12.2425 16.2212 12.2961L16.2152 12.2981L15.2271 12.7041C15.092 12.7662 14.9432 12.7925 14.795 12.7803C14.6468 12.7682 14.5042 12.718 14.381 12.6348L14.3844 12.6368L13.5056 11.9781C13.3906 11.8976 13.2524 11.857 13.1121 11.8625C12.9718 11.8681 12.8372 11.9194 12.7289 12.0088L12.7302 12.0081L12.0108 12.7328C11.9212 12.841 11.8697 12.9757 11.8644 13.1162C11.8591 13.2566 11.9003 13.3948 11.9815 13.5095L11.9802 13.5075L12.6389 14.3862C12.7213 14.5102 12.7707 14.6532 12.7822 14.8016C12.7938 14.95 12.7671 15.099 12.7049 15.2342L12.7069 15.2289L12.2995 16.2169C12.1915 16.4963 11.9515 16.7036 11.6575 16.7629L11.6521 16.7636L10.5647 16.917C10.4264 16.9431 10.2996 17.0116 10.202 17.1131C10.1044 17.2145 10.0408 17.3438 10.02 17.483L10.0193 17.487C10.0193 17.487 10 17.6577 10 17.9997C10 18.3417 10.018 18.513 10.018 18.513C10.0607 18.801 10.28 19.0284 10.5607 19.081L10.5647 19.0817L11.6508 19.2364C11.9502 19.2971 12.1908 19.5031 12.2975 19.7771L12.2995 19.7831L12.7069 20.7711C12.7693 20.9062 12.7957 21.0551 12.7835 21.2034C12.7712 21.3516 12.7207 21.4942 12.6369 21.6172L12.6389 21.6138L11.9802 22.4925C11.8999 22.5816 11.8486 22.6931 11.8331 22.812C11.8176 22.931 11.8387 23.0518 11.8935 23.1585L11.8922 23.1552C12.0088 23.2999 12.3435 23.6566 12.3442 23.6579L12.5942 23.8872C12.7302 24.0126 13.2889 24.1866 13.509 24.0226L14.387 23.3639C14.5107 23.2805 14.6538 23.2307 14.8025 23.2194C14.9512 23.2081 15.1003 23.2356 15.2351 23.2992L15.2298 23.2972L16.2179 23.7032C16.4979 23.8106 16.7052 24.0513 16.7639 24.3453L16.7646 24.3506L16.9172 25.4346C16.9706 25.72 17.1973 25.9393 17.4813 25.9827L17.4853 25.9833C17.4853 25.9833 17.6566 26 18 26C18.3434 26 18.5134 25.982 18.5134 25.982C18.8001 25.9373 19.0254 25.718 19.0774 25.438L19.0781 25.434L19.2341 24.3479C19.2941 24.0486 19.5008 23.8079 19.7748 23.7026L19.7808 23.7006L20.7689 23.2932C20.9039 23.2308 21.0529 23.2044 21.2012 23.2167C21.3494 23.2289 21.492 23.2794 21.615 23.3632L21.6116 23.3612L22.4904 24.0199C22.6056 24.1004 22.7441 24.1408 22.8846 24.1349C23.0251 24.129 23.1597 24.0771 23.2678 23.9872L23.2664 23.9879L23.9878 23.2652C24.0771 23.1566 24.1283 23.0217 24.1337 22.8813C24.1391 22.7408 24.0984 22.6024 24.0178 22.4872L24.0192 22.4892L23.3604 21.6105C23.2651 21.4681 23.2145 21.3005 23.2151 21.1291C23.2151 20.9978 23.2438 20.8738 23.2958 20.7624L23.2938 20.7678L23.6998 19.7797C23.8085 19.4997 24.0492 19.2931 24.3432 19.2337L24.3485 19.2331L25.4333 19.0784C25.7186 19.025 25.9387 18.7984 25.9813 18.5144L25.982 18.5104C25.982 18.5104 26 18.3443 26 18.0003C26 17.6563 25.982 17.487 25.982 17.487C25.9614 17.3473 25.8979 17.2176 25.8001 17.1158C25.7024 17.014 25.5753 16.9452 25.4366 16.919L25.4326 16.9183L24.3479 16.7643Z" fill="white"/>
<circle cx="18" cy="18" r="5" fill="#FF8200"/>
<path d="M19.3411 15.0767C19.0812 14.9744 18.7934 14.9744 18.5334 15.0767L17.2356 15.5873C17.1295 15.629 17.0382 15.7026 16.9738 15.7985C16.9094 15.8944 16.8749 16.008 16.8749 16.1243V16.5462C17.1204 16.5145 17.3698 16.5455 17.6008 16.6364L18.8983 17.1473C19.0752 17.2168 19.2274 17.3395 19.3348 17.4993C19.4421 17.659 19.4996 17.8483 19.4997 18.0422V19.8757C19.4997 19.9528 19.4907 20.0295 19.4727 20.1043L20.6393 19.6456C20.7454 19.6039 20.8367 19.5302 20.9011 19.4343C20.9655 19.3385 21 19.2249 21 19.1086V16.1243C21 16.008 20.9655 15.8944 20.9011 15.7985C20.8367 15.7026 20.7454 15.629 20.6393 15.5873L19.3415 15.0767H19.3411ZM20.0416 15.903C20.0646 15.8939 20.0891 15.8896 20.1137 15.8902C20.1383 15.8909 20.1626 15.8965 20.1851 15.9067C20.2076 15.917 20.2279 15.9316 20.2449 15.9499C20.2619 15.9682 20.2751 15.9897 20.284 16.0132C20.2928 16.0368 20.297 16.0618 20.2964 16.087C20.2958 16.1122 20.2903 16.137 20.2803 16.1601C20.2703 16.1831 20.2559 16.2039 20.2381 16.2212C20.2202 16.2386 20.1992 16.2522 20.1762 16.2612L19.139 16.669C19.009 16.7201 18.8651 16.7201 18.7351 16.669L17.698 16.2612C17.6515 16.2429 17.6141 16.2065 17.5939 16.1599C17.5737 16.1134 17.5724 16.0605 17.5903 16.013C17.6082 15.9655 17.6439 15.9272 17.6894 15.9066C17.7349 15.8859 17.7865 15.8846 17.8329 15.903L18.8698 16.3111C18.9132 16.3282 18.9613 16.3282 19.0047 16.3111L20.0416 15.903ZM16.6585 16.9946C16.9185 16.8923 17.2063 16.8923 17.4662 16.9946L18.764 17.5052C18.9815 17.5907 19.1244 17.8044 19.1244 18.0422V19.8757C19.1244 19.992 19.09 20.1055 19.0256 20.2014C18.9613 20.2973 18.8701 20.371 18.764 20.4127L17.4662 20.9233C17.2063 21.0256 16.9185 21.0256 16.6585 20.9233L15.3607 20.4131C15.2546 20.3714 15.1633 20.2977 15.0989 20.2019C15.0345 20.106 15 19.9924 15 19.8761V18.0426C15 17.9263 15.0345 17.8127 15.0989 17.7168C15.1633 17.6209 15.2546 17.5473 15.3607 17.5056L16.6581 16.995L16.6585 16.9946ZM18.4089 18.1128C18.391 18.0653 18.3555 18.0271 18.3101 18.0064C18.2646 17.9858 18.2131 17.9844 18.1667 18.0027L17.0624 18.4373L15.9577 18.0027C15.9346 17.9929 15.9098 17.9879 15.8848 17.9881C15.8597 17.9883 15.835 17.9936 15.812 18.0037C15.789 18.0138 15.7683 18.0285 15.7509 18.0469C15.7336 18.0653 15.72 18.0871 15.711 18.111C15.702 18.1349 15.6978 18.1604 15.6986 18.186C15.6994 18.2115 15.7052 18.2367 15.7156 18.26C15.7261 18.2832 15.7409 18.3041 15.7594 18.3214C15.7779 18.3387 15.7995 18.352 15.8231 18.3606L16.8749 18.7745V19.7296C16.8749 19.7804 16.8946 19.8292 16.9298 19.8652C16.965 19.9012 17.0126 19.9214 17.0624 19.9214C17.1121 19.9214 17.1598 19.9012 17.1949 19.8652C17.2301 19.8292 17.2499 19.7804 17.2499 19.7296V18.7745L18.3013 18.3606C18.3477 18.3423 18.3851 18.3059 18.4052 18.2595C18.4254 18.213 18.4267 18.1602 18.4089 18.1128Z" fill="white"/>
</svg>
