<svg width="36" height="36" viewBox="0 0 36 36" fill="none" xmlns="http://www.w3.org/2000/svg">
<rect x="4" y="4" width="28" height="28" rx="4" fill="#15104E"/>
<path fill-rule="evenodd" clip-rule="evenodd" d="M12.7409 10.0324C12.4424 10.0996 12.1457 10.3802 12.0494 10.6863C12.0031 10.8336 12 11.2986 12 18.0214V25.1993L12.0664 25.3636C12.154 25.5806 12.3739 25.8185 12.5808 25.9201L12.7435 26H18.1198H23.496L23.658 25.9205C23.8735 25.8146 24.0432 25.6403 24.151 25.4138L24.2395 25.2279V19.6515V14.0751L22.6953 14.0606C21.3047 14.0476 21.1383 14.0412 21.0236 13.9955C20.5873 13.8218 20.2491 13.4207 20.165 12.9772C20.1476 12.8855 20.1358 12.2522 20.1358 11.4117V10L16.4969 10.0031C14.3981 10.0048 12.8084 10.0173 12.7409 10.0324ZM20.7992 11.6229C20.8079 12.7648 20.8133 12.8846 20.8616 12.996C20.9267 13.146 21.1237 13.3243 21.2742 13.3694C21.3528 13.3929 21.7589 13.403 22.627 13.403H23.8675L22.3521 11.8874C21.5186 11.0538 20.8261 10.3718 20.8132 10.3718C20.8003 10.3718 20.7941 10.9348 20.7992 11.6229ZM21.3479 15.2451C21.7351 15.3616 21.9561 15.7871 21.8388 16.1904C21.7813 16.3884 21.608 16.5892 21.4227 16.6728C21.2818 16.7363 20.9798 16.7494 20.8492 16.6977C20.7796 16.6701 20.7552 16.693 20.3202 17.1927C20.0521 17.5006 19.8661 17.7381 19.8687 17.7689C19.8713 17.7977 19.8824 17.8867 19.8936 17.9666C19.9781 18.5716 19.3128 19.0042 18.7604 18.7035C18.5136 18.5692 18.3866 18.3476 18.3785 18.0373L18.3737 17.8529L18.0162 17.6033L17.6587 17.3538L17.4793 17.4428C17.2699 17.5465 17.0108 17.5641 16.8593 17.4849L16.7712 17.4388L16.256 17.9875L15.7408 18.5361L15.7833 18.6363C15.8411 18.7723 15.8388 19.108 15.779 19.2429C15.6524 19.5288 15.3905 19.6936 15.0618 19.6941C14.3803 19.6951 14.0608 18.9209 14.5397 18.4291C14.7129 18.2513 14.8477 18.1933 15.0885 18.1931C15.1986 18.1931 15.3231 18.2027 15.3652 18.2145C15.4365 18.2345 15.477 18.1983 15.9564 17.6869C16.4555 17.1544 16.4699 17.1357 16.4343 17.0649C16.3755 16.9481 16.3585 16.7636 16.392 16.6071C16.4859 16.1696 16.9286 15.9169 17.3743 16.0465C17.7 16.1411 17.9353 16.4909 17.8978 16.8245L17.8837 16.9489L18.2586 17.2092C18.557 17.4164 18.6423 17.4631 18.6768 17.4384C18.9158 17.2671 19.2203 17.2271 19.4353 17.3386L19.5474 17.3968L19.9488 16.9359C20.1697 16.6825 20.3671 16.4541 20.3875 16.4285C20.4184 16.39 20.4166 16.3536 20.377 16.2176C20.198 15.6019 20.7377 15.0615 21.3479 15.2451ZM22.8811 21.3101V22.639H18.1198H13.3584V21.3101V20.9812H18.1198H22.8811V21.3101ZM19.5353 24.2842V24.613H16.4468H13.3584V24.2842V22.9553H16.4468H19.5353V24.2842Z" fill="white"/>
</svg>
