<svg width="16" height="15" viewBox="0 0 16 15" fill="none" xmlns="http://www.w3.org/2000/svg">
<mask id="mask0_1471_55310" style="mask-type:alpha" maskUnits="userSpaceOnUse" x="0" y="0" width="16" height="15">
<path d="M7.33332 0C11.26 0 14.4658 3.08612 14.6576 6.96514L15.4177 6.11168C15.5401 5.97418 15.7508 5.96196 15.8883 6.08437C16.0105 6.19318 16.0338 6.37175 15.9515 6.50666L15.9156 6.55498L14.7286 7.88831C14.6193 8.01105 14.4398 8.0339 14.3048 7.95054L14.2565 7.91429L12.7768 6.58096C12.6401 6.45772 12.6291 6.24695 12.7524 6.11019C12.8619 5.98863 13.0406 5.96646 13.175 6.04959L13.2231 6.08571L13.976 6.7639C13.6871 3.34855 10.8234 0.66667 7.33333 0.66667C3.65143 0.66667 0.66666 3.65143 0.66666 7.33333C0.66666 11.0152 3.65143 14 7.33333 14C7.51742 14 7.66666 14.1492 7.66666 14.3333C7.66666 14.5174 7.51742 14.6667 7.33333 14.6667C3.28324 14.6667 0 11.3834 0 7.33333C0 3.28324 3.28324 0 7.33333 0H7.33332Z" fill="black"/>
</mask>
<g mask="url(#mask0_1471_55310)">
<mask id="mask1_1471_55310" style="mask-type:alpha" maskUnits="userSpaceOnUse" x="-1" y="-2" width="18" height="18">
<path d="M-0.726562 16.0014H16.728V-1.45312H-0.726562V16.0014Z" fill="black"/>
</mask>
<g mask="url(#mask1_1471_55310)">
<path d="M-3.63477 -3.63672H19.638V18.3027H-3.63477V-3.63672Z" fill="#14094E"/>
</g>
</g>
<mask id="mask2_1471_55310" style="mask-type:luminance" maskUnits="userSpaceOnUse" x="2" y="2" width="10" height="10">
<path fill-rule="evenodd" clip-rule="evenodd" d="M7.27184 2.91016C9.68181 2.91016 11.6355 4.86382 11.6355 7.2738C11.6355 9.68377 9.68181 11.6374 7.27184 11.6374C4.86187 11.6374 2.9082 9.68377 2.9082 7.2738C2.9082 4.86383 4.86187 2.91016 7.27184 2.91016ZM3.59079 7.94357L3.61144 8.0463C3.92222 9.52627 5.10789 10.6843 6.60243 10.9543C6.34837 10.3884 6.15716 9.50924 6.07271 8.47261C5.03617 8.38826 4.15731 8.19716 3.59078 7.94357H3.59079ZM10.9524 7.94319L10.9055 7.96437C10.3379 8.20769 9.47887 8.39076 8.4709 8.47289C8.38646 9.50944 8.19526 10.3885 7.94155 10.9551C9.47031 10.678 10.6761 9.47227 10.9524 7.94319H10.9524ZM6.70187 8.51001C6.75776 9.14677 6.85668 9.72273 6.98964 10.1881C7.06243 10.4429 7.1426 10.6531 7.22296 10.8086L7.27184 10.895L7.28056 10.8818C7.36078 10.7448 7.44201 10.5514 7.51706 10.3117L7.55403 10.1881C7.68699 9.72272 7.78591 9.14676 7.84208 8.51068L7.69208 8.51484C7.62293 8.51673 7.55331 8.51815 7.48326 8.51911L7.27183 8.52055C7.07865 8.52055 6.88841 8.51696 6.70187 8.51001ZM7.27184 6.65042C7.06533 6.65042 6.8614 6.65471 6.6614 6.66307C6.65276 6.86335 6.64847 7.06727 6.64847 7.27379C6.64847 7.48031 6.65277 7.68423 6.66113 7.88424C6.86141 7.89288 7.06534 7.89717 7.27185 7.89717C7.47837 7.89717 7.68229 7.89288 7.88229 7.88452C7.89093 7.68424 7.89522 7.48032 7.89522 7.2738C7.89522 7.06728 7.89093 6.86336 7.88257 6.66336C7.68229 6.65472 7.47837 6.65043 7.27185 6.65043L7.27184 6.65042ZM6.03562 6.70383L5.92866 6.71338C5.3347 6.77091 4.79684 6.86608 4.35753 6.9916C4.10276 7.06439 3.89253 7.14456 3.73699 7.22492L3.65001 7.2738L3.66382 7.28252C3.80085 7.36274 3.99426 7.44397 4.2339 7.51902L4.35753 7.55599C4.8229 7.68895 5.39886 7.78787 6.03494 7.84404C6.03088 7.71678 6.02771 7.58825 6.02617 7.45825L6.02508 7.27379C6.02508 7.08061 6.02867 6.89037 6.03562 6.70383ZM8.50872 6.70355L8.51288 6.85355C8.51665 6.99185 8.51859 7.13204 8.51859 7.2738C8.51859 7.46698 8.515 7.65723 8.50804 7.84376C9.1448 7.78787 9.72076 7.68895 10.1861 7.55599C10.4409 7.4832 10.6511 7.40303 10.8067 7.32267L10.893 7.27379L10.8798 7.26507C10.7428 7.18485 10.5494 7.10362 10.3098 7.02857L10.1861 6.9916C9.72076 6.85864 9.1448 6.75972 8.50871 6.70355H8.50872ZM6.60206 3.59275L6.49933 3.6134C5.01936 3.92418 3.86135 5.10985 3.59131 6.6044C4.15727 6.35034 5.03639 6.15913 6.07302 6.07468C6.15737 5.03814 6.34847 4.15927 6.60206 3.59274V3.59275ZM7.94123 3.59327L7.96241 3.64014C8.20573 4.20774 8.3888 5.06676 8.47093 6.07474C9.50748 6.15918 10.3865 6.35038 10.9531 6.60409C10.6761 5.07533 9.47031 3.86956 7.94123 3.59328V3.59327ZM7.27184 3.65198L7.26312 3.66579C7.1829 3.80282 7.10167 3.99623 7.02662 4.23587L6.98964 4.35949C6.85668 4.82486 6.75776 5.40082 6.70159 6.03691C6.82885 6.03285 6.95738 6.02968 7.08738 6.02814L7.27184 6.02704C7.46502 6.02704 7.65527 6.03063 7.8418 6.03759C7.78591 5.40083 7.68699 4.82487 7.55403 4.3595C7.48124 4.10474 7.40107 3.8945 7.32071 3.73896L7.27184 3.65198Z" fill="white"/>
</mask>
<g mask="url(#mask2_1471_55310)">
<mask id="mask3_1471_55310" style="mask-type:alpha" maskUnits="userSpaceOnUse" x="-1" y="-2" width="18" height="18">
<path d="M-0.728516 16.0014H16.726V-1.45312H-0.728516V16.0014Z" fill="black"/>
</mask>
<g mask="url(#mask3_1471_55310)">
<path d="M-0.728516 -0.726562H15.2715V15.2734H-0.728516V-0.726562Z" fill="#2EBDF3"/>
</g>
</g>
</svg>
