<svg width="79" height="32" viewBox="0 0 79 32" fill="none" xmlns="http://www.w3.org/2000/svg">
<rect width="79" height="32" rx="16" fill="#E7E7E7"/>
<path d="M19.4183 8.67829C18.2864 7.54635 16.3756 7.8781 15.6908 9.32399L13.8733 13.1612C13.7363 13.4503 13.4934 13.6756 13.1948 13.7905L10.2546 14.921C10.0608 14.9955 9.88868 15.1172 9.75387 15.275C9.61907 15.4329 9.52585 15.622 9.4827 15.8251C9.43956 16.0282 9.44784 16.2388 9.50681 16.4379C9.56578 16.6369 9.67356 16.8181 9.82035 16.9649L12.0508 19.1946L8 23.2454V24H8.75462L12.8054 19.9492L15.0351 22.1789C15.1819 22.3256 15.363 22.4332 15.562 22.4921C15.761 22.551 15.9715 22.5592 16.1745 22.5161C16.3774 22.4729 16.5664 22.3798 16.7243 22.245C16.8821 22.1103 17.0038 21.9383 17.0783 21.7447L18.2095 18.8045C18.3241 18.5062 18.5498 18.2634 18.8388 18.126L22.676 16.3085C24.1219 15.6237 24.4529 13.7129 23.3217 12.5817L19.4183 8.67829Z" fill="#A4A4A4"/>
<path d="M37.264 19.656C37.7867 19.656 38.2207 19.5533 38.566 19.348C38.9113 19.1427 39.1867 18.8767 39.392 18.55C39.6067 18.214 39.756 17.836 39.84 17.416C39.9333 16.9867 39.98 16.548 39.98 16.1V11.06H41.562V16.1C41.562 16.7813 41.4827 17.4253 41.324 18.032C41.1653 18.6293 40.9133 19.1567 40.568 19.614C40.2227 20.062 39.7747 20.4167 39.224 20.678C38.6827 20.9393 38.0293 21.07 37.264 21.07C36.4707 21.07 35.7987 20.9347 35.248 20.664C34.7067 20.384 34.268 20.0153 33.932 19.558C33.596 19.0913 33.3533 18.5593 33.204 17.962C33.0547 17.3647 32.98 16.744 32.98 16.1V11.06H34.548V16.1C34.548 16.5573 34.59 17.0007 34.674 17.43C34.7673 17.85 34.9167 18.228 35.122 18.564C35.3367 18.8907 35.6167 19.1567 35.962 19.362C36.3167 19.558 36.7507 19.656 37.264 19.656ZM50.0173 21H48.4773V16.898C48.4773 16.2073 48.3653 15.708 48.1413 15.4C47.9267 15.0827 47.6047 14.924 47.1753 14.924C46.9513 14.924 46.7273 14.966 46.5033 15.05C46.2793 15.134 46.0693 15.2553 45.8733 15.414C45.6773 15.5633 45.5 15.7453 45.3413 15.96C45.192 16.1653 45.0753 16.394 44.9913 16.646V21H43.4513V13.678H44.8513V15.148C45.1313 14.6533 45.5373 14.266 46.0693 13.986C46.6013 13.6967 47.1893 13.552 47.8333 13.552C48.272 13.552 48.6313 13.6313 48.9113 13.79C49.1913 13.9487 49.4107 14.168 49.5693 14.448C49.7373 14.7187 49.854 15.036 49.9193 15.4C49.9847 15.7547 50.0173 16.1327 50.0173 16.534V21ZM55.9629 21.14C55.3749 21.14 54.8569 21 54.4089 20.72C53.9609 20.44 53.6062 20.076 53.3449 19.628V23.982H51.8049V13.678H53.1629V14.994C53.4429 14.5553 53.8022 14.2053 54.2409 13.944C54.6889 13.6827 55.1929 13.552 55.7529 13.552C56.2569 13.552 56.7189 13.6547 57.1389 13.86C57.5589 14.0653 57.9229 14.3407 58.2309 14.686C58.5389 15.0313 58.7769 15.4327 58.9449 15.89C59.1222 16.3473 59.2109 16.828 59.2109 17.332C59.2109 17.864 59.1315 18.3633 58.9729 18.83C58.8142 19.2873 58.5902 19.6887 58.3009 20.034C58.0115 20.37 57.6662 20.6407 57.2649 20.846C56.8729 21.042 56.4389 21.14 55.9629 21.14ZM55.4589 19.824C55.7855 19.824 56.0795 19.754 56.3409 19.614C56.6115 19.474 56.8402 19.2873 57.0269 19.054C57.2229 18.8207 57.3722 18.5547 57.4749 18.256C57.5775 17.9573 57.6289 17.6493 57.6289 17.332C57.6289 16.996 57.5682 16.6787 57.4469 16.38C57.3349 16.0813 57.1762 15.82 56.9709 15.596C56.7749 15.372 56.5369 15.1947 56.2569 15.064C55.9769 14.9333 55.6735 14.868 55.3469 14.868C55.1509 14.868 54.9455 14.9053 54.7309 14.98C54.5162 15.0547 54.3155 15.1573 54.1289 15.288C53.9422 15.4187 53.7789 15.5727 53.6389 15.75C53.4989 15.918 53.4009 16.1047 53.3449 16.31V18.228C53.4382 18.452 53.5595 18.662 53.7089 18.858C53.8582 19.054 54.0215 19.222 54.1989 19.362C54.3855 19.502 54.5862 19.614 54.8009 19.698C55.0155 19.782 55.2349 19.824 55.4589 19.824ZM60.5959 21V13.678H62.1359V21H60.5959ZM60.5959 12.474V10.78H62.1359V12.474H60.5959ZM70.5525 21H69.0125V16.898C69.0125 16.2073 68.9005 15.708 68.6765 15.4C68.4618 15.0827 68.1398 14.924 67.7105 14.924C67.4865 14.924 67.2625 14.966 67.0385 15.05C66.8145 15.134 66.6045 15.2553 66.4085 15.414C66.2125 15.5633 66.0352 15.7453 65.8765 15.96C65.7272 16.1653 65.6105 16.394 65.5265 16.646V21H63.9865V13.678H65.3865V15.148C65.6665 14.6533 66.0725 14.266 66.6045 13.986C67.1365 13.6967 67.7245 13.552 68.3685 13.552C68.8072 13.552 69.1665 13.6313 69.4465 13.79C69.7265 13.9487 69.9458 14.168 70.1045 14.448C70.2725 14.7187 70.3892 15.036 70.4545 15.4C70.5198 15.7547 70.5525 16.1327 70.5525 16.534V21Z" fill="#A4A4A4"/>
<line x1="10.7071" y1="8.29289" x2="23.7071" y2="21.2929" stroke="#C4C4C4" stroke-width="2"/>
<line x1="11.3536" y1="8.64645" x2="24.3536" y2="21.6464" stroke="#E7E7E7"/>
</svg>
