<svg width="36" height="36" viewBox="0 0 36 36" fill="none" xmlns="http://www.w3.org/2000/svg">
<rect x="4" y="4" width="28" height="28" rx="4" fill="#FF8200"/>
<path fill-rule="evenodd" clip-rule="evenodd" d="M10.7249 10.0329C10.5585 10.0726 10.3182 10.2261 10.202 10.3671C9.97716 10.6398 9.99247 10.0996 9.99247 17.7612C9.99247 25.4511 9.97513 24.8671 10.2122 25.1564C10.2759 25.2341 10.4108 25.3436 10.5121 25.3997L10.6963 25.5017L14.2403 25.5111L17.7843 25.5205L17.6681 25.2879C17.6043 25.1601 17.5352 24.9735 17.5146 24.8735C17.4619 24.6167 17.4624 17.0443 17.5152 16.7912C17.6336 16.2235 18.0498 15.7669 18.6053 15.5952C18.8075 15.5327 18.9292 15.5278 20.2619 15.5278H21.7003V14.4634V13.3991H20.3846C18.8902 13.3991 18.8656 13.3955 18.5808 13.1394C18.4814 13.05 18.3804 12.9156 18.3317 12.8078C18.2506 12.6285 18.2497 12.6126 18.239 11.3133L18.2282 10L14.5309 10.0035C12.4974 10.0055 10.7847 10.0187 10.7249 10.0329ZM18.9536 11.4324C18.9536 12.6317 18.956 12.6769 19.0208 12.7116C19.065 12.7352 19.5009 12.7445 20.2914 12.7386L21.4947 12.7295L20.2242 11.4594L18.9536 10.1892V11.4324ZM14.223 11.9299L14.2327 12.3147L14.4902 12.355C14.867 12.4138 15.0242 12.4615 15.3389 12.6124C15.5988 12.737 15.6188 12.7537 15.591 12.8244C15.5298 12.9799 15.2474 13.5707 15.2343 13.5707C15.2268 13.5707 15.122 13.5261 15.0014 13.4715C14.7738 13.3686 14.3469 13.2274 14.2634 13.2274C14.2243 13.2274 14.2155 13.3364 14.2155 13.8226V14.4177L14.7204 14.5818C15.2093 14.7406 15.2319 14.7522 15.4374 14.9496C15.7269 15.2275 15.8404 15.4767 15.8571 15.8711C15.8746 16.285 15.7896 16.5021 15.4981 16.7889C15.193 17.089 14.9091 17.2258 14.31 17.3617L14.2155 17.3831V17.7601V18.1371H13.855H13.4945V17.7628V17.3885L13.2799 17.3651C13.1619 17.3523 12.9773 17.3196 12.8696 17.2926C12.6842 17.246 11.918 16.906 11.8255 16.8292C11.7788 16.7906 11.7841 16.7754 12.0307 16.2409L12.1531 15.9756L12.4032 16.11C12.6145 16.2235 13.3688 16.4548 13.5277 16.4548C13.5532 16.4548 13.5619 16.2766 13.5554 15.8846L13.546 15.3143L13.1278 15.167C12.6038 14.9824 12.3926 14.8683 12.1851 14.6578C11.9187 14.3875 11.8637 14.2397 11.8637 13.7939C11.8637 13.4461 11.8716 13.3999 11.9642 13.2102C12.0223 13.0912 12.1528 12.9159 12.2732 12.7952C12.5083 12.5595 12.7008 12.4698 13.1855 12.3703L13.4774 12.3104L13.4871 11.9277L13.4968 11.545H13.855H14.2133L14.223 11.9299ZM13.2885 13.2943C13.0876 13.4011 13.0037 13.5153 13 13.6874C12.9974 13.8051 13.0162 13.8611 13.0825 13.9331C13.1815 14.0406 13.4223 14.2231 13.4653 14.2231C13.4814 14.2231 13.4945 13.999 13.4945 13.7252C13.4945 13.1789 13.4968 13.1836 13.2885 13.2943ZM14.2155 15.9226C14.2155 16.2405 14.2276 16.3861 14.2538 16.3861C14.2749 16.3861 14.3667 16.3455 14.4578 16.2959C14.7369 16.144 14.8029 15.8472 14.6001 15.656C14.5254 15.5855 14.2868 15.4591 14.2285 15.4591C14.2214 15.4591 14.2155 15.6677 14.2155 15.9226ZM18.8694 16.184C18.6811 16.2287 18.4292 16.3979 18.324 16.5503C18.1172 16.8496 18.1296 16.5774 18.1296 20.8187C18.1296 23.6069 18.1406 24.7407 18.1684 24.8335C18.2284 25.034 18.4343 25.2769 18.6446 25.3953L18.8334 25.5017H22.0608H25.2882L25.4724 25.3997C25.5737 25.3436 25.7087 25.2341 25.7724 25.1564C26.005 24.8725 25.9921 25.1287 25.9921 20.8163V16.9121L25.887 16.7018C25.7769 16.4815 25.6141 16.3258 25.3857 16.2225C25.264 16.1675 25.0147 16.1625 22.1295 16.1574C20.2793 16.154 18.9497 16.1649 18.8694 16.184ZM24.4624 17.6356C24.6946 17.8127 24.7276 17.9448 24.7153 18.6474C24.7051 19.2277 24.7004 19.2643 24.6218 19.3789C24.5763 19.4452 24.4847 19.5367 24.4183 19.5822L24.2976 19.665L22.132 19.6755C20.6507 19.6826 19.9263 19.6742 19.8393 19.6488C19.6603 19.5966 19.5174 19.4649 19.4511 19.2911C19.404 19.1679 19.3962 19.0365 19.4057 18.5281C19.4187 17.8299 19.4425 17.7528 19.6918 17.602L19.8291 17.5189L22.0807 17.5276L24.3323 17.5363L24.4624 17.6356ZM16.8093 20.3501C16.9311 20.4719 16.9244 20.6523 16.7932 20.7835L16.6929 20.8838H14.53C13.3404 20.8838 12.3421 20.8742 12.3116 20.8625C12.239 20.8347 12.1555 20.671 12.1555 20.5567C12.1555 20.5028 12.1959 20.4262 12.2559 20.3662L12.3562 20.2658H14.5406H16.725L16.8093 20.3501ZM20.5895 20.9998C20.7059 21.1351 20.6982 21.3076 20.5699 21.4358C20.4696 21.5362 20.4695 21.5362 20.0351 21.5362C19.6007 21.5362 19.6007 21.5362 19.5003 21.4358C19.3874 21.3229 19.3728 21.2076 19.4519 21.0547C19.5237 20.9159 19.6567 20.8841 20.1174 20.8959C20.4957 20.9055 20.5114 20.9089 20.5895 20.9998ZM22.4289 20.9197C22.587 20.9636 22.6617 21.0652 22.6617 21.2364C22.6617 21.33 22.6375 21.3918 22.5774 21.4519C22.4969 21.5324 22.4738 21.5362 22.064 21.5362C21.6017 21.5362 21.4894 21.5079 21.4294 21.3763C21.3382 21.1761 21.4162 20.9772 21.6074 20.9218C21.7592 20.878 22.2738 20.8766 22.4289 20.9197ZM24.5148 20.9287C24.735 21.0044 24.7902 21.267 24.6213 21.4358L24.521 21.5362H24.0704C23.6379 21.5362 23.6165 21.5328 23.5356 21.4519C23.3693 21.2856 23.463 20.9419 23.6839 20.9084C23.8877 20.8774 24.4021 20.89 24.5148 20.9287ZM16.8093 21.8951C16.9333 22.0192 16.9218 22.1672 16.7768 22.3121L16.6601 22.4289H14.4967H12.3333L12.2444 22.3232C12.1168 22.1717 12.1361 21.9729 12.2899 21.8549C12.3313 21.823 12.867 21.8128 14.5347 21.812L16.725 21.8109L16.8093 21.8951ZM20.5818 22.5293C20.7005 22.6408 20.703 22.8334 20.5875 22.9677C20.5058 23.0628 20.4992 23.0642 20.0554 23.0753L19.6061 23.0867L19.503 22.9836C19.3907 22.8712 19.3712 22.7451 19.444 22.6012C19.5193 22.4525 19.6205 22.4261 20.0754 22.4365C20.4638 22.4453 20.4996 22.4519 20.5818 22.5293ZM22.5789 22.5424C22.6348 22.6074 22.6613 22.6799 22.6606 22.7655C22.6583 23.026 22.5443 23.0812 22.009 23.0812C21.5939 23.0812 21.5916 23.0808 21.4917 22.9808C21.33 22.8192 21.3739 22.5466 21.5752 22.4615C21.6157 22.4444 21.8395 22.4339 22.0725 22.4382C22.4899 22.4459 22.4973 22.4474 22.5789 22.5424ZM24.6389 22.5424C24.7573 22.6802 24.7504 22.8517 24.6213 22.9808C24.5214 23.0808 24.5191 23.0812 24.1041 23.0812C23.5618 23.0812 23.4546 23.0271 23.4524 22.7524C23.4517 22.6501 23.4721 22.5936 23.5286 22.5422C23.6452 22.4361 23.6754 22.431 24.1325 22.4388C24.5502 22.4459 24.5573 22.4474 24.6389 22.5424ZM16.8107 23.5037C16.9307 23.6432 16.9171 23.7524 16.7603 23.9093L16.627 24.0426L14.52 24.042C12.8905 24.0417 12.3935 24.0317 12.3272 23.9981C12.1209 23.8938 12.107 23.5774 12.3033 23.457C12.4096 23.3917 12.4792 23.3899 14.5704 23.3985L16.7279 23.4074L16.8107 23.5037ZM20.6048 24.1408C20.7463 24.3158 20.6653 24.5776 20.4435 24.6619C20.3069 24.7139 19.7248 24.7024 19.5875 24.645C19.3792 24.5581 19.3371 24.3061 19.503 24.1403L19.606 24.0372L20.0726 24.0485C20.5149 24.0591 20.5426 24.0639 20.6048 24.1408ZM22.5009 24.0825C22.6156 24.1436 22.6594 24.2192 22.6606 24.3582C22.6613 24.4434 22.6349 24.5162 22.58 24.58C22.5027 24.6699 22.4797 24.6757 22.1516 24.6889C21.9609 24.6965 21.7487 24.6923 21.6801 24.6794C21.3961 24.6262 21.2954 24.3392 21.4917 24.1429C21.5916 24.043 21.5939 24.0426 22.009 24.0426C22.26 24.0426 22.4557 24.0585 22.5009 24.0825ZM24.6213 24.1429C24.7879 24.3094 24.7408 24.5587 24.5259 24.6485C24.4286 24.6892 24.3054 24.6989 24.0074 24.6894C23.6288 24.6774 23.6139 24.674 23.5339 24.581C23.4784 24.5166 23.4514 24.4428 23.4514 24.3562C23.4514 24.0977 23.5605 24.0449 24.0978 24.0436C24.5203 24.0426 24.5211 24.0427 24.6213 24.1429Z" fill="white"/>
</svg>
