<svg width="36" height="36" viewBox="0 0 36 36" fill="none" xmlns="http://www.w3.org/2000/svg">
<rect x="4" y="4" width="28" height="28" rx="4" fill="#F19202"/>
<rect x="12.8844" y="9.43906" width="13.7176" height="16.6418" rx="1.6" fill="#F19202" stroke="white" stroke-width="0.8"/>
<line x1="19.6578" y1="13.6234" x2="23.697" y2="13.6234" stroke="white" stroke-width="0.8" stroke-linecap="round"/>
<line x1="19.6578" y1="18.1078" x2="23.697" y2="18.1078" stroke="white" stroke-width="0.8" stroke-linecap="round"/>
<line x1="19.6578" y1="22.5961" x2="23.697" y2="22.5961" stroke="white" stroke-width="0.8" stroke-linecap="round"/>
<mask id="path-6-inside-1_7602_102355" fill="white">
<path d="M15.444 15.0298C15.4122 15.0625 15.3672 15.0897 15.3275 15.0897C15.2878 15.0897 15.2428 15.0611 15.2098 15.0284L14.4688 14.2653L14.7043 14.0228L15.3288 14.666L16.9802 12.9531L17.2118 13.1998L15.444 15.0298Z"/>
</mask>
<path d="M15.444 15.0298C15.4122 15.0625 15.3672 15.0897 15.3275 15.0897C15.2878 15.0897 15.2428 15.0611 15.2098 15.0284L14.4688 14.2653L14.7043 14.0228L15.3288 14.666L16.9802 12.9531L17.2118 13.1998L15.444 15.0298Z" fill="#F19202"/>
<path d="M15.2098 15.0284L14.6358 15.5857L14.6415 15.5916L14.6473 15.5973L15.2098 15.0284ZM14.4688 14.2653L13.8948 13.708L13.3536 14.2653L13.8948 14.8227L14.4688 14.2653ZM14.7043 14.0228L15.2782 13.4655L14.7043 12.8745L14.1304 13.4655L14.7043 14.0228ZM15.3288 14.666L14.7549 15.2233L15.3309 15.8164L15.9048 15.2212L15.3288 14.666ZM16.9802 12.9531L17.5635 12.4055L16.9879 11.7925L16.4043 12.3979L16.9802 12.9531ZM17.2118 13.1998L17.7872 13.7556L18.3165 13.2076L17.795 12.6522L17.2118 13.1998ZM14.87 14.4725C14.9049 14.4366 14.9498 14.3999 15.0085 14.3682C15.0614 14.3396 15.1725 14.2897 15.3275 14.2897V15.8897C15.6812 15.8897 15.9209 15.687 16.0179 15.5871L14.87 14.4725ZM15.3275 14.2897C15.4908 14.2897 15.6053 14.3447 15.6531 14.3711C15.708 14.4015 15.7463 14.4339 15.7722 14.4595L14.6473 15.5973C14.7063 15.6556 14.7836 15.7187 14.8792 15.7716C14.9677 15.8204 15.1246 15.8897 15.3275 15.8897V14.2897ZM15.7837 14.4711L15.0427 13.708L13.8948 14.8227L14.6358 15.5857L15.7837 14.4711ZM15.0427 14.8227L15.2782 14.5801L14.1304 13.4655L13.8948 13.708L15.0427 14.8227ZM14.1304 14.5801L14.7549 15.2233L15.9028 14.1086L15.2782 13.4655L14.1304 14.5801ZM15.9048 15.2212L17.5561 13.5084L16.4043 12.3979L14.7529 14.1107L15.9048 15.2212ZM16.397 13.5007L16.6286 13.7473L17.795 12.6522L17.5635 12.4055L16.397 13.5007ZM16.6364 12.6439L14.8686 14.474L16.0193 15.5856L17.7872 13.7556L16.6364 12.6439Z" fill="white" mask="url(#path-6-inside-1_7602_102355)"/>
<mask id="path-8-inside-2_7602_102355" fill="white">
<path d="M15.3971 19.5884C15.3653 19.6211 15.3203 19.6483 15.2806 19.6483C15.2409 19.6483 15.196 19.6197 15.1629 19.587L14.4219 18.8239L14.6574 18.5814L15.282 19.2246L16.9333 17.5117L17.1649 17.7584L15.3971 19.5884Z"/>
</mask>
<path d="M15.3971 19.5884C15.3653 19.6211 15.3203 19.6483 15.2806 19.6483C15.2409 19.6483 15.196 19.6197 15.1629 19.587L14.4219 18.8239L14.6574 18.5814L15.282 19.2246L16.9333 17.5117L17.1649 17.7584L15.3971 19.5884Z" fill="#F19202"/>
<path d="M15.1629 19.587L14.589 20.1443L14.5946 20.1502L14.6004 20.1559L15.1629 19.587ZM14.4219 18.8239L13.8479 18.2666L13.3067 18.8239L13.8479 19.3813L14.4219 18.8239ZM14.6574 18.5814L15.2313 18.0241L14.6574 17.433L14.0835 18.0241L14.6574 18.5814ZM15.282 19.2246L14.708 19.7819L15.284 20.375L15.8579 19.7798L15.282 19.2246ZM16.9333 17.5117L17.5166 16.9641L16.941 16.3511L16.3574 16.9565L16.9333 17.5117ZM17.1649 17.7584L17.7403 18.3142L18.2696 17.7662L17.7481 17.2108L17.1649 17.7584ZM14.8232 19.0311C14.858 18.9952 14.9029 18.9585 14.9616 18.9268C15.0145 18.8982 15.1256 18.8483 15.2806 18.8483V20.4483C15.6343 20.4483 15.874 20.2456 15.971 20.1457L14.8232 19.0311ZM15.2806 18.8483C15.4439 18.8483 15.5584 18.9033 15.6062 18.9297C15.6611 18.9601 15.6994 18.9925 15.7253 19.0181L14.6004 20.1559C14.6594 20.2142 14.7367 20.2773 14.8324 20.3302C14.9208 20.379 15.0777 20.4483 15.2806 20.4483V18.8483ZM15.7368 19.0297L14.9958 18.2666L13.8479 19.3813L14.589 20.1443L15.7368 19.0297ZM14.9958 19.3813L15.2313 19.1387L14.0835 18.0241L13.8479 18.2666L14.9958 19.3813ZM14.0835 19.1387L14.708 19.7819L15.8559 18.6672L15.2313 18.0241L14.0835 19.1387ZM15.8579 19.7798L17.5093 18.067L16.3574 16.9565L14.706 18.6693L15.8579 19.7798ZM16.3501 18.0593L16.5817 18.3059L17.7481 17.2108L17.5166 16.9641L16.3501 18.0593ZM16.5895 17.2025L14.8217 19.0326L15.9725 20.1442L17.7403 18.3142L16.5895 17.2025Z" fill="white" mask="url(#path-8-inside-2_7602_102355)"/>
<path d="M21.3207 10.3048H21.7207V9.90476V9C21.7207 8.2268 21.0939 7.6 20.3207 7.6H18.5312C17.7581 7.6 17.1312 8.2268 17.1312 9V9.90476V10.3048H17.5312H21.3207Z" fill="#F19202" stroke="white" stroke-width="0.8"/>
<rect x="9" y="20.3828" width="10.421" height="7.61903" rx="1" fill="#F19202"/>
<rect x="12.1328" y="21.5156" width="3.37137" height="2.49002" rx="0.75" fill="#F19202" stroke="white" stroke-width="0.5"/>
<path d="M13.1016 21.7335C13.1016 21.337 13.423 21.0156 13.8194 21.0156C14.2159 21.0156 14.5372 21.337 14.5372 21.7335V22.0106H13.1016V21.7335Z" fill="#F19202" stroke="white" stroke-width="0.5"/>
<rect x="14.5547" y="24.5039" width="3.37137" height="2.49002" rx="0.75" fill="#F19202" stroke="white" stroke-width="0.5"/>
<path d="M15.5234 24.7217C15.5234 24.3253 15.8448 24.0039 16.2413 24.0039C16.6377 24.0039 16.9591 24.3253 16.9591 24.7217V24.9989H15.5234V24.7217Z" fill="#F19202" stroke="white" stroke-width="0.5"/>
<rect x="10.1953" y="24.5039" width="3.37137" height="2.49002" rx="0.75" fill="#F19202" stroke="white" stroke-width="0.5"/>
<path d="M11.1641 24.7217C11.1641 24.3253 11.4855 24.0039 11.8819 24.0039C12.2784 24.0039 12.5997 24.3253 12.5997 24.7217V24.9989H11.1641V24.7217Z" fill="#F19202" stroke="white" stroke-width="0.5"/>
</svg>
