<svg width="36" height="36" viewBox="0 0 36 36" fill="none" xmlns="http://www.w3.org/2000/svg">
<rect x="4" y="4" width="28" height="28" rx="4" fill="#FF8200"/>
<path fill-rule="evenodd" clip-rule="evenodd" d="M21.4447 16.3119V13.073V9.83398H22.7628H24.0808V13.2614C24.0808 15.1995 24.0681 16.6888 24.0516 16.6888C24.0355 16.6888 23.941 16.6531 23.8416 16.6094C23.2658 16.3567 22.3219 16.2124 21.7033 16.2826L21.4447 16.3119ZM15.9724 19.8359V16.6894V13.5429H17.3071H18.6418V15.6486V17.7544L18.4734 17.9418C18.1009 18.3566 17.7833 18.9101 17.5903 19.4811L17.4764 19.8181L16.7244 19.827L15.9724 19.8359ZM10.5 19.8347V17.9468V16.0588L11.8264 16.0675L13.1528 16.0761L13.1614 17.9554L13.17 19.8347H11.835H10.5ZM25.2686 18.6829C24.4801 17.8973 23.4107 17.4559 22.2956 17.4559C21.1806 17.4559 20.1111 17.8973 19.3227 18.6829C18.5342 19.4684 18.0912 20.5339 18.0912 21.6449C18.0912 22.7559 18.5342 23.8214 19.3227 24.607C20.1111 25.3926 21.1806 25.834 22.2956 25.834C23.4107 25.834 24.4801 25.3926 25.2686 24.607C26.057 23.8214 26.5 22.7559 26.5 21.6449C26.5 20.5339 26.057 19.4684 25.2686 18.6829ZM22.0741 19.2975C22.1439 19.2669 22.2194 19.2511 22.2956 19.2512C22.3718 19.2512 22.4472 19.2671 22.5169 19.2977C22.5866 19.3284 22.6492 19.3732 22.7005 19.4293C22.7519 19.4853 22.791 19.5515 22.8153 19.6235C22.8396 19.6954 22.8485 19.7716 22.8416 19.8473L22.623 22.2446C22.6145 22.3252 22.5763 22.3998 22.5159 22.454C22.4554 22.5082 22.377 22.5383 22.2956 22.5383C22.2143 22.5383 22.1358 22.5082 22.0754 22.454C22.0149 22.3998 21.9768 22.3252 21.9683 22.2446L21.7491 19.8473C21.7421 19.7716 21.7511 19.6953 21.7754 19.6233C21.7997 19.5513 21.8389 19.4851 21.8903 19.429C21.9417 19.373 22.0044 19.3282 22.0741 19.2975ZM22.6354 23.8985C22.5453 23.9882 22.4231 24.0387 22.2956 24.0387C22.1682 24.0387 22.046 23.9882 21.9559 23.8985C21.8657 23.8087 21.8151 23.6869 21.8151 23.5599C21.8151 23.433 21.8657 23.3112 21.9559 23.2214C22.046 23.1316 22.1682 23.0812 22.2956 23.0812C22.4231 23.0812 22.5453 23.1316 22.6354 23.2214C22.7255 23.3112 22.7761 23.433 22.7761 23.5599C22.7761 23.6869 22.7255 23.8087 22.6354 23.8985Z" fill="white"/>
</svg>
