<svg width="14" height="20" viewBox="0 0 14 20" fill="none" xmlns="http://www.w3.org/2000/svg">
<g clip-path="url(#clip0_14035_38213)">
<path d="M3.54285 7.63529L3.54283 7.63528C3.49488 7.60287 3.42419 7.5761 3.33518 7.55347C3.24691 7.53103 3.14455 7.51359 3.03569 7.4979C3.01801 7.49536 3.0001 7.49286 2.98197 7.49033C2.77931 7.46205 2.55032 7.4301 2.33987 7.28792C2.10539 7.12952 1.92057 6.81753 1.92057 6.31739C1.92057 5.59864 2.29003 4.9857 2.79588 4.82392V4.5277C2.79588 4.30505 2.91754 4.1682 3.0646 4.1682C3.21167 4.1682 3.33333 4.30509 3.33333 4.5277V4.83379C3.76239 4.97425 4.04457 5.43216 4.16851 5.97452C4.21842 6.18831 4.13067 6.36104 3.99964 6.4204C3.93373 6.45026 3.85796 6.44983 3.79199 6.40865C3.7269 6.36804 3.67847 6.29238 3.65449 6.18543C3.60718 5.97965 3.53491 5.81181 3.43567 5.69407C3.33792 5.5781 3.2132 5.50952 3.05461 5.5008C2.89087 5.50311 2.74313 5.5901 2.63464 5.73627C2.52564 5.88313 2.45801 6.08804 2.45801 6.31739C2.45801 6.41731 2.46992 6.48474 2.4911 6.53429C2.51169 6.58247 2.54253 6.6172 2.58746 6.64931L2.58749 6.64933C2.63612 6.68414 2.70614 6.71077 2.7946 6.73259C2.8825 6.75427 2.98409 6.77017 3.09352 6.78593C3.1112 6.78848 3.12912 6.79098 3.14725 6.79351C3.3499 6.82179 3.57888 6.85373 3.78934 6.99591C4.05585 7.17596 4.20865 7.50461 4.20865 7.96645C4.20863 8.68508 3.83961 9.30396 3.33344 9.46591L3.3336 9.55087C3.33369 9.61894 3.33369 9.701 3.33333 9.75645C3.33321 9.97863 3.21153 10.1151 3.06461 10.1151C2.91762 10.1151 2.79588 9.9785 2.79588 9.75613V9.45099C2.35232 9.29631 2.08513 8.85375 1.96069 8.30932C1.91079 8.09553 1.99854 7.92281 2.12957 7.86345C2.19548 7.83358 2.27124 7.83402 2.33722 7.87519C2.40231 7.91581 2.45075 7.99148 2.47472 8.09845M3.54285 7.63529L2.42595 8.10948M3.54285 7.63529C3.59066 7.66757 3.62115 7.7039 3.64072 7.75278C3.66097 7.80339 3.67077 7.87056 3.67077 7.96645C3.67077 8.19319 3.60328 8.39848 3.49426 8.54639C3.3857 8.69366 3.23804 8.78193 3.07461 8.78423M3.54285 7.63529L3.07357 8.83425M2.47472 8.09845C2.47473 8.09848 2.47474 8.09852 2.47475 8.09855L2.42595 8.10948M2.47472 8.09845C2.47471 8.09841 2.47471 8.09838 2.4747 8.09834L2.42595 8.10948M2.47472 8.09845C2.57671 8.54459 2.7914 8.76859 3.07461 8.78423M2.42595 8.10948C2.53023 8.56574 2.75658 8.81762 3.07357 8.83425M3.07461 8.78423C3.07408 8.78424 3.07356 8.78425 3.07304 8.78425L3.07357 8.83425M3.07461 8.78423C3.07514 8.78426 3.07566 8.78429 3.07619 8.78432L3.07357 8.83425M0.394303 19.8767L0.394368 19.8766L1.58732 18.5352L2.78027 19.8766L2.7803 19.8766C2.8282 19.9304 2.88945 19.9606 2.95413 19.9606C3.01881 19.9606 3.08006 19.9304 3.12795 19.8766L3.12797 19.8766L4.32095 18.5352L5.5156 19.8766C5.56351 19.9304 5.62476 19.9606 5.68944 19.9606C5.75412 19.9606 5.81537 19.9304 5.86326 19.8766L5.86328 19.8766L7.05623 18.5352L8.24918 19.8766L8.24924 19.8767C8.29711 19.9303 8.35826 19.9604 8.42282 19.9604C8.48738 19.9604 8.54854 19.9303 8.59639 19.8767L8.59645 19.8766L9.7894 18.5352L10.9823 19.8766C11.0249 19.9245 11.0755 19.9528 11.1294 19.9598C11.1832 19.9667 11.2352 19.9517 11.2794 19.9217C11.3671 19.8623 11.4254 19.7443 11.4251 19.6024C11.426 16.3366 11.4268 12.7683 11.4268 9.49724H13.7823C13.8628 9.49724 13.9312 9.45351 13.9776 9.38874C14.0238 9.3242 14.0502 9.23696 14.0502 9.14074V2.37443C14.0502 1.77137 13.8774 1.22207 13.5943 0.822225C13.3112 0.422462 12.9148 0.16875 12.4696 0.16875H1.5327C1.08468 0.16875 0.687916 0.421898 0.405089 0.821324C0.122255 1.22076 -0.0495 1.76962 -0.0496438 2.37262C-0.0504554 5.77557 -0.0497252 9.17815 -0.0489951 12.5803C-0.0484928 14.9212 -0.0479905 17.2619 -0.0479905 19.6024C-0.0480721 19.7439 0.0100869 19.8618 0.0976052 19.9212C0.141731 19.9511 0.193685 19.9662 0.247326 19.9593C0.301119 19.9525 0.351741 19.9244 0.394303 19.8767ZM1.41377 17.7909L0.488702 18.8326C0.487895 13.3468 0.487895 7.85996 0.487895 2.37263C0.487895 1.93412 0.6163 1.56039 0.811634 1.29749C1.0072 1.03427 1.26731 0.884751 1.5327 0.884751H11.3016C11.0391 1.2783 10.8886 1.79641 10.8886 2.37443C10.8885 5.31892 10.8881 7.93364 10.8878 10.4961C10.8874 13.2226 10.887 15.8899 10.8869 18.8324L9.96363 17.791L9.96356 17.7909C9.91567 17.7371 9.85441 17.7069 9.78972 17.7069C9.72504 17.7069 9.66378 17.7371 9.61589 17.7909L9.61587 17.7909L8.42125 19.1347L7.22829 17.7909L7.22824 17.7909C7.18035 17.7371 7.11909 17.7069 7.05441 17.7069C6.98972 17.7069 6.92847 17.7371 6.88058 17.7909L6.88054 17.7909L5.68761 19.1347L4.49469 17.7909L4.4946 17.7908C4.44673 17.7372 4.38557 17.7071 4.32101 17.7071C4.25644 17.7071 4.19529 17.7372 4.14744 17.7908L4.14735 17.7909L2.95444 19.1347L1.76152 17.7909L1.76147 17.7909C1.71357 17.7371 1.65232 17.7069 1.58763 17.7069C1.52295 17.7069 1.4617 17.7371 1.41381 17.7909L1.41377 17.7909ZM5.25086 5.19189L5.251 5.19189C5.34851 5.19268 6.48411 5.19242 7.61909 5.19216C8.18589 5.19203 8.75255 5.1919 9.18968 5.1919C9.28331 5.1919 9.35254 5.14138 9.39615 5.07235C9.43888 5.00472 9.45862 4.91784 9.45862 4.8339C9.45862 4.74995 9.43888 4.66307 9.39615 4.59544C9.35254 4.52641 9.28331 4.47589 9.18968 4.47589H5.2514C5.15762 4.47589 5.08809 4.52596 5.04416 4.5948C5.00115 4.66222 4.98129 4.74888 4.98129 4.8327C4.98129 4.91652 5.00116 5.00331 5.04408 5.07106C5.08786 5.14015 5.15717 5.19087 5.25086 5.19189ZM2.18988 15.9619H2.19015H9.18968C9.28321 15.9619 9.35233 15.9113 9.39585 15.8423C9.4385 15.7747 9.45819 15.6878 9.45819 15.6039C9.45819 15.5199 9.4385 15.4331 9.39585 15.3654C9.35233 15.2964 9.28321 15.2459 9.18968 15.2459H2.19015C2.09618 15.2459 2.02649 15.296 1.98247 15.365C1.93936 15.4325 1.91944 15.5193 1.91944 15.6033C1.91944 15.6872 1.93936 15.7741 1.98243 15.8418C2.02638 15.9109 2.09595 15.9613 2.18988 15.9619ZM12.4692 0.884751C12.7508 0.884751 13.0108 1.04371 13.2024 1.31203C13.3939 1.58027 13.5141 1.95474 13.5141 2.37443V8.78425H11.4265V2.37443C11.4265 1.95469 11.5462 1.58021 11.7372 1.31198C11.9282 1.04369 12.1877 0.884751 12.4692 0.884751ZM5.2514 6.63037C5.15753 6.63037 5.088 6.68069 5.04412 6.7497C5.00114 6.81729 4.98129 6.90415 4.98129 6.98807C4.98129 7.07199 5.00114 7.15884 5.04412 7.22644C5.088 7.29544 5.15753 7.34577 5.2514 7.34577H9.18968C9.28319 7.34577 9.35232 7.29526 9.39585 7.2263C9.43851 7.15873 9.45821 7.07193 9.45822 6.98807C9.45822 6.90421 9.43853 6.81741 9.39587 6.74983C9.35234 6.68087 9.28321 6.63037 9.18968 6.63037H5.2514ZM5.2514 8.78425C5.15762 8.78425 5.08809 8.83433 5.04417 8.90312C5.00116 8.97051 4.98129 9.05709 4.98129 9.14074C4.98129 9.2244 5.00116 9.31098 5.04417 9.37836C5.08809 9.44716 5.15762 9.49724 5.2514 9.49724H9.18968C9.2831 9.49724 9.35222 9.44698 9.3958 9.37822C9.43848 9.31086 9.45819 9.22433 9.45819 9.14074C9.45819 9.05715 9.43848 8.97062 9.3958 8.90326C9.35222 8.83451 9.2831 8.78425 9.18968 8.78425H5.2514ZM2.19015 10.9375C2.0958 10.9375 2.02615 10.9887 1.98231 11.0583C1.93932 11.1266 1.91944 11.2142 1.91944 11.2987C1.91944 11.3831 1.9393 11.4703 1.98255 11.5377C2.02669 11.6064 2.09673 11.6555 2.19087 11.6529H9.18968C9.28319 11.6529 9.35231 11.6024 9.39584 11.5334C9.4385 11.4659 9.45819 11.3791 9.45819 11.2952C9.45819 11.2114 9.4385 11.1246 9.39584 11.057C9.35231 10.988 9.28319 10.9375 9.18968 10.9375H2.19015ZM2.19015 13.092C2.09612 13.092 2.02644 13.1423 1.98244 13.2114C1.93935 13.279 1.91944 13.366 1.91944 13.45C1.91944 13.534 1.93935 13.6209 1.98244 13.6886C2.02644 13.7577 2.09612 13.808 2.19015 13.808H9.18968C9.28322 13.808 9.35234 13.7574 9.39585 13.6884C9.4385 13.6208 9.45819 13.5339 9.45819 13.45C9.45819 13.3661 9.4385 13.2792 9.39585 13.2116C9.35234 13.1426 9.28322 13.092 9.18968 13.092H2.19015Z" fill="#15094E" stroke="#15094E" stroke-width="0.1"/>
</g>
<defs>
<clipPath id="clip0_14035_38213">
<rect width="14" height="19.6923" fill="white" transform="translate(0 0.21875)"/>
</clipPath>
</defs>
</svg>
