<svg xmlns="http://www.w3.org/2000/svg" xmlns:xlink="http://www.w3.org/1999/xlink" width="24" height="24" viewBox="0 0 24 24">
  <defs>
    <clipPath id="clip-path">
      <path id="Path_261" data-name="Path 261" d="M11.5-22A4.512,4.512,0,0,1,16-17.476a4.512,4.512,0,0,1-4.5,4.524A4.512,4.512,0,0,1,7-17.476,4.512,4.512,0,0,1,11.5-22Zm0,1.131a3.384,3.384,0,0,0-3.375,3.393A3.384,3.384,0,0,0,11.5-14.083a3.384,3.384,0,0,0,3.375-3.393A3.384,3.384,0,0,0,11.5-20.869Z" transform="translate(-7 22)" fill="none"/>
    </clipPath>
    <clipPath id="clip-path-2">
      <path id="Path_260" data-name="Path 260" d="M-1,4.144H26V-23H-1Z" transform="translate(1 23)" fill="none"/>
    </clipPath>
    <clipPath id="clip-Calendar">
      <rect width="24" height="24"/>
    </clipPath>
  </defs>
  <g id="Calendar" clip-path="url(#clip-Calendar)">
    <rect width="24" height="24" fill="#fff"/>
    <g id="Group_194" data-name="Group 194">
      <g id="Rectangle_1" data-name="Rectangle 1" transform="translate(1 4)" fill="none" stroke="#14054e" stroke-width="1">
        <rect width="22" height="19" rx="2" stroke="none"/>
        <rect x="0.5" y="0.5" width="21" height="18" rx="1.5" fill="none"/>
      </g>
      <g id="Rectangle_2" data-name="Rectangle 2" transform="translate(1 4)" fill="none" stroke="#14054e" stroke-width="1">
        <path d="M2,0H20a2,2,0,0,1,2,2V7a0,0,0,0,1,0,0H0A0,0,0,0,1,0,7V2A2,2,0,0,1,2,0Z" stroke="none"/>
        <path d="M2,.5H20A1.5,1.5,0,0,1,21.5,2V6a.5.5,0,0,1-.5.5H1A.5.5,0,0,1,.5,6V2A1.5,1.5,0,0,1,2,.5Z" fill="none"/>
      </g>
      <rect id="Rectangle_3" data-name="Rectangle 3" width="2" height="5" transform="translate(6 1)" fill="#14014e"/>
      <rect id="Rectangle_4" data-name="Rectangle 4" width="2" height="5" transform="translate(16 1)" fill="#14014e"/>
      <g id="Group_173" data-name="Group 173">
        <g id="Group_96" data-name="Group 96" transform="translate(12 12)" clip-path="url(#clip-path)">
          <g id="Group_95" data-name="Group 95" transform="translate(-9 -1.131)" clip-path="url(#clip-path-2)">
            <path id="Path_259" data-name="Path 259" d="M2-27H22.25V-6.642H2Z" transform="translate(1.375 22.476)" fill="#2ebdf3"/>
          </g>
        </g>
        <g id="Group_172" data-name="Group 172">
          <rect id="Rectangle_5" data-name="Rectangle 5" width="1" height="3" rx="0.5" transform="translate(16 14)" fill="#32bcf3"/>
          <rect id="Rectangle_6" data-name="Rectangle 6" width="1" height="3" rx="0.5" transform="translate(19 16) rotate(90)" fill="#32bcf3"/>
        </g>
      </g>
    </g>
  </g>
</svg>
