<svg width="20" height="20" viewBox="0 0 20 20" fill="none" xmlns="http://www.w3.org/2000/svg">
<path d="M12.5005 4.58144C12.3838 4.37992 12.2198 4.20979 12.0228 4.08567C11.8257 3.96156 11.6015 3.88718 11.3693 3.86894C11.138 3.84906 10.9053 3.88625 10.6918 3.97724C10.4782 4.06823 10.2902 4.21024 10.1443 4.39081L5.80678 9.43769L2.59428 11.2908C2.26516 11.4819 2.02482 11.7953 1.92553 12.1627C1.87551 12.3449 1.86245 12.5352 1.88714 12.7225C1.91183 12.9098 1.97376 13.0903 2.06928 13.2533L3.19116 15.2002C3.38228 15.5293 3.69562 15.7697 4.06303 15.8689C4.18521 15.9024 4.31135 15.9192 4.43803 15.9189C4.68805 15.9183 4.9336 15.8526 5.15053 15.7283L5.33803 16.0408C5.68566 16.642 6.12777 17.1833 6.64741 17.6439L6.92866 17.8939C7.08474 18.0381 7.2881 18.1204 7.50053 18.1252C7.65395 18.1254 7.80475 18.0855 7.93803 18.0096L8.85991 17.4752C8.97979 17.406 9.08148 17.3093 9.15657 17.193C9.23166 17.0768 9.278 16.9443 9.29174 16.8066C9.30548 16.6688 9.28623 16.5298 9.2356 16.401C9.18496 16.2722 9.10438 16.1573 9.00053 16.0658C8.53043 15.6484 8.12961 15.159 7.81303 14.6158L7.62553 14.3033L8.36303 13.8783L14.7599 12.2502C14.9785 12.1993 15.1822 12.0978 15.3546 11.954C15.527 11.8102 15.6633 11.628 15.7526 11.4221C15.8419 11.2161 15.8817 10.9921 15.8689 10.768C15.8561 10.5439 15.7909 10.3259 15.6787 10.1314L12.5005 4.58144ZM4.22553 15.2658C4.12244 15.2383 4.02577 15.1907 3.94105 15.1259C3.85633 15.061 3.78522 14.98 3.73178 14.8877L2.60991 12.9408C2.52744 12.7982 2.49043 12.6339 2.50384 12.4697C2.51724 12.3056 2.58041 12.1494 2.68491 12.0221L3.59116 13.5846C3.6326 13.6567 3.70099 13.7094 3.78127 13.731C3.86156 13.7527 3.94718 13.7416 4.01928 13.7002C4.09139 13.6587 4.14408 13.5904 4.16576 13.5101C4.18745 13.4298 4.17635 13.3442 4.13491 13.2721L3.19741 11.6533L5.89116 10.0908L6.87553 11.7846L7.84428 13.4596L7.05678 13.9064L5.13491 15.0158L4.85678 14.5314C4.81534 14.4593 4.74696 14.4066 4.66667 14.385C4.58638 14.3633 4.50076 14.3744 4.42866 14.4158C4.35655 14.4573 4.30386 14.5256 4.28218 14.6059C4.26049 14.6862 4.27159 14.7718 4.31303 14.8439L4.56616 15.2814C4.45284 15.3013 4.33656 15.2959 4.22553 15.2658ZM7.28491 14.9283C7.63075 15.5307 8.07308 16.0723 8.59428 16.5314C8.62367 16.5579 8.64636 16.591 8.66048 16.6279C8.67461 16.6648 8.67976 16.7046 8.67553 16.7439C8.67214 16.7832 8.65928 16.821 8.63805 16.8542C8.61683 16.8874 8.58787 16.915 8.55366 16.9346L7.63178 17.4658C7.5868 17.4931 7.53418 17.5051 7.48179 17.5001C7.42941 17.495 7.38007 17.4731 7.34116 17.4377L7.06303 17.1877C6.59267 16.7725 6.19269 16.2839 5.87866 15.7408L5.69116 15.4283L6.19741 15.1377L7.09741 14.6158L7.28491 14.9283ZM15.1912 11.1627C15.1411 11.2794 15.0639 11.3825 14.9661 11.4634C14.8683 11.5444 14.7526 11.6009 14.6287 11.6283L8.40991 13.2127L6.39116 9.71581L10.6255 4.79081C10.7084 4.68843 10.8148 4.60771 10.9358 4.55561C11.0567 4.50352 11.1885 4.4816 11.3198 4.49174C11.4511 4.50189 11.578 4.5438 11.6895 4.61386C11.801 4.68393 11.8938 4.78004 11.9599 4.89394L15.1505 10.4314C15.2138 10.5417 15.2505 10.6653 15.2575 10.7922C15.2646 10.9192 15.2419 11.0461 15.1912 11.1627ZM15.0005 6.69394C15.0209 6.72975 15.0482 6.76116 15.0809 6.78638C15.1135 6.81159 15.1507 6.8301 15.1905 6.84085C15.2303 6.8516 15.2719 6.85437 15.3127 6.849C15.3536 6.84363 15.393 6.83022 15.4287 6.80956L16.9349 5.93769C17.007 5.89625 17.0597 5.82786 17.0814 5.74757C17.1031 5.66728 17.092 5.58167 17.0505 5.50956C17.03 5.47386 17.0027 5.44255 16.97 5.41741C16.9374 5.39228 16.9002 5.37382 16.8604 5.36308C16.7801 5.3414 16.6945 5.3525 16.6224 5.39394L15.1287 6.25644C15.0905 6.27573 15.0568 6.30263 15.0295 6.33548C15.0021 6.36833 14.9819 6.40644 14.9699 6.44744C14.9578 6.48844 14.9544 6.53147 14.9597 6.57387C14.9649 6.61627 14.9788 6.65713 15.0005 6.69394ZM14.3755 5.40644C14.4025 5.40951 14.4298 5.40951 14.4568 5.40644C14.5273 5.40885 14.5966 5.38731 14.6534 5.34532C14.7101 5.30333 14.751 5.24336 14.7693 5.17519L15.213 3.50956C15.2253 3.46946 15.2294 3.4273 15.2251 3.38559C15.2207 3.34387 15.208 3.30346 15.1877 3.26676C15.1674 3.23006 15.14 3.19781 15.107 3.17195C15.0739 3.14609 15.0361 3.12714 14.9956 3.11623C14.9551 3.10532 14.9128 3.10267 14.8712 3.10844C14.8297 3.11422 14.7897 3.12829 14.7538 3.14983C14.7178 3.17137 14.6865 3.19993 14.6618 3.23382C14.6371 3.2677 14.6194 3.30622 14.6099 3.34706L14.163 5.01269C14.1506 5.05248 14.1462 5.09437 14.1502 5.13587C14.1542 5.17737 14.1665 5.21766 14.1863 5.25435C14.2061 5.29105 14.233 5.3234 14.2655 5.34952C14.298 5.37564 14.3354 5.39499 14.3755 5.40644ZM17.8943 8.17519L16.2287 7.72831C16.1889 7.71764 16.1473 7.71492 16.1065 7.72029C16.0656 7.72567 16.0262 7.73904 15.9905 7.75964C15.9548 7.78025 15.9235 7.80768 15.8985 7.84037C15.8734 7.87306 15.855 7.91038 15.8443 7.95019C15.8336 7.98999 15.8309 8.03151 15.8363 8.07237C15.8416 8.11323 15.855 8.15263 15.8756 8.18833C15.8962 8.22402 15.9236 8.2553 15.9563 8.28039C15.989 8.30549 16.0264 8.32389 16.0662 8.33456L17.7318 8.77831C17.7587 8.78263 17.7861 8.78263 17.813 8.77831C17.8959 8.78909 17.9797 8.76649 18.0459 8.71551C18.1121 8.66452 18.1554 8.58932 18.1662 8.50644C18.1769 8.42356 18.1543 8.33979 18.1034 8.27357C18.0524 8.20734 17.9772 8.16409 17.8943 8.15331V8.17519Z" fill="#140C4D" stroke="#140C4D" stroke-width="0.6"/>
</svg>
