<svg xmlns="http://www.w3.org/2000/svg" xmlns:xlink="http://www.w3.org/1999/xlink" width="24" height="24" viewBox="0 0 24 24">
  <defs>
    <clipPath id="clip-path">
      <path id="Path_258" data-name="Path 258" d="M21.874-10.689,17.8-14.783a.428.428,0,0,0-.608,0,.434.434,0,0,0,0,.611l3.768,3.788-2.2,2.215a.173.173,0,0,1-.245,0l-4.351-4.374a.175.175,0,0,1,0-.246l1.479-1.487a.434.434,0,0,0,0-.611.428.428,0,0,0-.608,0L13.556-13.4a1.044,1.044,0,0,0-.219,1.141l-.5.5H9.34l-.631-.634a1.049,1.049,0,0,0,.037-.276,1.034,1.034,0,0,0-.3-.734L7.005-14.847a.428.428,0,0,0-.608,0,.434.434,0,0,0,0,.611L7.836-12.79a.174.174,0,0,1,.051.123.174.174,0,0,1-.051.123l-.12.12L3.484-8.169l0,0a.172.172,0,0,1-.117.046.172.172,0,0,1-.122-.051l-2.2-2.215,3.819-3.839a.434.434,0,0,0,0-.611.428.428,0,0,0-.608,0L.126-10.69a.434.434,0,0,0,0,.611l2.507,2.52a1.027,1.027,0,0,0,.73.3,1.031,1.031,0,0,0,.358-.065L5.132-5.9a1.474,1.474,0,0,0-.172.692A1.475,1.475,0,0,0,6.43-3.732h.005A1.475,1.475,0,0,0,7.9-2.255v0A1.475,1.475,0,0,0,9.368-.776a1.454,1.454,0,0,0,.69-.173l.525.528a1.292,1.292,0,0,0,.922.384,1.292,1.292,0,0,0,.922-.384,1.3,1.3,0,0,0,.381-.871,1.32,1.32,0,0,0,.873-.389,1.329,1.329,0,0,0,.389-.963v0a1.428,1.428,0,0,0,.972-.467,1.45,1.45,0,0,0,.381-.985,1.391,1.391,0,0,0,.952-.413,1.406,1.406,0,0,0,.411-1,1.412,1.412,0,0,0-.15-.631l1.41-1.3a1.027,1.027,0,0,0,.591.187,1.027,1.027,0,0,0,.73-.3l2.507-2.52A.434.434,0,0,0,21.874-10.689ZM6.43-4.6a.612.612,0,0,1-.61-.613.612.612,0,0,1,.61-.613.612.612,0,0,1,.61.613A.612.612,0,0,1,6.43-4.6ZM8.358-3.324l-.051.051a.6.6,0,0,1-.4.154.612.612,0,0,1-.609-.613A.612.612,0,0,1,7.9-4.345a.612.612,0,0,1,.61.613A.612.612,0,0,1,8.358-3.324ZM9.8-1.826,9.8-1.821l-.006.007a.605.605,0,0,1-.425.174.612.612,0,0,1-.61-.613.611.611,0,0,1,.156-.407l.051-.051a.6.6,0,0,1,.4-.154.612.612,0,0,1,.61.613A.612.612,0,0,1,9.8-1.826Zm5.962-3.3a.54.54,0,0,1-.385.16A.54.54,0,0,1,15-5.122l-.893-.9a.428.428,0,0,0-.608,0,.434.434,0,0,0,0,.611l.893.9h0l0,0a.587.587,0,0,1,.017.811A.577.577,0,0,1,14-3.508a.576.576,0,0,1-.421-.16l-.86-.818a.428.428,0,0,0-.608.017.434.434,0,0,0,.017.611l.936.891a.469.469,0,0,1,.146.336.469.469,0,0,1-.137.34.467.467,0,0,1-.663,0l-.434-.436a.428.428,0,0,0-.608,0,.432.432,0,0,0-.126.306.432.432,0,0,0,.126.306l.451.454a.445.445,0,0,1,.13.316.445.445,0,0,1-.13.316.44.44,0,0,1-.314.131.44.44,0,0,1-.314-.131l-.526-.529a1.473,1.473,0,0,0,.172-.692A1.475,1.475,0,0,0,9.373-3.73v0A1.475,1.475,0,0,0,7.9-5.209H7.9A1.475,1.475,0,0,0,6.43-6.686a1.454,1.454,0,0,0-.69.173L4.4-7.863l3.8-3.821.662.665a.429.429,0,0,0,.3.127h.556l-1.7,1.706a1.376,1.376,0,0,0-.4.976,1.375,1.375,0,0,0,.4.976,1.361,1.361,0,0,0,.971.4,1.361,1.361,0,0,0,.971-.4L11.4-8.68l1.575.017L15.764-5.9a.545.545,0,0,1,.162.388A.545.545,0,0,1,15.767-5.122ZM16.078-6.8,13.459-9.4h0l0,0a.427.427,0,0,0-.352-.121l-1.871-.021a.43.43,0,0,0-.309.127L9.356-7.844a.509.509,0,0,1-.363.151.509.509,0,0,1-.363-.151.514.514,0,0,1-.15-.365.515.515,0,0,1,.15-.365l2.3-2.317h2.08a.429.429,0,0,0,.3-.127l.573-.576,3.534,3.553Z" transform="translate(0 15.013)" fill="none"/>
    </clipPath>
    <clipPath id="clip-path-2">
      <path id="Path_257" data-name="Path 257" d="M-1,1.128H23V-23H-1Z" transform="translate(1 23)" fill="none"/>
    </clipPath>
    <clipPath id="clip-path-3">
      <path id="Path_261" data-name="Path 261" d="M11-22a4.011,4.011,0,0,1,4,4.021,4.011,4.011,0,0,1-4,4.021,4.011,4.011,0,0,1-4-4.021A4.011,4.011,0,0,1,11-22Zm0,1.005a3.008,3.008,0,0,0-3,3.016,3.008,3.008,0,0,0,3,3.016,3.008,3.008,0,0,0,3-3.016A3.008,3.008,0,0,0,11-20.995Zm1.973,1.656a.5.5,0,0,1,.056.641l-.058.069L11.353-17.01a.5.5,0,0,1-.637.057l-.069-.058-1-1.005a.5.5,0,0,1,0-.711.5.5,0,0,1,.638-.058l.069.058.646.65,1.266-1.263A.5.5,0,0,1,12.973-19.338Z" transform="translate(-7 22)" fill="none"/>
    </clipPath>
    <clipPath id="clip-Counterparty">
      <rect width="24" height="24"/>
    </clipPath>
  </defs>
  <g id="Counterparty" clip-path="url(#clip-Counterparty)">
    <rect width="24" height="24" fill="#fff"/>
    <g id="Group_171" data-name="Group 171" transform="translate(1 1)">
      <g id="Group_94" data-name="Group 94" transform="translate(0 7.024)" clip-path="url(#clip-path)">
        <g id="Group_93" data-name="Group 93" transform="translate(-1 -8.03)" clip-path="url(#clip-path-2)">
          <path id="Path_256" data-name="Path 256" d="M-5-20.013H27V5.016H-5Z" transform="translate(1 23.016)" fill="#14094e"/>
        </g>
      </g>
      <g id="Group_96" data-name="Group 96" transform="translate(7)" clip-path="url(#clip-path-3)">
        <g id="Group_95" data-name="Group 95" transform="translate(-8 -1.005)" clip-path="url(#clip-path-2)">
          <path id="Path_259" data-name="Path 259" d="M2-27H20V-8.9H2Z" transform="translate(1 22.979)" fill="#2ebdf3"/>
        </g>
      </g>
    </g>
  </g>
</svg>
