<svg width="16" height="16" viewBox="0 0 16 16" fill="none" xmlns="http://www.w3.org/2000/svg">
<mask id="mask0_1471_56673" style="mask-type:luminance" maskUnits="userSpaceOnUse" x="1" y="6" width="9" height="10">
<path fill-rule="evenodd" clip-rule="evenodd" d="M9.45508 6.54492V15.9995H1.45508V6.54492H9.45508ZM8.72781 7.27219H2.18235V15.2722H3.6369V13.0904H7.27326V15.2722H8.72781V7.27219ZM7.27326 10.9086V11.6358H3.6369V10.9086H7.27326ZM7.27326 8.72674V9.45401H3.6369V8.72674H7.27326Z" fill="white"/>
</mask>
<g mask="url(#mask0_1471_56673)">
<mask id="mask1_1471_56673" style="mask-type:alpha" maskUnits="userSpaceOnUse" x="-1" y="-1" width="18" height="18">
<path d="M-0.726562 16.726H16.728V-0.728516H-0.726562V16.726Z" fill="black"/>
</mask>
<g mask="url(#mask1_1471_56673)">
<path d="M-2.18164 2.9082H13.0911V19.6355H-2.18164V2.9082Z" fill="#2EBDF3"/>
</g>
</g>
<mask id="mask2_1471_56673" style="mask-type:luminance" maskUnits="userSpaceOnUse" x="0" y="0" width="16" height="16">
<path fill-rule="evenodd" clip-rule="evenodd" d="M15.2727 0V15.2727H16V16H0V15.2727H14.5455V0.71036H7.27272V6.44389H6.54545V1e-05L15.2727 0ZM13.0909 13.0909V13.8182H11.6364V13.0909H13.0909ZM13.0909 10.9091V11.6364H11.6364V10.9091H13.0909ZM13.0909 8.72727V9.45454H11.6364V8.72727H13.0909ZM13.0909 6.54545V7.27272H11.6364V6.54545H13.0909ZM13.0909 4.36364V5.09091H8V4.36364H13.0909ZM13.0909 2.18182V2.90909H8V2.18182H13.0909Z" fill="white"/>
</mask>
<g mask="url(#mask2_1471_56673)">
<mask id="mask3_1471_56673" style="mask-type:alpha" maskUnits="userSpaceOnUse" x="-1" y="-1" width="18" height="18">
<path d="M-0.726562 16.728H16.728V-0.726562H-0.726562V16.728Z" fill="black"/>
</mask>
<g mask="url(#mask3_1471_56673)">
<path d="M-3.63477 -3.63477H19.638V19.638H-3.63477V-3.63477Z" fill="#14094E"/>
</g>
</g>
</svg>
