<svg width="36" height="36" viewBox="0 0 36 36" fill="none" xmlns="http://www.w3.org/2000/svg">
<rect x="4" y="4" width="28" height="28" rx="4" fill="#140C4D"/>
<g clip-path="url(#clip0_10206_60257)">
<path d="M17.3833 26.9495L17.3834 26.9495L20.6476 22.3136L20.6478 22.3135C20.6196 22.3272 20.5944 22.3462 20.5736 22.3696C20.5527 22.393 20.5367 22.4203 20.5263 22.4499C20.516 22.4796 20.5116 22.511 20.5134 22.5423C20.5152 22.5736 20.5232 22.6043 20.5368 22.6326L20.6269 22.5891L20.5368 22.6326C20.5505 22.6608 20.5696 22.6861 20.593 22.707C20.6164 22.7279 20.6437 22.744 20.6734 22.7543C20.703 22.7646 20.7344 22.769 20.7657 22.7672C20.7971 22.7654 20.8277 22.7574 20.856 22.7438L20.8567 22.7434L25.2738 20.5658C25.3631 20.5317 25.5422 20.4721 25.7361 20.4721C25.929 20.4721 26.1287 20.5304 26.2758 20.727C26.4066 20.9415 26.4387 21.1102 26.4008 21.2557C26.362 21.4049 26.2437 21.5539 26.0202 21.714L19.3416 26.2723C19.0817 26.449 18.7835 26.5616 18.4716 26.6007C18.1598 26.6398 17.8432 26.6043 17.5477 26.4973C17.5476 26.4973 17.5476 26.4973 17.5475 26.4972L13.152 24.8802L13.1513 24.88C12.9204 24.7969 12.677 24.754 12.4316 24.7531H12.4312H11.8125C11.7487 24.7531 11.6875 24.7785 11.6424 24.8236C11.5972 24.8687 11.5719 24.9299 11.5719 24.9937C11.5719 25.0576 11.5972 25.1188 11.6424 25.1639C11.6875 25.209 11.7487 25.2344 11.8125 25.2344L12.431 25.2344C12.431 25.2344 12.4311 25.2344 12.4311 25.2344C12.6209 25.2349 12.8091 25.269 12.9871 25.335L12.9874 25.3351L17.3833 26.9495ZM25.0829 20.1424L20.6481 22.3134L18.225 26.9991L18.2248 27.0991C18.7185 27.1003 19.201 26.9521 19.6088 26.6739L19.609 26.6738L26.283 22.1063L26.2831 22.1063L26.2852 22.1048L26.29 22.1013C26.3983 22.023 26.6294 21.8558 26.7667 21.591C26.9107 21.3134 26.9451 20.9423 26.6758 20.48L26.6763 20.4797L26.6699 20.4711C26.3237 20 25.713 19.8853 25.0891 20.1396L25.089 20.1394L25.0829 20.1424Z" fill="white" stroke="white" stroke-width="0.2"/>
<path d="M19.7226 23.3197L19.7226 23.3202C19.8237 23.3301 19.9259 23.3191 20.0227 23.288C20.1191 23.257 20.2082 23.2066 20.2845 23.1399C20.3607 23.07 20.4219 22.9854 20.4645 22.8912C20.5073 22.7967 20.5304 22.6945 20.5325 22.5908L20.5325 22.5897C20.5346 22.5244 20.5287 22.4591 20.5152 22.3951C20.4755 22.2244 20.3807 22.0714 20.2454 21.96C20.1099 21.8485 19.9415 21.7848 19.7662 21.7787C19.766 21.7787 19.7659 21.7787 19.7657 21.7787L16.7491 21.7084C16.749 21.7084 16.749 21.7084 16.7489 21.7084C16.437 21.7015 16.1302 21.6271 15.8498 21.4903C15.8497 21.4903 15.8497 21.4902 15.8496 21.4902L13.2626 20.2445L13.2618 20.2441L13.2618 20.2441C13.027 20.1287 12.7688 20.0687 12.5072 20.0687H12.5072H11.8125C11.7487 20.0687 11.6875 20.0434 11.6424 19.9983C11.5972 19.9531 11.5719 19.8919 11.5719 19.8281C11.5719 19.7643 11.5972 19.7031 11.6424 19.658C11.6875 19.6129 11.7487 19.5875 11.8125 19.5875H12.5072H12.5073C12.8355 19.5878 13.1596 19.6613 13.4558 19.8025L13.4563 19.8028L13.4563 19.8028L16.0437 21.0515C16.0438 21.0515 16.0438 21.0515 16.0438 21.0515C16.2627 21.157 16.5018 21.2141 16.7447 21.2188L16.7452 21.2188L19.7619 21.2919C19.7621 21.2919 19.7623 21.2919 19.7625 21.2919C20.0479 21.2956 20.3237 21.3955 20.5453 21.5755C20.767 21.7556 20.9213 22.0054 20.9832 22.2842C20.9832 22.2842 20.9832 22.2842 20.9832 22.2843L19.7226 23.3197ZM19.7226 23.3197H19.7128H17.2856C17.2218 23.3197 17.1606 23.345 17.1155 23.3902C17.0704 23.4353 17.045 23.4965 17.045 23.5603C17.045 23.6241 17.0704 23.6853 17.1155 23.7305C17.1606 23.7756 17.2218 23.8009 17.2856 23.8009H19.7472C20.0601 23.8142 20.3658 23.704 20.5982 23.494L19.7226 23.3197Z" fill="white" stroke="white" stroke-width="0.2"/>
<path d="M11.4208 25.7194C11.504 25.7206 11.5865 25.7053 11.6637 25.6744C11.7411 25.6434 11.8116 25.5973 11.8711 25.5388C11.9305 25.4803 11.9777 25.4105 12.0099 25.3336C12.0422 25.2567 12.0588 25.1741 12.0587 25.0907V19.7469C12.0587 19.5802 11.9925 19.4202 11.8746 19.3023C11.7567 19.1844 11.5968 19.1182 11.43 19.1182H9.7425C9.57558 19.1182 9.41544 19.1842 9.2971 19.302C9.17875 19.4197 9.11182 19.5795 9.11094 19.7464V19.7469L9.11094 25.0907L9.11094 25.0912C9.11179 25.2564 9.17734 25.4147 9.29353 25.5321C9.40972 25.6495 9.5673 25.7168 9.73248 25.7194L9.73248 25.7194H9.73406H11.4208ZM11.4208 25.7194C11.4205 25.7194 11.4203 25.7194 11.42 25.7194L11.4216 25.6194M11.4208 25.7194H11.4216V25.6194M11.4216 25.6194C11.4917 25.6205 11.5614 25.6077 11.6265 25.5816C11.6916 25.5555 11.7509 25.5168 11.8009 25.4676C11.8509 25.4183 11.8906 25.3597 11.9177 25.295C11.9448 25.2303 11.9588 25.1608 11.9588 25.0907V19.7469C11.9588 19.6067 11.903 19.4722 11.8039 19.373C11.7047 19.2739 11.5702 19.2182 11.43 19.2182H9.7425C9.60201 19.2182 9.46723 19.2738 9.36762 19.3729C9.26801 19.4719 9.21168 19.6064 9.21094 19.7469L9.73406 25.6194H11.4216ZM22.8031 21.7707C22.8414 21.7712 22.8794 21.7635 22.9144 21.7481L22.9145 21.7483L22.9202 21.7453C22.9756 21.7165 23.0177 21.6672 23.0374 21.6079C23.0572 21.5487 23.0531 21.484 23.0261 21.4277L23.0261 21.4277L23.0244 21.4243C22.7719 20.9464 22.2903 20.5938 21.5636 20.3335C21.2242 20.2111 20.901 20.0477 20.6013 19.8468C20.4055 19.7144 20.1735 19.5857 19.8932 19.4315L19.8927 19.4312C19.5467 19.2435 19.1609 19.141 18.7674 19.1323C18.3744 19.1237 17.985 19.2088 17.6315 19.3807C17.2416 19.5549 16.8316 19.6798 16.4108 19.7524L16.4108 19.7523L16.4068 19.7532C16.1447 19.8096 15.8225 19.8802 15.3959 19.9904L15.3959 19.9904L15.3938 19.991C15.0627 20.0845 14.7597 20.2578 14.5112 20.4957C14.4873 20.5152 14.4675 20.5392 14.4527 20.5663C14.437 20.5952 14.4275 20.627 14.4247 20.6598C14.422 20.6925 14.426 20.7255 14.4366 20.7566C14.4472 20.7877 14.4642 20.8163 14.4864 20.8405L14.5601 20.7729L14.4864 20.8405C14.5086 20.8647 14.5356 20.8841 14.5657 20.8974L14.6061 20.8059L14.5657 20.8974C14.5957 20.9107 14.6282 20.9176 14.6611 20.9176C14.694 20.9177 14.7265 20.911 14.7566 20.8979C14.7857 20.8852 14.8119 20.8669 14.8338 20.8439C15.028 20.6587 15.2645 20.5238 15.5228 20.451C15.936 20.3449 16.2543 20.2751 16.5114 20.222C16.9679 20.1404 17.4127 20.003 17.8357 19.8128L17.8357 19.8129L17.8391 19.8112C18.1254 19.6693 18.4418 19.5991 18.7612 19.6066C19.0806 19.614 19.3934 19.6989 19.6727 19.854L19.6727 19.8541L19.6755 19.8555C19.9142 19.9784 20.0999 20.0929 20.2672 20.196C20.2955 20.2135 20.3233 20.2306 20.3507 20.2473C20.68 20.4686 21.0353 20.6486 21.4086 20.7832L21.4088 20.7832C22.0422 21.0101 22.4181 21.2929 22.5899 21.6353C22.6088 21.6757 22.6389 21.71 22.6766 21.7339L22.7302 21.6496L22.6766 21.7339C22.7144 21.758 22.7583 21.7707 22.8031 21.7707ZM22.8031 21.7707C22.8026 21.7707 22.8022 21.7706 22.8017 21.7706L22.8038 21.6707L22.8045 21.7707C22.804 21.7707 22.8036 21.7707 22.8031 21.7707ZM18.8422 17.6603L18.8428 17.6604C19.0238 16.0067 19.7643 14.4644 20.9415 13.289L21.0122 13.3597L20.9408 13.2897C20.9629 13.2671 20.9893 13.2492 21.0185 13.2369C21.0477 13.2247 21.079 13.2184 21.1106 13.2184C21.1423 13.2184 21.1736 13.2247 21.2028 13.2369C21.2315 13.249 21.2576 13.2666 21.2796 13.2888M18.8422 17.6603L21.3316 13.365C21.3194 13.3364 21.3018 13.3105 21.2796 13.2888M18.8422 17.6603L18.8422 17.6711M18.8422 17.6603L18.8422 17.6711M21.2796 13.2888C21.2792 13.2885 21.2789 13.2882 21.2786 13.2879L21.2091 13.3597L21.2805 13.2897C21.2802 13.2894 21.2799 13.2891 21.2796 13.2888ZM18.8422 17.6711C18.8421 17.734 18.8661 17.7946 18.9092 17.8404C18.9523 17.8861 19.0112 17.9136 19.0739 17.9173M18.8422 17.6711L19.0739 17.9173M19.0739 17.9173C19.1055 17.9193 19.1372 17.9148 19.167 17.9041C19.1969 17.8933 19.2243 17.8766 19.2475 17.8548C19.2706 17.833 19.2891 17.8067 19.3016 17.7776C19.3134 17.7504 19.3198 17.7212 19.3205 17.6917C19.4946 16.1536 20.1851 14.7199 21.2793 13.625C21.3016 13.6032 21.3194 13.5772 21.3316 13.5485C21.3439 13.5195 21.3502 13.4883 21.3502 13.4568C21.3502 13.4252 21.3439 13.394 21.3316 13.365L19.0739 17.9173ZM9.62579 19.6527C9.6545 19.624 9.69345 19.6078 9.73406 19.6078H11.4216C11.4622 19.6078 11.5011 19.624 11.5298 19.6527C11.5586 19.6814 11.5747 19.7204 11.5747 19.761V25.1047C11.5747 25.1453 11.5586 25.1843 11.5298 25.213C11.5011 25.2417 11.4622 25.2578 11.4216 25.2578H9.73406C9.69345 25.2578 9.6545 25.2417 9.62579 25.213C9.59707 25.1843 9.58094 25.1453 9.58094 25.1047V19.761C9.58094 19.7204 9.59707 19.6814 9.62579 19.6527Z" fill="white" stroke="white" stroke-width="0.2"/>
<path d="M19.029 19.5779L19.0158 19.5779C18.9679 19.578 18.9218 19.5598 18.8869 19.527C18.852 19.4943 18.831 19.4495 18.828 19.4018M19.029 19.5779L18.8779 19.3985M19.029 19.5779L19.0405 19.5713L19.0508 19.5654M19.029 19.5779L19.0508 19.5654M18.828 19.4018C18.828 19.4017 18.828 19.4017 18.828 19.4016L18.8779 19.3985M18.828 19.4018C18.828 19.4019 18.828 19.402 18.828 19.402L18.8779 19.3985M18.828 19.4018C18.7983 18.9805 18.7983 18.5577 18.8279 18.1364M18.8779 19.3985C18.8483 18.979 18.8483 18.558 18.8779 18.1385M18.8279 18.1364C18.8279 18.1369 18.8279 18.1375 18.8279 18.138L18.8779 18.1385M18.8279 18.1364C18.8279 18.1359 18.828 18.1355 18.828 18.135L18.8779 18.1385M18.8279 18.1364C18.8284 18.1098 18.8344 18.0836 18.8457 18.0595C18.8571 18.0349 18.8737 18.0131 18.8942 17.9954C18.9148 17.9777 18.9389 17.9646 18.9649 17.957C18.9905 17.9495 19.0173 17.9475 19.0437 17.951C19.0678 17.9531 19.0913 17.9598 19.1129 17.9709C19.135 17.9821 19.1546 17.9976 19.1706 18.0165C19.1866 18.0354 19.1988 18.0573 19.2063 18.0809C19.2138 18.1043 19.2166 18.129 19.2146 18.1535M18.8779 18.1385L19.1648 18.1498M19.2146 18.1535C19.2146 18.1536 19.2146 18.1538 19.2146 18.154L19.1648 18.1498M19.2146 18.1535C19.2146 18.1533 19.2146 18.1532 19.2146 18.153L19.1648 18.1498M19.2146 18.1535C19.188 18.5576 19.188 18.963 19.2146 19.3671L19.2147 19.3672C19.2162 19.3919 19.2129 19.4166 19.2049 19.44C19.1968 19.4634 19.1843 19.485 19.1679 19.5035L19.1304 19.4704M19.1648 18.1498C19.138 18.5562 19.138 18.9639 19.1648 19.3704C19.1659 19.3885 19.1635 19.4066 19.1576 19.4238C19.1517 19.441 19.1425 19.4568 19.1304 19.4704M19.1304 19.4704L19.1679 19.5035C19.1515 19.522 19.1316 19.5371 19.1094 19.5479C19.0909 19.5569 19.0712 19.5628 19.0508 19.5654M19.1304 19.4704C19.1184 19.484 19.1038 19.495 19.0875 19.503C19.0712 19.5109 19.0535 19.5156 19.0354 19.5166L19.0508 19.5654M18.4279 19.421L18.4779 19.4224C18.4977 18.726 18.5773 18.0325 18.7159 17.3497L18.7159 17.3497L18.7161 17.3491C18.7256 17.2988 18.7148 17.2467 18.686 17.2044C18.6572 17.162 18.6127 17.1329 18.5624 17.1233C18.512 17.1137 18.46 17.1246 18.4176 17.1534C18.3753 17.1822 18.3461 17.2267 18.3366 17.277L18.3857 17.2863L18.3367 17.2765C18.1959 17.98 18.1146 18.694 18.0938 19.4111L18.0938 19.4115C18.0933 19.4362 18.0977 19.4607 18.1066 19.4837C18.1156 19.5067 18.129 19.5277 18.1461 19.5455C18.1632 19.5633 18.1836 19.5775 18.2062 19.5874C18.2282 19.5971 18.2518 19.6024 18.2757 19.6031C18.3006 19.6054 18.3256 19.6027 18.3494 19.5951C18.3739 19.5872 18.3964 19.5744 18.4156 19.5573C18.4349 19.5403 18.4503 19.5195 18.461 19.4961C18.4717 19.4728 18.4775 19.4475 18.4779 19.4218L18.4279 19.421ZM18.4279 19.421C18.4478 18.7217 18.5278 18.0254 18.6669 17.3398L18.2788 19.5532C18.2975 19.5551 18.3163 19.5532 18.3341 19.5475C18.352 19.5417 18.3684 19.5324 18.3825 19.5199C18.3965 19.5075 18.4078 19.4923 18.4156 19.4753C18.4234 19.4582 18.4276 19.4397 18.4279 19.421ZM18.5996 16.9763L18.5998 16.9751C18.5756 16.9697 18.5526 16.9595 18.5324 16.945C18.5122 16.9305 18.4951 16.9121 18.4821 16.8909C18.4692 16.8697 18.4606 16.8461 18.457 16.8215L18.5996 16.9763ZM18.5996 16.9763H18.6107M18.5996 16.9763H18.6107M18.6107 16.9763H18.6414C18.6864 16.9815 18.7318 16.9704 18.7694 16.9451C18.808 16.9191 18.8358 16.8799 18.8475 16.8348L18.8475 16.8348L18.8477 16.8343C18.9345 16.4845 19.041 16.1399 19.1665 15.8021C19.1801 15.7666 19.1806 15.7274 19.1678 15.6916C18.9042 14.509 17.8282 14.103 17.3834 13.984M18.6107 16.9763L17.2843 14.3477M17.2843 14.3477L17.2841 14.3477C17.2358 14.3345 17.1948 14.3027 17.1701 14.2592C17.1453 14.2158 17.1388 14.1643 17.152 14.1161C17.1652 14.0679 17.197 14.0269 17.2404 14.0021C17.2838 13.9774 17.3353 13.9708 17.3834 13.984M17.2843 14.3477C17.7578 14.4751 18.56 14.8217 18.789 15.725C18.6609 16.0596 18.5514 16.401 18.4611 16.7477L17.2843 14.3477ZM17.3834 13.984C17.3835 13.984 17.3835 13.984 17.3836 13.984L17.3704 14.0323M17.3834 13.984C17.3834 13.984 17.3833 13.984 17.3833 13.984L17.3704 14.0323M17.3704 14.0323C17.335 14.0226 17.2971 14.0273 17.2652 14.0455C17.2333 14.0637 17.2099 14.0939 17.2002 14.1293C17.1905 14.1647 17.1953 14.2026 17.2135 14.2345C17.2317 14.2664 17.2618 14.2897 17.2973 14.2994L17.3704 14.0323Z" fill="white" stroke="white" stroke-width="0.1"/>
<path d="M19.2966 15.1917L19.2966 15.1916C19.2625 15.1913 19.2292 15.1821 19.1999 15.1647C19.1706 15.1474 19.1464 15.1227 19.1297 15.0931M19.2966 15.1917L19.1733 15.0685M19.2966 15.1917L19.2995 15.1916C19.3324 15.1899 19.3641 15.1791 19.3911 15.1604C19.4177 15.142 19.4388 15.1166 19.4519 15.0871C19.7904 14.4184 20.2322 13.8072 20.7609 13.276M19.2966 15.1917L20.7609 13.276M19.1297 15.0931C19.1297 15.0931 19.1297 15.093 19.1297 15.093L19.1733 15.0685M19.1297 15.0931C19.1297 15.0931 19.1297 15.0931 19.1297 15.0931L19.1733 15.0685M19.1297 15.0931C18.8105 14.5282 18.2961 14.0992 17.6831 13.8867L17.6822 13.8864L17.6822 13.8864C17.6591 13.8778 17.6378 13.8648 17.6197 13.848L17.6533 13.8117L17.6197 13.848C17.6016 13.8313 17.5869 13.8111 17.5766 13.7887C17.5663 13.7662 17.5605 13.742 17.5595 13.7173C17.5586 13.6927 17.5625 13.668 17.5711 13.6449L17.5714 13.644L17.5714 13.644C17.5894 13.5981 17.6244 13.561 17.6692 13.5403L17.6901 13.5858M19.1733 15.0685C18.8481 14.493 18.3241 14.056 17.6995 13.8394C17.6825 13.8332 17.6669 13.8236 17.6536 13.8113C17.6403 13.799 17.6296 13.7842 17.622 13.7678C17.6144 13.7513 17.6102 13.7335 17.6095 13.7154C17.6088 13.6973 17.6117 13.6793 17.618 13.6623C17.6312 13.6284 17.6571 13.601 17.6901 13.5858M17.6901 13.5858C17.7232 13.5706 17.7608 13.5687 17.7951 13.5807C18.3836 13.7878 18.8942 14.1695 19.2592 14.6743C19.268 14.6582 19.2769 14.642 19.2858 14.626M17.6901 13.5858L17.6692 13.5403C17.714 13.5197 17.765 13.5173 17.8116 13.5335L17.8117 13.5335C18.4023 13.7414 18.9159 14.1224 19.2858 14.626M19.2858 14.626C19.2967 14.6408 19.3075 14.6558 19.3181 14.6708L20.5317 13.0463M19.2858 14.626C19.6136 14.0354 20.0206 13.4923 20.4956 13.0117M20.4956 13.0117C20.4958 13.0115 20.496 13.0114 20.4962 13.0112L20.5317 13.0463M20.4956 13.0117C20.4954 13.0119 20.4952 13.0122 20.495 13.0124L20.5317 13.0463M20.4956 13.0117C20.5126 12.9936 20.533 12.9791 20.5558 12.9692C20.5788 12.9591 20.6036 12.9539 20.6287 12.9539C20.6539 12.9539 20.6787 12.9591 20.7017 12.9692C20.7243 12.979 20.7447 12.9934 20.7615 13.0114M20.5317 13.0463C20.5441 13.0329 20.5591 13.0223 20.5758 13.015C20.5925 13.0077 20.6105 13.0039 20.6287 13.0039C20.647 13.0039 20.665 13.0077 20.6817 13.015C20.6984 13.0223 20.7134 13.0329 20.7258 13.0463M20.7615 13.0114C20.7612 13.011 20.7609 13.0107 20.7605 13.0104L20.7258 13.0463M20.7615 13.0114C20.7789 13.0284 20.7927 13.0487 20.8022 13.0711C20.8119 13.094 20.8169 13.1185 20.8169 13.1434C20.8169 13.1682 20.8119 13.1927 20.8022 13.2156C20.7926 13.2383 20.7786 13.2588 20.7609 13.276M20.7615 13.0114C20.7618 13.0117 20.7622 13.012 20.7625 13.0124L20.7258 13.0463M20.7258 13.0463L20.7609 13.276" fill="white" stroke="white" stroke-width="0.1"/>
<path d="M15.9188 14.6813C15.4404 14.6813 14.9727 14.5394 14.575 14.2736C14.1772 14.0078 13.8672 13.6301 13.6841 13.1881C13.501 12.7461 13.4531 12.2598 13.5465 11.7906C13.6398 11.3214 13.8702 10.8905 14.2084 10.5522C14.5467 10.2139 14.9777 9.98355 15.4469 9.89023C15.9161 9.7969 16.4024 9.8448 16.8444 10.0279C17.2863 10.2109 17.6641 10.521 17.9299 10.9187C18.1956 11.3165 18.3375 11.7841 18.3375 12.2625C18.3375 12.904 18.0827 13.5192 17.6291 13.9728C17.1755 14.4264 16.5602 14.6813 15.9188 14.6813ZM15.9188 10.1278C15.4954 10.1278 15.0816 10.2533 14.7297 10.4885C14.3777 10.7237 14.1034 11.058 13.9414 11.4491C13.7794 11.8402 13.737 12.2705 13.8196 12.6857C13.9021 13.1009 14.106 13.4822 14.4053 13.7816C14.7047 14.0809 15.086 14.2847 15.5012 14.3673C15.9164 14.4499 16.3467 14.4075 16.7378 14.2455C17.1289 14.0835 17.4632 13.8092 17.6984 13.4572C17.9335 13.1052 18.0591 12.6914 18.0591 12.2681C18.0576 11.7009 17.8316 11.1574 17.4305 10.7563C17.0295 10.3553 16.4859 10.1293 15.9188 10.1278Z" fill="white"/>
<path d="M22.1063 13.8375C21.6279 13.8375 21.1602 13.6956 20.7625 13.4299C20.3647 13.1641 20.0547 12.7863 19.8716 12.3444C19.6885 11.9024 19.6406 11.4161 19.734 10.9469C19.8273 10.4777 20.0577 10.0467 20.3959 9.70844C20.7342 9.37017 21.1652 9.1398 21.6344 9.04648C22.1036 8.95315 22.5899 9.00105 23.0319 9.18412C23.4738 9.36719 23.8516 9.6772 24.1174 10.075C24.3831 10.4727 24.525 10.9404 24.525 11.4188C24.525 12.0602 24.2702 12.6755 23.8166 13.1291C23.363 13.5827 22.7477 13.8375 22.1063 13.8375ZM22.1063 9.28406C21.6829 9.28406 21.2691 9.40959 20.9172 9.64477C20.5652 9.87995 20.2909 10.2142 20.1289 10.6053C19.9669 10.9964 19.9245 11.4268 20.0071 11.8419C20.0896 12.2571 20.2935 12.6385 20.5928 12.9378C20.8922 13.2371 21.2735 13.441 21.6887 13.5236C22.1039 13.6061 22.5342 13.5638 22.9253 13.4018C23.3164 13.2398 23.6507 12.9654 23.8859 12.6135C24.121 12.2615 24.2466 11.8477 24.2466 11.4244C24.2451 10.8572 24.0191 10.3137 23.618 9.91259C23.217 9.51152 22.6734 9.28555 22.1063 9.28406Z" fill="white"/>
<mask id="path-9-inside-1_10206_60257" fill="white">
<path d="M22.1197 13.2784C21.7514 13.2784 21.3915 13.1692 21.0853 12.9647C20.7791 12.7601 20.5405 12.4693 20.3995 12.1291C20.2586 11.7889 20.2217 11.4145 20.2936 11.0533C20.3654 10.6922 20.5428 10.3604 20.8031 10.1C21.0635 9.83963 21.3953 9.6623 21.7565 9.59046C22.1176 9.51862 22.492 9.55549 22.8322 9.69642C23.1724 9.83734 23.4632 10.076 23.6678 10.3822C23.8724 10.6883 23.9816 11.0483 23.9816 11.4166C23.9808 11.9101 23.7844 12.3833 23.4354 12.7323C23.0864 13.0813 22.6133 13.2777 22.1197 13.2784ZM22.1197 9.84438C21.8057 9.84382 21.4986 9.93645 21.2374 10.1105C20.9761 10.2846 20.7723 10.5323 20.6519 10.8223C20.5315 11.1123 20.4999 11.4314 20.561 11.7394C20.6221 12.0474 20.7732 12.3303 20.9952 12.5523C21.2172 12.7743 21.5001 12.9254 21.8081 12.9865C22.1161 13.0476 22.4352 13.016 22.7252 12.8956C23.0152 12.7752 23.2629 12.5714 23.437 12.3101C23.6111 12.0489 23.7037 11.7418 23.7031 11.4278C23.7024 11.0081 23.5353 10.6058 23.2385 10.309C22.9417 10.0122 22.5394 9.84512 22.1197 9.84438Z"/>
</mask>
<path d="M22.1197 13.2784C21.7514 13.2784 21.3915 13.1692 21.0853 12.9647C20.7791 12.7601 20.5405 12.4693 20.3995 12.1291C20.2586 11.7889 20.2217 11.4145 20.2936 11.0533C20.3654 10.6922 20.5428 10.3604 20.8031 10.1C21.0635 9.83963 21.3953 9.6623 21.7565 9.59046C22.1176 9.51862 22.492 9.55549 22.8322 9.69642C23.1724 9.83734 23.4632 10.076 23.6678 10.3822C23.8724 10.6883 23.9816 11.0483 23.9816 11.4166C23.9808 11.9101 23.7844 12.3833 23.4354 12.7323C23.0864 13.0813 22.6133 13.2777 22.1197 13.2784ZM22.1197 9.84438C21.8057 9.84382 21.4986 9.93645 21.2374 10.1105C20.9761 10.2846 20.7723 10.5323 20.6519 10.8223C20.5315 11.1123 20.4999 11.4314 20.561 11.7394C20.6221 12.0474 20.7732 12.3303 20.9952 12.5523C21.2172 12.7743 21.5001 12.9254 21.8081 12.9865C22.1161 13.0476 22.4352 13.016 22.7252 12.8956C23.0152 12.7752 23.2629 12.5714 23.437 12.3101C23.6111 12.0489 23.7037 11.7418 23.7031 11.4278C23.7024 11.0081 23.5353 10.6058 23.2385 10.309C22.9417 10.0122 22.5394 9.84512 22.1197 9.84438Z" fill="white"/>
<path d="M22.1197 13.2784V14.2784L22.1212 14.2784L22.1197 13.2784ZM23.9816 11.4166L24.9816 11.4181V11.4166H23.9816ZM22.1197 9.84438L22.1179 10.8444L22.1197 9.84438ZM23.7031 11.4278L22.7031 11.4296L23.7031 11.4278ZM22.1197 12.2784C21.9492 12.2784 21.7826 12.2279 21.6409 12.1332L20.5297 13.7961C21.0003 14.1106 21.5537 14.2784 22.1197 14.2784V12.2784ZM21.6409 12.1332C21.4991 12.0385 21.3887 11.9039 21.3234 11.7464L19.4757 12.5118C19.6923 13.0347 20.0591 13.4817 20.5297 13.7961L21.6409 12.1332ZM21.3234 11.7464C21.2582 11.5889 21.2411 11.4156 21.2744 11.2484L19.3128 10.8582C19.2024 11.4134 19.2591 11.9888 19.4757 12.5118L21.3234 11.7464ZM21.2744 11.2484C21.3076 11.0812 21.3897 10.9277 21.5103 10.8071L20.096 9.39291C19.6958 9.79315 19.4232 10.3031 19.3128 10.8582L21.2744 11.2484ZM21.5103 10.8071C21.6308 10.6866 21.7844 10.6045 21.9515 10.5712L21.5614 8.60968C21.0062 8.7201 20.4963 8.99267 20.096 9.39291L21.5103 10.8071ZM21.9515 10.5712C22.1187 10.538 22.292 10.5551 22.4495 10.6203L23.2149 8.77254C22.6919 8.55593 22.1165 8.49925 21.5614 8.60968L21.9515 10.5712ZM22.4495 10.6203C22.607 10.6855 22.7416 10.796 22.8363 10.9377L24.4992 9.82659C24.1848 9.35596 23.7378 8.98914 23.2149 8.77254L22.4495 10.6203ZM22.8363 10.9377C22.931 11.0795 22.9816 11.2461 22.9816 11.4166H24.9816C24.9816 10.8505 24.8137 10.2972 24.4992 9.82659L22.8363 10.9377ZM22.9816 11.4151C22.9812 11.6439 22.8901 11.8633 22.7283 12.0252L24.1425 13.4394C24.6787 12.9032 24.9804 12.1763 24.9816 11.4181L22.9816 11.4151ZM22.7283 12.0252C22.5665 12.187 22.3471 12.2781 22.1182 12.2784L22.1212 14.2784C22.8795 14.2773 23.6063 13.9756 24.1425 13.4394L22.7283 12.0252ZM22.1215 8.84438C21.6096 8.84347 21.1089 8.9945 20.6829 9.27833L21.7918 10.9427C21.8884 10.8784 22.0019 10.8442 22.1179 10.8444L22.1215 8.84438ZM20.6829 9.27833C20.2569 9.56216 19.9247 9.96603 19.7284 10.4388L21.5755 11.2058C21.62 11.0986 21.6953 11.0071 21.7918 10.9427L20.6829 9.27833ZM19.7284 10.4388C19.5321 10.9116 19.4805 11.4319 19.5801 11.9341L21.5418 11.5447C21.5193 11.4309 21.531 11.313 21.5755 11.2058L19.7284 10.4388ZM19.5801 11.9341C19.6797 12.4362 19.9262 12.8974 20.2881 13.2594L21.7023 11.8452C21.6203 11.7631 21.5644 11.6586 21.5418 11.5447L19.5801 11.9341ZM20.2881 13.2594C20.6501 13.6213 21.1113 13.8678 21.6134 13.9674L22.0028 12.0057C21.8889 11.9831 21.7844 11.9272 21.7023 11.8452L20.2881 13.2594ZM21.6134 13.9674C22.1156 14.067 22.6359 14.0154 23.1087 13.8191L22.3417 11.972C22.2345 12.0165 22.1166 12.0282 22.0028 12.0057L21.6134 13.9674ZM23.1087 13.8191C23.5815 13.6228 23.9853 13.2906 24.2692 12.8646L22.6048 11.7557C22.5404 11.8522 22.4489 11.9275 22.3417 11.972L23.1087 13.8191ZM24.2692 12.8646C24.553 12.4386 24.704 11.9379 24.7031 11.426L22.7031 11.4296C22.7033 11.5456 22.6691 11.6591 22.6048 11.7557L24.2692 12.8646ZM24.7031 11.426C24.7019 10.7417 24.4295 10.0858 23.9456 9.60187L22.5314 11.0161C22.6411 11.1258 22.7029 11.2745 22.7031 11.4296L24.7031 11.426ZM23.9456 9.60187C23.4617 9.11797 22.8058 8.84559 22.1215 8.84438L22.1179 10.8444C22.273 10.8446 22.4217 10.9064 22.5314 11.0161L23.9456 9.60187Z" fill="white" mask="url(#path-9-inside-1_10206_60257)"/>
<mask id="path-11-inside-2_10206_60257" fill="white">
<path d="M15.9272 14.13C15.5593 14.1305 15.1995 14.0221 14.8932 13.8183C14.5869 13.6146 14.3478 13.3247 14.2061 12.9852C14.0644 12.6456 14.0265 12.2718 14.0971 11.9107C14.1677 11.5497 14.3437 11.2177 14.6029 10.9566C14.862 10.6954 15.1927 10.517 15.5532 10.4436C15.9137 10.3703 16.2879 10.4054 16.6284 10.5445C16.969 10.6836 17.2607 10.9205 17.4668 11.2253C17.6728 11.53 17.784 11.889 17.7862 12.2569C17.7873 12.502 17.7401 12.7449 17.6472 12.9718C17.5544 13.1986 17.4177 13.4049 17.245 13.5789C17.0724 13.7528 16.8671 13.8911 16.641 13.9856C16.4148 14.0802 16.1723 14.1293 15.9272 14.13ZM15.9272 10.6847C15.6135 10.6847 15.3069 10.7779 15.0463 10.9523C14.7857 11.1268 14.5827 11.3748 14.4632 11.6648C14.3437 11.9548 14.313 12.2737 14.375 12.5812C14.437 12.8887 14.589 13.1708 14.8115 13.3918C15.0341 13.6128 15.3173 13.7627 15.6252 13.8225C15.9331 13.8823 16.2518 13.8493 16.5409 13.7278C16.8301 13.6062 17.0766 13.4015 17.2492 13.1396C17.4219 12.8778 17.5128 12.5705 17.5106 12.2569C17.5069 11.8391 17.3385 11.4397 17.042 11.1453C16.7456 10.8509 16.3449 10.6854 15.9272 10.6847Z"/>
</mask>
<path d="M15.9272 14.13C15.5593 14.1305 15.1995 14.0221 14.8932 13.8183C14.5869 13.6146 14.3478 13.3247 14.2061 12.9852C14.0644 12.6456 14.0265 12.2718 14.0971 11.9107C14.1677 11.5497 14.3437 11.2177 14.6029 10.9566C14.862 10.6954 15.1927 10.517 15.5532 10.4436C15.9137 10.3703 16.2879 10.4054 16.6284 10.5445C16.969 10.6836 17.2607 10.9205 17.4668 11.2253C17.6728 11.53 17.784 11.889 17.7862 12.2569C17.7873 12.502 17.7401 12.7449 17.6472 12.9718C17.5544 13.1986 17.4177 13.4049 17.245 13.5789C17.0724 13.7528 16.8671 13.8911 16.641 13.9856C16.4148 14.0802 16.1723 14.1293 15.9272 14.13ZM15.9272 10.6847C15.6135 10.6847 15.3069 10.7779 15.0463 10.9523C14.7857 11.1268 14.5827 11.3748 14.4632 11.6648C14.3437 11.9548 14.313 12.2737 14.375 12.5812C14.437 12.8887 14.589 13.1708 14.8115 13.3918C15.0341 13.6128 15.3173 13.7627 15.6252 13.8225C15.9331 13.8823 16.2518 13.8493 16.5409 13.7278C16.8301 13.6062 17.0766 13.4015 17.2492 13.1396C17.4219 12.8778 17.5128 12.5705 17.5106 12.2569C17.5069 11.8391 17.3385 11.4397 17.042 11.1453C16.7456 10.8509 16.3449 10.6854 15.9272 10.6847Z" fill="white"/>
<path d="M17.7862 12.2569L18.7862 12.2523L18.7862 12.2508L17.7862 12.2569ZM17.5106 12.2569L18.5106 12.2498L18.5106 12.248L17.5106 12.2569ZM15.9257 13.13C15.7554 13.1303 15.5888 13.0801 15.447 12.9857L14.3393 14.651C14.8101 14.9641 15.3632 15.1308 15.9286 15.13L15.9257 13.13ZM15.447 12.9857C15.3052 12.8914 15.1946 12.7572 15.129 12.6L13.2832 13.3703C13.501 13.8921 13.8685 14.3378 14.3393 14.651L15.447 12.9857ZM15.129 12.6C15.0634 12.4429 15.0458 12.2698 15.0785 12.1027L13.1157 11.7188C13.0072 12.2737 13.0655 12.8484 13.2832 13.3703L15.129 12.6ZM15.0785 12.1027C15.1112 11.9356 15.1927 11.7819 15.3126 11.661L13.8931 10.2521C13.4948 10.6535 13.2243 11.1638 13.1157 11.7188L15.0785 12.1027ZM15.3126 11.661C15.4326 11.5401 15.5857 11.4575 15.7526 11.4235L15.3539 9.46369C14.7998 9.57641 14.2915 9.85076 13.8931 10.2521L15.3126 11.661ZM15.7526 11.4235C15.9194 11.3896 16.0926 11.4059 16.2503 11.4702L17.0066 9.61876C16.4831 9.40493 15.908 9.35097 15.3539 9.46369L15.7526 11.4235ZM16.2503 11.4702C16.4079 11.5346 16.543 11.6443 16.6384 11.7854L18.2952 10.6652C17.9785 10.1967 17.5301 9.83259 17.0066 9.61876L16.2503 11.4702ZM16.6384 11.7854C16.7338 11.9265 16.7852 12.0926 16.7862 12.2629L18.7862 12.2508C18.7828 11.6854 18.6119 11.1336 18.2952 10.6652L16.6384 11.7854ZM16.7862 12.2614C16.7867 12.3751 16.7648 12.4877 16.7218 12.5929L18.5727 13.3506C18.7154 13.0021 18.7879 12.6289 18.7862 12.2523L16.7862 12.2614ZM16.7218 12.5929C16.6787 12.6981 16.6153 12.7938 16.5353 12.8744L17.9548 14.2833C18.2201 14.016 18.43 13.6991 18.5727 13.3506L16.7218 12.5929ZM16.5353 12.8744C16.4552 12.9551 16.36 13.0192 16.2552 13.0631L17.0268 14.9082C17.3742 14.7629 17.6895 14.5506 17.9548 14.2833L16.5353 12.8744ZM16.2552 13.0631C16.1503 13.1069 16.0378 13.1297 15.9241 13.13L15.9302 15.13C16.3067 15.1289 16.6794 15.0535 17.0268 14.9082L16.2552 13.0631ZM15.9271 9.68469C15.4154 9.6847 14.9152 9.83669 14.49 10.1214L15.6026 11.7833C15.6986 11.719 15.8116 11.6847 15.9272 11.6847L15.9271 9.68469ZM14.49 10.1214C14.0647 10.4061 13.7336 10.8106 13.5386 11.2838L15.3878 12.0458C15.4318 11.939 15.5066 11.8476 15.6026 11.7833L14.49 10.1214ZM13.5386 11.2838C13.3437 11.7569 13.2936 12.2773 13.3948 12.7789L15.3553 12.3835C15.3324 12.2702 15.3437 12.1527 15.3878 12.0458L13.5386 11.2838ZM13.3948 12.7789C13.4959 13.2805 13.7438 13.7408 14.107 14.1014L15.5161 12.6821C15.4341 12.6007 15.3781 12.4968 15.3553 12.3835L13.3948 12.7789ZM14.107 14.1014C14.4701 14.4619 14.9321 14.7065 15.4345 14.8041L15.8159 12.8409C15.7025 12.8188 15.5981 12.7636 15.5161 12.6821L14.107 14.1014ZM15.4345 14.8041C15.9368 14.9017 16.4568 14.848 16.9286 14.6496L16.1533 12.806C16.0468 12.8507 15.9294 12.8629 15.8159 12.8409L15.4345 14.8041ZM16.9286 14.6496C17.4003 14.4512 17.8025 14.1173 18.0841 13.69L16.4143 12.5892C16.3507 12.6857 16.2599 12.7612 16.1533 12.806L16.9286 14.6496ZM18.0841 13.69C18.3658 13.2628 18.5142 12.7615 18.5106 12.2498L16.5106 12.264C16.5114 12.3795 16.4779 12.4928 16.4143 12.5892L18.0841 13.69ZM18.5106 12.248C18.5045 11.5669 18.23 10.9156 17.7466 10.4357L16.3375 11.8549C16.447 11.9637 16.5093 12.1113 16.5106 12.2657L18.5106 12.248ZM17.7466 10.4357C17.2633 9.95573 16.6101 9.68587 15.9289 9.68469L15.9254 11.6847C16.0798 11.685 16.2279 11.7461 16.3375 11.8549L17.7466 10.4357Z" fill="white" mask="url(#path-11-inside-2_10206_60257)"/>
<mask id="path-13-outside-3_10206_60257" maskUnits="userSpaceOnUse" x="14.3516" y="10.2324" width="8" height="9" fill="black">
<rect fill="white" x="14.3516" y="10.2324" width="8" height="9"/>
<path d="M16.4564 12.7492C16.4575 12.8153 16.443 12.8808 16.4143 12.9404C16.3884 12.9987 16.3488 13.0498 16.2989 13.0895C16.2463 13.1343 16.1851 13.1678 16.1189 13.1879C16.0416 13.2136 15.9612 13.2288 15.8799 13.2329L15.8489 13.5142C15.8489 13.5142 15.8489 13.5142 15.8489 13.531H15.8236H15.7308C15.7215 13.5327 15.712 13.5327 15.7027 13.531C15.6981 13.5322 15.6932 13.5322 15.6886 13.531C15.6886 13.531 15.6886 13.517 15.6886 13.5114L15.7196 13.2301L15.5846 13.2189C15.552 13.2119 15.52 13.2025 15.4889 13.1907C15.4635 13.1832 15.439 13.1728 15.4158 13.1598C15.3997 13.1524 15.3846 13.1429 15.3708 13.1317C15.3624 13.121 15.3566 13.1084 15.3539 13.0951C15.3508 13.0746 15.3508 13.0537 15.3539 13.0332C15.3524 13.0164 15.3524 12.9994 15.3539 12.9826C15.3524 12.9724 15.3524 12.9619 15.3539 12.9517C15.3539 12.9517 15.3539 12.9517 15.368 12.9348H15.3905C15.4077 12.9378 15.424 12.9445 15.4383 12.9545C15.4653 12.9708 15.4935 12.9849 15.5227 12.9967C15.5636 13.0151 15.6059 13.0302 15.6493 13.0417C15.7093 13.0549 15.7706 13.0615 15.8321 13.0614C15.9315 13.0669 16.0301 13.0403 16.1133 12.9854C16.1445 12.9626 16.1696 12.9325 16.1863 12.8976C16.203 12.8628 16.2108 12.8243 16.2089 12.7857C16.211 12.7389 16.1982 12.6926 16.1724 12.6535C16.148 12.6174 16.1164 12.5868 16.0796 12.5635C16.0368 12.5376 15.9916 12.5159 15.9446 12.4989L15.7927 12.4454L15.6493 12.3751C15.6001 12.3518 15.5547 12.3215 15.5143 12.2851C15.4752 12.2484 15.4437 12.2045 15.4214 12.1557C15.3765 12.0429 15.3765 11.917 15.4214 11.8042C15.4417 11.7527 15.4734 11.7065 15.5143 11.6692C15.5574 11.6274 15.6093 11.5957 15.6661 11.5764C15.7337 11.5506 15.8049 11.5354 15.8771 11.5314L15.9052 11.2501C15.9039 11.2446 15.9039 11.2388 15.9052 11.2332C15.9098 11.2322 15.9146 11.2322 15.9193 11.2332H15.9446H16.0346H16.0655C16.0669 11.2397 16.0669 11.2464 16.0655 11.2529L16.0374 11.5173H16.1189L16.2005 11.5398C16.2239 11.5469 16.2465 11.5564 16.268 11.5679L16.3102 11.5932L16.3271 11.6129C16.3283 11.6204 16.3283 11.628 16.3271 11.6354C16.3271 11.6354 16.3271 11.6523 16.3271 11.6635C16.3271 11.6748 16.3271 11.686 16.3271 11.7001C16.3271 11.7142 16.3271 11.731 16.3271 11.7423C16.3276 11.7517 16.3276 11.7611 16.3271 11.7704C16.329 11.7759 16.329 11.7818 16.3271 11.7873L16.3158 11.8126C16.2998 11.8103 16.2844 11.8045 16.2708 11.7957C16.2446 11.7814 16.2174 11.7692 16.1893 11.7592C16.1583 11.7451 16.1218 11.7339 16.0796 11.7198C16.0327 11.708 15.9845 11.7024 15.9361 11.7029C15.885 11.702 15.8339 11.7077 15.7843 11.7198C15.7474 11.7296 15.713 11.7469 15.683 11.7704C15.6581 11.7894 15.6387 11.8146 15.6268 11.8435C15.6133 11.8736 15.6065 11.9062 15.6071 11.9392C15.6059 11.9859 15.6186 12.0319 15.6436 12.0714C15.668 12.1085 15.7007 12.1393 15.7393 12.1614C15.7814 12.1885 15.8267 12.2102 15.8743 12.226L16.0289 12.2823C16.0816 12.3 16.1333 12.3206 16.1836 12.3442C16.2332 12.3655 16.2788 12.395 16.3186 12.4314C16.3582 12.4683 16.3906 12.5121 16.4143 12.5607C16.4415 12.6198 16.4559 12.6841 16.4564 12.7492ZM19.7527 18.4135C19.4482 18.4081 19.1472 18.348 18.8639 18.2364C18.8341 18.2229 18.8097 18.1997 18.7949 18.1706C18.7801 18.1414 18.7757 18.1081 18.7824 18.076C18.7824 18.0395 19.0102 17.1423 19.688 16.7992C20.3658 16.456 21.218 16.8132 21.2546 16.8301C21.2845 16.8426 21.3091 16.8652 21.324 16.894C21.339 16.9228 21.3432 16.956 21.3361 16.9876C21.3361 17.027 21.1083 17.9214 20.4305 18.2645C20.2197 18.3674 19.9873 18.4185 19.7527 18.4135ZM19.0889 18.0226C19.4801 18.1721 19.9127 18.1721 20.3039 18.0226C20.6587 17.7988 20.9174 17.4509 21.0296 17.0467C20.6384 16.8971 20.2058 16.8971 19.8146 17.0467C19.4598 17.2705 19.2011 17.6184 19.0889 18.0226ZM18.3014 17.4629C17.8735 17.4801 17.4523 17.3522 17.1061 17.1001C16.4761 16.5882 16.4536 15.6039 16.4536 15.5617C16.4525 15.529 16.4633 15.497 16.484 15.4716C16.5047 15.4463 16.5339 15.4293 16.5661 15.4239C16.6055 15.4239 17.5758 15.2354 18.2058 15.7473C18.8358 16.2592 18.8471 17.2464 18.8471 17.2885C18.8482 17.3212 18.8374 17.3533 18.8167 17.3786C18.796 17.404 18.7668 17.4209 18.7346 17.4264C18.5915 17.4506 18.4466 17.4628 18.3014 17.4629ZM16.7377 15.677C16.7673 16.129 16.9603 16.5548 17.2805 16.8751C17.6624 17.1249 18.1231 17.2251 18.5743 17.1564C18.5479 16.7011 18.3547 16.2715 18.0314 15.9498C17.6488 15.7019 17.1878 15.6047 16.7377 15.677Z"/>
</mask>
<path d="M16.4564 12.7492C16.4575 12.8153 16.443 12.8808 16.4143 12.9404C16.3884 12.9987 16.3488 13.0498 16.2989 13.0895C16.2463 13.1343 16.1851 13.1678 16.1189 13.1879C16.0416 13.2136 15.9612 13.2288 15.8799 13.2329L15.8489 13.5142C15.8489 13.5142 15.8489 13.5142 15.8489 13.531H15.8236H15.7308C15.7215 13.5327 15.712 13.5327 15.7027 13.531C15.6981 13.5322 15.6932 13.5322 15.6886 13.531C15.6886 13.531 15.6886 13.517 15.6886 13.5114L15.7196 13.2301L15.5846 13.2189C15.552 13.2119 15.52 13.2025 15.4889 13.1907C15.4635 13.1832 15.439 13.1728 15.4158 13.1598C15.3997 13.1524 15.3846 13.1429 15.3708 13.1317C15.3624 13.121 15.3566 13.1084 15.3539 13.0951C15.3508 13.0746 15.3508 13.0537 15.3539 13.0332C15.3524 13.0164 15.3524 12.9994 15.3539 12.9826C15.3524 12.9724 15.3524 12.9619 15.3539 12.9517C15.3539 12.9517 15.3539 12.9517 15.368 12.9348H15.3905C15.4077 12.9378 15.424 12.9445 15.4383 12.9545C15.4653 12.9708 15.4935 12.9849 15.5227 12.9967C15.5636 13.0151 15.6059 13.0302 15.6493 13.0417C15.7093 13.0549 15.7706 13.0615 15.8321 13.0614C15.9315 13.0669 16.0301 13.0403 16.1133 12.9854C16.1445 12.9626 16.1696 12.9325 16.1863 12.8976C16.203 12.8628 16.2108 12.8243 16.2089 12.7857C16.211 12.7389 16.1982 12.6926 16.1724 12.6535C16.148 12.6174 16.1164 12.5868 16.0796 12.5635C16.0368 12.5376 15.9916 12.5159 15.9446 12.4989L15.7927 12.4454L15.6493 12.3751C15.6001 12.3518 15.5547 12.3215 15.5143 12.2851C15.4752 12.2484 15.4437 12.2045 15.4214 12.1557C15.3765 12.0429 15.3765 11.917 15.4214 11.8042C15.4417 11.7527 15.4734 11.7065 15.5143 11.6692C15.5574 11.6274 15.6093 11.5957 15.6661 11.5764C15.7337 11.5506 15.8049 11.5354 15.8771 11.5314L15.9052 11.2501C15.9039 11.2446 15.9039 11.2388 15.9052 11.2332C15.9098 11.2322 15.9146 11.2322 15.9193 11.2332H15.9446H16.0346H16.0655C16.0669 11.2397 16.0669 11.2464 16.0655 11.2529L16.0374 11.5173H16.1189L16.2005 11.5398C16.2239 11.5469 16.2465 11.5564 16.268 11.5679L16.3102 11.5932L16.3271 11.6129C16.3283 11.6204 16.3283 11.628 16.3271 11.6354C16.3271 11.6354 16.3271 11.6523 16.3271 11.6635C16.3271 11.6748 16.3271 11.686 16.3271 11.7001C16.3271 11.7142 16.3271 11.731 16.3271 11.7423C16.3276 11.7517 16.3276 11.7611 16.3271 11.7704C16.329 11.7759 16.329 11.7818 16.3271 11.7873L16.3158 11.8126C16.2998 11.8103 16.2844 11.8045 16.2708 11.7957C16.2446 11.7814 16.2174 11.7692 16.1893 11.7592C16.1583 11.7451 16.1218 11.7339 16.0796 11.7198C16.0327 11.708 15.9845 11.7024 15.9361 11.7029C15.885 11.702 15.8339 11.7077 15.7843 11.7198C15.7474 11.7296 15.713 11.7469 15.683 11.7704C15.6581 11.7894 15.6387 11.8146 15.6268 11.8435C15.6133 11.8736 15.6065 11.9062 15.6071 11.9392C15.6059 11.9859 15.6186 12.0319 15.6436 12.0714C15.668 12.1085 15.7007 12.1393 15.7393 12.1614C15.7814 12.1885 15.8267 12.2102 15.8743 12.226L16.0289 12.2823C16.0816 12.3 16.1333 12.3206 16.1836 12.3442C16.2332 12.3655 16.2788 12.395 16.3186 12.4314C16.3582 12.4683 16.3906 12.5121 16.4143 12.5607C16.4415 12.6198 16.4559 12.6841 16.4564 12.7492ZM19.7527 18.4135C19.4482 18.4081 19.1472 18.348 18.8639 18.2364C18.8341 18.2229 18.8097 18.1997 18.7949 18.1706C18.7801 18.1414 18.7757 18.1081 18.7824 18.076C18.7824 18.0395 19.0102 17.1423 19.688 16.7992C20.3658 16.456 21.218 16.8132 21.2546 16.8301C21.2845 16.8426 21.3091 16.8652 21.324 16.894C21.339 16.9228 21.3432 16.956 21.3361 16.9876C21.3361 17.027 21.1083 17.9214 20.4305 18.2645C20.2197 18.3674 19.9873 18.4185 19.7527 18.4135ZM19.0889 18.0226C19.4801 18.1721 19.9127 18.1721 20.3039 18.0226C20.6587 17.7988 20.9174 17.4509 21.0296 17.0467C20.6384 16.8971 20.2058 16.8971 19.8146 17.0467C19.4598 17.2705 19.2011 17.6184 19.0889 18.0226ZM18.3014 17.4629C17.8735 17.4801 17.4523 17.3522 17.1061 17.1001C16.4761 16.5882 16.4536 15.6039 16.4536 15.5617C16.4525 15.529 16.4633 15.497 16.484 15.4716C16.5047 15.4463 16.5339 15.4293 16.5661 15.4239C16.6055 15.4239 17.5758 15.2354 18.2058 15.7473C18.8358 16.2592 18.8471 17.2464 18.8471 17.2885C18.8482 17.3212 18.8374 17.3533 18.8167 17.3786C18.796 17.404 18.7668 17.4209 18.7346 17.4264C18.5915 17.4506 18.4466 17.4628 18.3014 17.4629ZM16.7377 15.677C16.7673 16.129 16.9603 16.5548 17.2805 16.8751C17.6624 17.1249 18.1231 17.2251 18.5743 17.1564C18.5479 16.7011 18.3547 16.2715 18.0314 15.9498C17.6488 15.7019 17.1878 15.6047 16.7377 15.677Z" fill="white"/>
<path d="M16.4564 12.7492C16.4575 12.8153 16.443 12.8808 16.4143 12.9404C16.3884 12.9987 16.3488 13.0498 16.2989 13.0895C16.2463 13.1343 16.1851 13.1678 16.1189 13.1879C16.0416 13.2136 15.9612 13.2288 15.8799 13.2329L15.8489 13.5142C15.8489 13.5142 15.8489 13.5142 15.8489 13.531H15.8236H15.7308C15.7215 13.5327 15.712 13.5327 15.7027 13.531C15.6981 13.5322 15.6932 13.5322 15.6886 13.531C15.6886 13.531 15.6886 13.517 15.6886 13.5114L15.7196 13.2301L15.5846 13.2189C15.552 13.2119 15.52 13.2025 15.4889 13.1907C15.4635 13.1832 15.439 13.1728 15.4158 13.1598C15.3997 13.1524 15.3846 13.1429 15.3708 13.1317C15.3624 13.121 15.3566 13.1084 15.3539 13.0951C15.3508 13.0746 15.3508 13.0537 15.3539 13.0332C15.3524 13.0164 15.3524 12.9994 15.3539 12.9826C15.3524 12.9724 15.3524 12.9619 15.3539 12.9517C15.3539 12.9517 15.3539 12.9517 15.368 12.9348H15.3905C15.4077 12.9378 15.424 12.9445 15.4383 12.9545C15.4653 12.9708 15.4935 12.9849 15.5227 12.9967C15.5636 13.0151 15.6059 13.0302 15.6493 13.0417C15.7093 13.0549 15.7706 13.0615 15.8321 13.0614C15.9315 13.0669 16.0301 13.0403 16.1133 12.9854C16.1445 12.9626 16.1696 12.9325 16.1863 12.8976C16.203 12.8628 16.2108 12.8243 16.2089 12.7857C16.211 12.7389 16.1982 12.6926 16.1724 12.6535C16.148 12.6174 16.1164 12.5868 16.0796 12.5635C16.0368 12.5376 15.9916 12.5159 15.9446 12.4989L15.7927 12.4454L15.6493 12.3751C15.6001 12.3518 15.5547 12.3215 15.5143 12.2851C15.4752 12.2484 15.4437 12.2045 15.4214 12.1557C15.3765 12.0429 15.3765 11.917 15.4214 11.8042C15.4417 11.7527 15.4734 11.7065 15.5143 11.6692C15.5574 11.6274 15.6093 11.5957 15.6661 11.5764C15.7337 11.5506 15.8049 11.5354 15.8771 11.5314L15.9052 11.2501C15.9039 11.2446 15.9039 11.2388 15.9052 11.2332C15.9098 11.2322 15.9146 11.2322 15.9193 11.2332H15.9446H16.0346H16.0655C16.0669 11.2397 16.0669 11.2464 16.0655 11.2529L16.0374 11.5173H16.1189L16.2005 11.5398C16.2239 11.5469 16.2465 11.5564 16.268 11.5679L16.3102 11.5932L16.3271 11.6129C16.3283 11.6204 16.3283 11.628 16.3271 11.6354C16.3271 11.6354 16.3271 11.6523 16.3271 11.6635C16.3271 11.6748 16.3271 11.686 16.3271 11.7001C16.3271 11.7142 16.3271 11.731 16.3271 11.7423C16.3276 11.7517 16.3276 11.7611 16.3271 11.7704C16.329 11.7759 16.329 11.7818 16.3271 11.7873L16.3158 11.8126C16.2998 11.8103 16.2844 11.8045 16.2708 11.7957C16.2446 11.7814 16.2174 11.7692 16.1893 11.7592C16.1583 11.7451 16.1218 11.7339 16.0796 11.7198C16.0327 11.708 15.9845 11.7024 15.9361 11.7029C15.885 11.702 15.8339 11.7077 15.7843 11.7198C15.7474 11.7296 15.713 11.7469 15.683 11.7704C15.6581 11.7894 15.6387 11.8146 15.6268 11.8435C15.6133 11.8736 15.6065 11.9062 15.6071 11.9392C15.6059 11.9859 15.6186 12.0319 15.6436 12.0714C15.668 12.1085 15.7007 12.1393 15.7393 12.1614C15.7814 12.1885 15.8267 12.2102 15.8743 12.226L16.0289 12.2823C16.0816 12.3 16.1333 12.3206 16.1836 12.3442C16.2332 12.3655 16.2788 12.395 16.3186 12.4314C16.3582 12.4683 16.3906 12.5121 16.4143 12.5607C16.4415 12.6198 16.4559 12.6841 16.4564 12.7492ZM19.7527 18.4135C19.4482 18.4081 19.1472 18.348 18.8639 18.2364C18.8341 18.2229 18.8097 18.1997 18.7949 18.1706C18.7801 18.1414 18.7757 18.1081 18.7824 18.076C18.7824 18.0395 19.0102 17.1423 19.688 16.7992C20.3658 16.456 21.218 16.8132 21.2546 16.8301C21.2845 16.8426 21.3091 16.8652 21.324 16.894C21.339 16.9228 21.3432 16.956 21.3361 16.9876C21.3361 17.027 21.1083 17.9214 20.4305 18.2645C20.2197 18.3674 19.9873 18.4185 19.7527 18.4135ZM19.0889 18.0226C19.4801 18.1721 19.9127 18.1721 20.3039 18.0226C20.6587 17.7988 20.9174 17.4509 21.0296 17.0467C20.6384 16.8971 20.2058 16.8971 19.8146 17.0467C19.4598 17.2705 19.2011 17.6184 19.0889 18.0226ZM18.3014 17.4629C17.8735 17.4801 17.4523 17.3522 17.1061 17.1001C16.4761 16.5882 16.4536 15.6039 16.4536 15.5617C16.4525 15.529 16.4633 15.497 16.484 15.4716C16.5047 15.4463 16.5339 15.4293 16.5661 15.4239C16.6055 15.4239 17.5758 15.2354 18.2058 15.7473C18.8358 16.2592 18.8471 17.2464 18.8471 17.2885C18.8482 17.3212 18.8374 17.3533 18.8167 17.3786C18.796 17.404 18.7668 17.4209 18.7346 17.4264C18.5915 17.4506 18.4466 17.4628 18.3014 17.4629ZM16.7377 15.677C16.7673 16.129 16.9603 16.5548 17.2805 16.8751C17.6624 17.1249 18.1231 17.2251 18.5743 17.1564C18.5479 16.7011 18.3547 16.2715 18.0314 15.9498C17.6488 15.7019 17.1878 15.6047 16.7377 15.677Z" stroke="white" stroke-width="0.2" mask="url(#path-13-outside-3_10206_60257)"/>
<path d="M22.7611 11.923C22.7622 11.9892 22.7477 12.0547 22.7189 12.1142C22.693 12.1725 22.6535 12.2236 22.6036 12.2633C22.551 12.3081 22.4897 12.3416 22.4236 12.3617C22.3463 12.3875 22.2659 12.4026 22.1846 12.4067L22.1536 12.688C22.1536 12.688 22.1536 12.688 22.1536 12.7049H22.1283H22.0355C22.0262 12.7065 22.0167 12.7065 22.0074 12.7049C22.0028 12.7061 21.9979 12.7061 21.9933 12.7049C21.9933 12.7049 21.9933 12.6908 21.9933 12.6852L22.0243 12.4039L21.8893 12.3927C21.8567 12.3858 21.8247 12.3764 21.7936 12.3646C21.7682 12.357 21.7437 12.3466 21.7205 12.3336C21.7044 12.3262 21.6892 12.3168 21.6755 12.3055C21.6671 12.2948 21.6613 12.2823 21.6586 12.2689C21.6555 12.2484 21.6555 12.2276 21.6586 12.2071C21.6571 12.1902 21.6571 12.1733 21.6586 12.1564C21.657 12.1462 21.657 12.1357 21.6586 12.1255C21.6586 12.1255 21.6586 12.1255 21.6727 12.1086H21.6952C21.7124 12.1117 21.7287 12.1184 21.743 12.1283C21.77 12.1446 21.7982 12.1587 21.8274 12.1705C21.8683 12.189 21.9106 12.204 21.9539 12.2155C22.014 12.2287 22.0753 12.2353 22.1368 12.2352C22.2362 12.2407 22.3348 12.2141 22.418 12.1592C22.4492 12.1365 22.4743 12.1063 22.491 12.0715C22.5077 12.0366 22.5155 11.9982 22.5136 11.9596C22.5157 11.9127 22.5029 11.8665 22.4771 11.8274C22.4527 11.7913 22.4211 11.7606 22.3843 11.7374C22.3415 11.7114 22.2963 11.6897 22.2493 11.6727L22.0974 11.6192L21.9539 11.5489C21.9048 11.5256 21.8594 11.4953 21.8189 11.4589C21.7799 11.4222 21.7484 11.3783 21.7261 11.3296C21.6812 11.2167 21.6812 11.0909 21.7261 10.978C21.7464 10.9265 21.7781 10.8803 21.8189 10.843C21.8621 10.8013 21.914 10.7696 21.9708 10.7502C22.0384 10.7244 22.1095 10.7092 22.1818 10.7052L22.2099 10.4239C22.2086 10.4184 22.2086 10.4126 22.2099 10.4071C22.2145 10.406 22.2193 10.406 22.2239 10.4071H22.2493H22.3393H22.3702C22.3716 10.4136 22.3716 10.4203 22.3702 10.4267L22.3421 10.6911H22.4236L22.5052 10.7136C22.5286 10.7208 22.5512 10.7302 22.5727 10.7417L22.6149 10.7671L22.6318 10.7867C22.633 10.7942 22.633 10.8018 22.6318 10.8092C22.6318 10.8092 22.6318 10.8261 22.6318 10.8374C22.6318 10.8486 22.6318 10.8599 22.6318 10.8739C22.6318 10.888 22.6318 10.9049 22.6318 10.9161C22.6323 10.9255 22.6323 10.9349 22.6318 10.9442C22.6337 10.9497 22.6337 10.9557 22.6318 10.9611L22.6205 10.9864C22.6045 10.9841 22.5891 10.9784 22.5755 10.9696C22.5493 10.9552 22.5221 10.943 22.4939 10.933C22.463 10.9189 22.4264 10.9077 22.3843 10.8936C22.3374 10.8819 22.2892 10.8762 22.2408 10.8767C22.1897 10.8758 22.1386 10.8815 22.0889 10.8936C22.0521 10.9035 22.0177 10.9207 21.9877 10.9442C21.9628 10.9632 21.9434 10.9885 21.9314 11.0174C21.918 11.0474 21.9112 11.0801 21.9118 11.113C21.9106 11.1597 21.9233 11.2057 21.9483 11.2452C21.9726 11.2823 22.0054 11.3132 22.0439 11.3352C22.0861 11.3623 22.1314 11.384 22.1789 11.3999L22.3336 11.4561C22.3863 11.4738 22.438 11.4945 22.4883 11.518C22.5379 11.5393 22.5835 11.5688 22.6233 11.6052C22.6628 11.6421 22.6953 11.6859 22.7189 11.7346C22.7462 11.7937 22.7606 11.8579 22.7611 11.923Z" fill="white"/>
<path d="M21.9314 11.0174C21.918 11.0474 21.9112 11.0801 21.9118 11.113C21.9106 11.1597 21.9233 11.2057 21.9483 11.2452L21.9314 11.0174ZM21.9314 11.0174C21.9434 10.9885 21.9628 10.9632 21.9877 10.9442L21.9314 11.0174ZM22.8111 11.9224C22.8105 11.8503 22.7946 11.7791 22.7643 11.7136L22.7643 11.7136L22.7639 11.7127C22.7375 11.6585 22.7014 11.6097 22.6574 11.5686L22.6574 11.5686L22.657 11.5683C22.6133 11.5283 22.5632 11.4959 22.5088 11.4724L22.4388 12.4094C22.511 12.3873 22.5779 12.3508 22.6354 12.3019C22.6911 12.2574 22.7352 12.2003 22.7643 12.1353C22.7962 12.0689 22.8122 11.996 22.8111 11.9224ZM22.8111 11.9224C22.8111 11.9225 22.8111 11.9225 22.8111 11.9226L22.7611 11.923L22.8111 11.9222C22.8111 11.9223 22.8111 11.9223 22.8111 11.9224ZM22.4236 10.6411H22.3977L21.9904 11.2181C21.9708 11.1871 21.9608 11.1509 21.9617 11.1142L21.9618 11.1142L21.9617 11.1122C21.9613 11.0866 21.9666 11.0612 21.9771 11.0378L21.9771 11.0378L21.9776 11.0365C21.9862 11.0157 22.0002 10.9976 22.018 10.984L22.018 10.984L22.0186 10.9836C22.0431 10.9643 22.0712 10.9502 22.1013 10.9421C22.1467 10.9311 22.1933 10.9259 22.2399 10.9267L22.2399 10.9268L22.2414 10.9267C22.2848 10.9262 22.3281 10.9313 22.3703 10.9417C22.3773 10.944 22.3841 10.9462 22.3906 10.9484C22.4239 10.9594 22.4503 10.9681 22.4732 10.9785L22.4732 10.9787L22.4772 10.9801C22.5023 10.989 22.5267 10.9999 22.5501 11.0126C22.5693 11.0247 22.5909 11.0327 22.6134 11.0359L22.6508 11.0413L22.6662 11.0067L22.6774 10.9814L22.6776 10.9815L22.6789 10.9778C22.6833 10.9654 22.6843 10.9522 22.682 10.9394C22.6823 10.9312 22.6822 10.923 22.6818 10.9148V10.8739V10.8374V10.8129C22.6832 10.8014 22.683 10.7898 22.6811 10.7784L22.6787 10.7647L22.6697 10.7542L22.6528 10.7345L22.6476 10.7284L22.6406 10.7242L22.5984 10.6989L22.5984 10.6988L22.5963 10.6977C22.5719 10.6846 22.5463 10.6739 22.5198 10.6658L22.5198 10.6658L22.5185 10.6654L22.4369 10.6429L22.4374 10.6411H22.4236Z" fill="white" stroke="white" stroke-width="0.1"/>
</g>
<defs>
<clipPath id="clip0_10206_60257">
<rect width="18" height="18" fill="white" transform="translate(9 9)"/>
</clipPath>
</defs>
</svg>
