<svg width="16" height="16" viewBox="0 0 16 16" fill="none" xmlns="http://www.w3.org/2000/svg">
<mask id="mask0_1471_56465" style="mask-type:luminance" maskUnits="userSpaceOnUse" x="2" y="0" width="8" height="7">
<path fill-rule="evenodd" clip-rule="evenodd" d="M5.56615 0C3.64516 0 2.08789 1.55727 2.08789 3.47826C2.08789 5.39925 3.64516 6.95652 5.56615 6.95652C7.48714 6.95652 9.04441 5.39925 9.04441 3.47826C9.04441 1.55727 7.48714 0 5.56615 0ZM5.56615 0.69565C7.10294 0.69565 8.34876 1.94147 8.34876 3.47826C8.34876 5.01505 7.10294 6.26087 5.56615 6.26087C4.02936 6.26087 2.78354 5.01505 2.78354 3.47826C2.78354 1.94147 4.02936 0.69565 5.56615 0.69565Z" fill="white"/>
</mask>
<g mask="url(#mask0_1471_56465)">
<mask id="mask1_1471_56465" style="mask-type:alpha" maskUnits="userSpaceOnUse" x="-1" y="-1" width="18" height="18">
<path d="M-0.726562 16.728H16.728V-0.726562H-0.726562V16.728Z" fill="black"/>
</mask>
<g mask="url(#mask1_1471_56465)">
<path d="M-1.54883 -3.63477H12.6804V10.5945H-1.54883L-1.54883 -3.63477Z" fill="#14094E"/>
</g>
</g>
<mask id="mask2_1471_56465" style="mask-type:luminance" maskUnits="userSpaceOnUse" x="0" y="7" width="12" height="9">
<path fill-rule="evenodd" clip-rule="evenodd" d="M8 7.65234H3.13043C1.40154 7.65234 0 9.05388 0 10.7828V14.261C0 15.2215 0.77863 16.0002 1.73913 16.0002H9.3913C10.3518 16.0002 11.1304 15.2215 11.1304 14.261V10.7828C11.1304 9.05388 9.72889 7.65234 7.99999 7.65234H8ZM3.13043 8.34799H8C9.34469 8.34799 10.4348 9.43808 10.4348 10.7828V14.261C10.4348 14.8373 9.9676 15.3045 9.39131 15.3045H1.73914C1.16284 15.3045 0.69566 14.8373 0.69566 14.261V10.7828C0.69566 9.43808 1.78575 8.34799 3.13044 8.34799H3.13043Z" fill="white"/>
</mask>
<g mask="url(#mask2_1471_56465)">
<mask id="mask3_1471_56465" style="mask-type:alpha" maskUnits="userSpaceOnUse" x="-1" y="-1" width="18" height="18">
<path d="M-0.726562 16.728H16.728V-0.726562H-0.726562V16.728Z" fill="black"/>
</mask>
<g mask="url(#mask3_1471_56465)">
<path d="M-3.63477 4.01562H14.7684V19.6362H-3.63477V4.01562Z" fill="#14094E"/>
</g>
</g>
<mask id="mask4_1471_56465" style="mask-type:luminance" maskUnits="userSpaceOnUse" x="10" y="2" width="6" height="7">
<path fill-rule="evenodd" clip-rule="evenodd" d="M13.0907 2.9082C14.6974 2.9082 15.9998 4.21064 15.9998 5.81729C15.9998 7.42394 14.6974 8.72638 13.0907 8.72638C11.4841 8.72638 10.1816 7.42394 10.1816 5.81729C10.1816 4.21064 11.4841 2.9082 13.0907 2.9082ZM13.0907 3.63547C11.8858 3.63547 10.9089 4.61231 10.9089 5.81729C10.9089 7.02227 11.8858 7.99911 13.0907 7.99911C14.2957 7.99911 15.2726 7.02227 15.2726 5.81729C15.2726 4.61231 14.2957 3.63547 13.0907 3.63547Z" fill="white"/>
</mask>
<g mask="url(#mask4_1471_56465)">
<mask id="mask5_1471_56465" style="mask-type:alpha" maskUnits="userSpaceOnUse" x="-1" y="-1" width="18" height="18">
<path d="M-0.726562 16.726H16.728V-0.728516H-0.726562V16.726Z" fill="black"/>
</mask>
<g mask="url(#mask5_1471_56465)">
<path d="M6.54688 -0.728516H19.6378V12.3624H6.54688L6.54688 -0.728516Z" fill="#2EBDF3"/>
</g>
</g>
<mask id="mask6_1471_56465" style="mask-type:alpha" maskUnits="userSpaceOnUse" x="12" y="4" width="3" height="3">
<path d="M14.0113 4.83232C14.1537 4.69073 14.384 4.6914 14.5256 4.83381C14.6514 4.96041 14.6649 5.15639 14.5663 5.29783L14.5241 5.34807L13.3473 6.51803C13.221 6.64364 13.0255 6.65733 12.884 6.55929L12.8338 6.51729L12.1065 5.79002C11.9645 5.64801 11.9645 5.41777 12.1065 5.27576C12.2327 5.14953 12.4287 5.13551 12.5704 5.23369L12.6208 5.27576L13.0909 5.7462L14.0113 4.83232Z" fill="black"/>
</mask>
<g mask="url(#mask6_1471_56465)">
<mask id="mask7_1471_56465" style="mask-type:alpha" maskUnits="userSpaceOnUse" x="-1" y="-1" width="18" height="18">
<path d="M-0.726562 16.726H16.728V-0.728516H-0.726562V16.726Z" fill="black"/>
</mask>
<g mask="url(#mask7_1471_56465)">
<path d="M8.36523 1.08984H18.2693V10.2598H8.36523L8.36523 1.08984Z" fill="#2EBDF3"/>
</g>
</g>
</svg>
