<svg xmlns="http://www.w3.org/2000/svg" xmlns:xlink="http://www.w3.org/1999/xlink" width="24" height="24" viewBox="0 0 24 24">
  <defs>
    <clipPath id="clip-Payment_Term">
      <rect width="24" height="24"/>
    </clipPath>
  </defs>
  <g id="Payment_Term" data-name="Payment Term" clip-path="url(#clip-Payment_Term)">
    <rect width="24" height="24" fill="#fff"/>
    <g id="Group_193" data-name="Group 193">
      <path id="Path_311" data-name="Path 311" d="M21.924,234.186a1.631,1.631,0,0,0-1.623-1.145l-.157.006a1.827,1.827,0,0,0-1.22.534l-2.431,2.405a1.7,1.7,0,0,0-1.427-.772H11.638a7.033,7.033,0,0,1-1.875-.249,4.61,4.61,0,0,0-4.294.9A6.21,6.21,0,0,0,4.326,237.1a1.541,1.541,0,0,0-1.989.2l-2.216,2.3a.431.431,0,0,0,.008.606l1.782,1.758a.431.431,0,0,0,.605-.614l-1.479-1.459,1.921-1.994a.681.681,0,0,1,.964-.016L7.349,241.2a.681.681,0,0,1,.013.964L5.475,244.1l-.486-.463a.431.431,0,1,0-.594.624l.794.756a.431.431,0,0,0,.606-.011l2.185-2.242a1.544,1.544,0,0,0,.332-1.64l.77-.09a9.386,9.386,0,0,1,1.08-.063h5.217c.08,0,.161,0,.24-.01l.5-.042a2.893,2.893,0,0,0,1.965-1.01l3.516-4.136A1.676,1.676,0,0,0,21.924,234.186Zm-.982,1.032-3.516,4.136a2.033,2.033,0,0,1-1.38.709l-.5.042c-.056,0-.113.007-.169.007H10.161a10.268,10.268,0,0,0-1.179.068l-1.246.145-2.757-2.658a5.333,5.333,0,0,1,1.033-1.133,3.733,3.733,0,0,1,3.521-.737,7.891,7.891,0,0,0,2.105.28h3.429a.848.848,0,0,1,.607.258.839.839,0,0,1,.219.421.425.425,0,0,0,.014.115.841.841,0,0,1-.184.576l-.013.017a.839.839,0,0,1-.657.315H12.068a.431.431,0,1,0,0,.862h2.985a1.7,1.7,0,0,0,1.33-.638l.013-.017a1.7,1.7,0,0,0,.374-1.061l2.762-2.733a.969.969,0,0,1,.648-.284l.157-.006a.767.767,0,0,1,.764.539A.819.819,0,0,1,20.942,235.218Zm0,0" transform="translate(1 -221.98)" fill="#14004e"/>
      <g id="Rectangle_7" data-name="Rectangle 7" transform="translate(4 1)" fill="none" stroke="#35aaee" stroke-linecap="round" stroke-linejoin="round" stroke-width="1">
        <rect width="16" height="10" rx="2" stroke="none"/>
        <rect x="0.5" y="0.5" width="15" height="9" rx="1.5" fill="none"/>
      </g>
      <line id="Line_9" data-name="Line 9" x2="15" transform="translate(4.5 3.5)" fill="none" stroke="#35aaee" stroke-width="1"/>
      <line id="Line_10" data-name="Line 10" x2="15" transform="translate(4.5 5.5)" fill="none" stroke="#35aaee" stroke-width="1"/>
      <rect id="Rectangle_8" data-name="Rectangle 8" width="2" height="2" transform="translate(16 7)" fill="#35aaee"/>
      <line id="Line_1" data-name="Line 1" x2="4" transform="translate(6.5 7.5)" fill="none" stroke="#3ba8ee" stroke-linecap="round" stroke-width="1"/>
      <line id="Line_11" data-name="Line 11" x2="1" transform="translate(12.5 7.5)" fill="none" stroke="#3ba8ee" stroke-linecap="round" stroke-width="1"/>
    </g>
  </g>
</svg>
