<svg xmlns="http://www.w3.org/2000/svg" xmlns:xlink="http://www.w3.org/1999/xlink" width="24" height="24" viewBox="0 0 24 24">
  <defs>
    <clipPath id="clip-Physical_Trade">
      <rect width="24" height="24"/>
    </clipPath>
  </defs>
  <g id="Physical_Trade" data-name="Physical Trade" clip-path="url(#clip-Physical_Trade)">
    <rect width="24" height="24" fill="#fff"/>
    <g id="Group_209" data-name="Group 209">
      <g id="Path_348" data-name="Path 348" transform="translate(1 1)" fill="none">
        <path d="M2,0H20a2,2,0,0,1,2,2V14a2,2,0,0,1-2,2H2a2,2,0,0,1-2-2V2A2,2,0,0,1,2,0Z" stroke="none"/>
        <path d="M 2 1 C 1.448600769042969 1 1 1.448599815368652 1 2 L 1 14 C 1 14.55140018463135 1.448600769042969 15 2 15 L 20 15 C 20.55139923095703 15 21 14.55140018463135 21 14 L 21 2 C 21 1.448599815368652 20.55139923095703 1 20 1 L 2 1 M 2 0 L 20 0 C 21.10457038879395 0 22 0.8954296112060547 22 2 L 22 14 C 22 15.10457038879395 21.10457038879395 16 20 16 L 2 16 C 0.8954296112060547 16 0 15.10457038879395 0 14 L 0 2 C 0 0.8954296112060547 0.8954296112060547 0 2 0 Z" stroke="none" fill="#14014e"/>
      </g>
      <g id="Path_357" data-name="Path 357" transform="translate(8 20)" fill="none">
        <path d="M0,0H9V3H0Z" stroke="none"/>
        <path d="M 1 1 L 1 2 L 8 2 L 8 1 L 1 1 M 0 0 L 9 0 L 9 3 L 0 3 L 0 0 Z" stroke="none" fill="#14014e"/>
      </g>
      <path id="Path_356" data-name="Path 356" d="M0,0V4" transform="translate(12.5 16.5)" fill="none" stroke="#14014e" stroke-width="1"/>
      <g id="Path_349" data-name="Path 349" transform="translate(4 4)" fill="#fff">
        <path d="M 0.5 8.5 L 0.5 0.5 L 0.5 8.5 Z" stroke="none"/>
        <path d="M 0 0 L 1 0 L 1 9 L 0 9 L 0 0 Z" stroke="none" fill="#39baf3"/>
      </g>
      <g id="Path_353" data-name="Path 353" transform="translate(20 12) rotate(90)" fill="#fff">
        <path d="M 0.5 15.5 L 0.5 0.5 L 0.5 15.5 Z" stroke="none"/>
        <path d="M 0 0 L 1 0 L 1 16 L 0 16 L 0 0 Z" stroke="none" fill="#39baf3"/>
      </g>
      <g id="Path_351" data-name="Path 351" transform="translate(6 9)" fill="#fff">
        <path d="M0,0H1V2H0Z" stroke="none"/>
        <path d="M 0 0 L 1 0 L 1 2 L 0 2 L 0 0 Z" stroke="none" fill="#39baf3"/>
      </g>
      <g id="Path_350" data-name="Path 350" transform="translate(9 8)" fill="#fff">
        <path d="M 0.5 2.5 L 0.5 0.5 L 0.5 2.5 Z" stroke="none"/>
        <path d="M 0 0 L 1 0 L 1 3 L 0 3 L 0 0 Z" stroke="none" fill="#39baf3"/>
      </g>
      <g id="Path_352" data-name="Path 352" transform="translate(12 9)" fill="#fff">
        <path d="M0,0H1V2H0Z" stroke="none"/>
        <path d="M 0 0 L 1 0 L 1 2 L 0 2 L 0 0 Z" stroke="none" fill="#39baf3"/>
      </g>
      <g id="Path_354" data-name="Path 354" transform="translate(15 10)" fill="#fff">
        <path d="M0,0H1V1H0Z" stroke="none"/>
        <path d="M 0 0 L 1 0 L 1 1 L 0 1 L 0 0 Z" stroke="none" fill="#39baf3"/>
      </g>
      <g id="Path_355" data-name="Path 355" transform="translate(18 7)" fill="#fff">
        <path d="M 0.5 3.5 L 0.5 0.5 L 0.5 3.5 Z" stroke="none"/>
        <path d="M 0 0 L 1 0 L 1 4 L 0 4 L 0 0 Z" stroke="none" fill="#39baf3"/>
      </g>
      <path id="Path_346" data-name="Path 346" d="M40.5,61.455l3.654-2.241,5.094,2.777,3.974-3.956" transform="translate(-34 -54)" fill="#fff" stroke="#39baf3" stroke-width="1"/>
      <path id="Path_347" data-name="Path 347" d="M50,58.034h3.138v2.689" transform="translate(-34 -54)" fill="none" stroke="#39baf3" stroke-width="1"/>
    </g>
  </g>
</svg>
