<svg width="61" height="32" viewBox="0 0 61 32" fill="none" xmlns="http://www.w3.org/2000/svg">
<rect width="61" height="32" rx="16" fill="#E7E7E7"/>
<path d="M19.4183 8.67829C18.2864 7.54635 16.3756 7.8781 15.6908 9.32399L13.8733 13.1612C13.7363 13.4503 13.4934 13.6756 13.1948 13.7905L10.2546 14.921C10.0608 14.9955 9.88868 15.1172 9.75387 15.275C9.61907 15.4329 9.52585 15.622 9.4827 15.8251C9.43956 16.0282 9.44784 16.2388 9.50681 16.4379C9.56578 16.6369 9.67356 16.8181 9.82035 16.9649L12.0508 19.1946L8 23.2454V24H8.75462L12.8054 19.9492L15.0351 22.1789C15.1819 22.3256 15.363 22.4332 15.562 22.4921C15.761 22.551 15.9715 22.5592 16.1745 22.5161C16.3774 22.4729 16.5664 22.3798 16.7243 22.245C16.8821 22.1103 17.0038 21.9383 17.0783 21.7447L18.2095 18.8045C18.3241 18.5062 18.5498 18.2634 18.8388 18.126L22.676 16.3085C24.1219 15.6237 24.4529 13.7129 23.3217 12.5817L19.4183 8.67829Z" fill="#A4A4A4"/>
<path d="M33.12 21V11.06H37.292C37.74 11.06 38.1507 11.1533 38.524 11.34C38.9067 11.5267 39.2333 11.774 39.504 12.082C39.7747 12.3807 39.9847 12.726 40.134 13.118C40.2927 13.5007 40.372 13.8927 40.372 14.294C40.372 14.714 40.2973 15.12 40.148 15.512C40.008 15.8947 39.8073 16.24 39.546 16.548C39.2847 16.8467 38.9673 17.0893 38.594 17.276C38.23 17.4533 37.824 17.542 37.376 17.542H34.688V21H33.12ZM34.688 16.156H37.278C37.502 16.156 37.7027 16.1093 37.88 16.016C38.0667 15.9227 38.2253 15.792 38.356 15.624C38.4867 15.456 38.5893 15.26 38.664 15.036C38.7387 14.812 38.776 14.5647 38.776 14.294C38.776 14.014 38.734 13.762 38.65 13.538C38.566 13.314 38.4493 13.1227 38.3 12.964C38.1507 12.796 37.978 12.67 37.782 12.586C37.5953 12.4927 37.3993 12.446 37.194 12.446H34.688V16.156ZM41.6467 21V13.678H43.1867V21H41.6467ZM41.6467 12.474V10.78H43.1867V12.474H41.6467ZM51.6033 21H50.0633V16.898C50.0633 16.2073 49.9513 15.708 49.7273 15.4C49.5126 15.0827 49.1906 14.924 48.7613 14.924C48.5373 14.924 48.3133 14.966 48.0893 15.05C47.8653 15.134 47.6553 15.2553 47.4593 15.414C47.2633 15.5633 47.0859 15.7453 46.9273 15.96C46.7779 16.1653 46.6613 16.394 46.5773 16.646V21H45.0373V13.678H46.4373V15.148C46.7173 14.6533 47.1233 14.266 47.6553 13.986C48.1873 13.6967 48.7753 13.552 49.4193 13.552C49.8579 13.552 50.2173 13.6313 50.4973 13.79C50.7773 13.9487 50.9966 14.168 51.1553 14.448C51.3233 14.7187 51.4399 15.036 51.5053 15.4C51.5706 15.7547 51.6033 16.1327 51.6033 16.534V21Z" fill="#A4A4A4"/>
</svg>
