<svg xmlns="http://www.w3.org/2000/svg" width="22.001" height="22" viewBox="0 0 22.001 22">
  <g id="price_fixing" data-name="price fixing" transform="translate(-1 -1)">
    <path id="Subtraction_7" data-name="Subtraction 7" d="M-58-88A10.012,10.012,0,0,1-68-98a10.012,10.012,0,0,1,10-10A10.011,10.011,0,0,1-48-98,10.011,10.011,0,0,1-58-88Zm0-19a9.01,9.01,0,0,0-9,9,9.01,9.01,0,0,0,9,9,9.01,9.01,0,0,0,9-9A9.01,9.01,0,0,0-58-107Z" transform="translate(69 109)" fill="#14054e"/>
    <path id="Path_382" data-name="Path 382" d="M-1.32-5.02a.774.774,0,0,0-.175-.13,3.611,3.611,0,0,0-.37-.2,5.2,5.2,0,0,0-.5-.2A2.993,2.993,0,0,0-2.92-5.68v1.36l.32.08a8.5,8.5,0,0,1,.92.3,2.471,2.471,0,0,1,.7.41,1.661,1.661,0,0,1,.44.595,2.065,2.065,0,0,1,.155.84,2.151,2.151,0,0,1-.2.97,1.846,1.846,0,0,1-.535.655,2.386,2.386,0,0,1-.77.385A3.725,3.725,0,0,1-2.81.07V1.23H-3.5V.06A6.1,6.1,0,0,1-4.865-.22,4.933,4.933,0,0,1-6.08-.8l.72-1.43a1.116,1.116,0,0,0,.215.165,3.5,3.5,0,0,0,.445.24,6.141,6.141,0,0,0,.61.24,3.82,3.82,0,0,0,.7.165V-2.75l-.48-.14a5.92,5.92,0,0,1-.85-.325,2.246,2.246,0,0,1-.595-.4,1.471,1.471,0,0,1-.35-.53,1.95,1.95,0,0,1-.115-.7,2.256,2.256,0,0,1,.18-.925,2.154,2.154,0,0,1,.485-.7,2.226,2.226,0,0,1,.72-.455,3.35,3.35,0,0,1,.9-.215V-8.15h.69v1.01a4.3,4.3,0,0,1,1.22.29,8.165,8.165,0,0,1,.99.47Zm-.83,3.09a.465.465,0,0,0-.21-.4A2.317,2.317,0,0,0-2.92-2.6v1.2Q-2.15-1.43-2.15-1.93ZM-4.09-5.11a.486.486,0,0,0,.175.395,1.568,1.568,0,0,0,.525.255V-5.69Q-4.09-5.63-4.09-5.11Z" transform="translate(14 15)" fill="#14054e"/>
    <circle id="Ellipse_18" data-name="Ellipse 18" cx="5" cy="5" r="5" transform="translate(13 13)" fill="#32bcf3"/>
    <circle id="Ellipse_19" data-name="Ellipse 19" cx="3.571" cy="3.571" r="3.571" transform="translate(14.429 14.428)" fill="#fff"/>
    <path id="Union_4" data-name="Union 4" d="M.679,2.714A.679.679,0,0,1,0,2.035V.679a.679.679,0,0,1,1.357,0v.678H3.392a.679.679,0,1,1,0,1.357Z" transform="matrix(0.719, -0.695, 0.695, 0.719, 15.845, 18.011)" fill="#36bbf3"/>
  </g>
</svg>
