<svg xmlns="http://www.w3.org/2000/svg" width="22.001" height="22" viewBox="0 0 22.001 22">
  <g id="Price_allocation" data-name="Price allocation" transform="translate(-1 -1)">
    <path id="Subtraction_7" data-name="Subtraction 7" d="M-58-88A10.012,10.012,0,0,1-68-98a10.012,10.012,0,0,1,10-10A10.011,10.011,0,0,1-48-98,10.011,10.011,0,0,1-58-88Zm0-19a9.01,9.01,0,0,0-9,9,9.01,9.01,0,0,0,9,9,9.01,9.01,0,0,0,9-9A9.01,9.01,0,0,0-58-107Z" transform="translate(69 109)" fill="#14054e"/>
    <text id="_" data-name="$" transform="translate(14 15)" fill="#14054e" font-size="10" font-family="Raleway-ExtraBold, Raleway" font-weight="800"><tspan x="-6.41" y="0">$</tspan></text>
    <circle id="Ellipse_18" data-name="Ellipse 18" cx="5" cy="5" r="5" transform="translate(13 13)" fill="#32bcf3"/>
    <circle id="Ellipse_19" data-name="Ellipse 19" cx="3.571" cy="3.571" r="3.571" transform="translate(14.429 14.428)" fill="#fff"/>
    <g id="like" transform="translate(16 5.333)">
      <g id="Group_214" data-name="Group 214" transform="translate(0 12.334)">
        <g id="Group_213" data-name="Group 213">
          <path id="Path_372" data-name="Path 372" d="M.417,224a.417.417,0,0,0-.417.417v1.333a.417.417,0,0,0,.417.417h.5a.414.414,0,0,0,.25-.084V224Z" transform="translate(0 -224)" fill="#29adee"/>
        </g>
      </g>
      <g id="Group_216" data-name="Group 216" transform="translate(1.333 10.667)">
        <g id="Group_215" data-name="Group 215">
          <path id="Path_373" data-name="Path 373" d="M173.334,12.959a.37.37,0,0,0-.109-.262.414.414,0,0,0,.107-.318A.431.431,0,0,0,172.9,12h-1.029a2.4,2.4,0,0,0,.133-.667.681.681,0,0,0-.5-.667.524.524,0,0,0-.3.1.084.084,0,0,0-.031.065V11.4l-.48,1.04-.02.01v1.786a1.092,1.092,0,0,0,.417.1h1.53a.383.383,0,0,0,.378-.291.375.375,0,0,0-.03-.25.373.373,0,0,0,.167-.5A.373.373,0,0,0,173.334,12.959Z" transform="translate(-170.667 -10.667)" fill="#29adee"/>
        </g>
      </g>
    </g>
  </g>
</svg>
