<svg width="36" height="36" viewBox="0 0 36 36" fill="none" xmlns="http://www.w3.org/2000/svg">
<rect x="4" y="4" width="28" height="28" rx="4" fill="#15094E"/>
<path d="M25.8102 15.1875H14.2389V12.375C14.2381 12.0092 14.109 11.6552 13.874 11.3748C13.6391 11.0944 13.3132 10.9053 12.9532 10.8405C12.8891 10.5663 12.7343 10.3218 12.5139 10.1466C12.2935 9.97133 12.0204 9.87564 11.7389 9.875H9.86385C9.53427 9.87795 9.21919 10.011 8.98717 10.2451C8.75516 10.4792 8.625 10.7954 8.625 11.125C8.625 11.4546 8.75518 11.7709 8.9872 12.005C9.21922 12.2391 9.5343 12.3721 9.86389 12.375H11.7389C12.0079 12.3741 12.2695 12.2862 12.4846 12.1244C12.6996 11.9627 12.8566 11.7357 12.9321 11.4774C13.1278 11.5326 13.3002 11.6501 13.4232 11.8121C13.5463 11.974 13.6132 12.1716 13.6139 12.375V21.4375C13.6134 21.9678 13.8058 22.4802 14.1552 22.8791C14.5046 23.278 14.9871 23.5362 15.5129 23.6055C15.3333 23.8347 15.2215 24.1096 15.1902 24.3991C15.1588 24.6885 15.2092 24.981 15.3356 25.2432C15.462 25.5055 15.6594 25.7271 15.9053 25.883C16.1513 26.0388 16.4359 26.1226 16.7271 26.1249C17.0182 26.1272 17.3042 26.0479 17.5525 25.896C17.8009 25.744 18.0017 25.5255 18.1323 25.2653C18.2628 25.005 18.3178 24.7134 18.291 24.4235C18.2643 24.1336 18.1568 23.857 17.9809 23.625H22.6843C22.5058 23.8606 22.3979 24.1421 22.3733 24.4367C22.3486 24.7313 22.4083 25.0268 22.5453 25.2888C22.6823 25.5507 22.891 25.7683 23.147 25.9161C23.4031 26.064 23.6958 26.1359 23.9912 26.1236C24.2866 26.1113 24.5723 26.0153 24.8152 25.8467C25.058 25.6781 25.2479 25.4439 25.3626 25.1715C25.4774 24.899 25.5123 24.5996 25.4633 24.3081C25.4143 24.0165 25.2834 23.7449 25.0858 23.525C25.4735 23.4038 25.8193 23.1763 26.0842 22.8684C26.349 22.5604 26.5222 22.1844 26.584 21.783L27.3442 16.9966C27.3786 16.7743 27.3648 16.5472 27.3038 16.3307C27.2427 16.1141 27.1358 15.9133 26.9903 15.7417C26.8449 15.5701 26.6642 15.4318 26.4606 15.3362C26.2569 15.2406 26.0351 15.1899 25.8102 15.1875ZM11.7389 11.75H9.86385C9.69809 11.75 9.53912 11.6841 9.42191 11.5669C9.3047 11.4497 9.23885 11.2908 9.23885 11.125C9.23885 10.9592 9.3047 10.8003 9.42191 10.6831C9.53912 10.5658 9.69809 10.5 9.86385 10.5H11.7389C11.9034 10.5019 12.0605 10.5685 12.1762 10.6856C12.2919 10.8026 12.3568 10.9605 12.3568 11.125C12.3568 11.2895 12.2919 11.4474 12.1762 11.5644C12.0605 11.6814 11.9034 11.7481 11.7389 11.75ZM16.7389 25.5C16.492 25.4972 16.2563 25.3972 16.0827 25.2217C15.9092 25.0462 15.8119 24.8093 15.8119 24.5625C15.8119 24.3156 15.9092 24.0788 16.0828 23.9033C16.2563 23.7278 16.4921 23.6278 16.7389 23.625C16.9857 23.6278 17.2215 23.7278 17.395 23.9033C17.5686 24.0788 17.6659 24.3157 17.6659 24.5625C17.6659 24.8093 17.5685 25.0462 17.395 25.2217C17.2214 25.3972 16.9857 25.4972 16.7389 25.5ZM23.9264 25.5C23.6795 25.4972 23.4438 25.3972 23.2702 25.2217C23.0967 25.0462 22.9994 24.8093 22.9994 24.5625C22.9994 24.3157 23.0967 24.0788 23.2702 23.9033C23.4438 23.7278 23.6796 23.6278 23.9264 23.625C24.1732 23.6278 24.4089 23.7278 24.5825 23.9033C24.756 24.0788 24.8534 24.3157 24.8534 24.5625C24.8534 24.8093 24.756 25.0462 24.5825 25.2217C24.4089 25.3972 24.1732 25.4972 23.9264 25.5ZM26.7268 16.8983L25.9666 21.6847C25.9114 22.0507 25.7266 22.3847 25.446 22.6261C25.1654 22.8674 24.8075 23.0001 24.4374 23H15.7876C15.3752 22.9977 14.9805 22.8319 14.6902 22.539C14.3998 22.2461 14.2375 21.8499 14.2389 21.4375V15.8125H25.8102C25.9449 15.8143 26.0777 15.845 26.1996 15.9025C26.3214 15.9601 26.4295 16.0432 26.5164 16.1461C26.6033 16.2491 26.6671 16.3696 26.7034 16.4993C26.7397 16.6291 26.7477 16.7652 26.7268 16.8983Z" fill="white"/>
<path d="M25.4922 17.6875H23.9297V16.75C23.9297 16.6671 23.8968 16.5876 23.8382 16.529C23.7796 16.4704 23.7001 16.4375 23.6172 16.4375C23.5343 16.4375 23.4548 16.4704 23.3962 16.529C23.3376 16.5876 23.3047 16.6671 23.3047 16.75V17.6875H20.8047V16.75C20.8047 16.6671 20.7718 16.5876 20.7132 16.529C20.6546 16.4704 20.5751 16.4375 20.4922 16.4375C20.4093 16.4375 20.3298 16.4704 20.2712 16.529C20.2126 16.5876 20.1797 16.6671 20.1797 16.75V17.6875H17.6797V16.75C17.6797 16.6671 17.6468 16.5876 17.5882 16.529C17.5296 16.4704 17.4501 16.4375 17.3672 16.4375C17.2843 16.4375 17.2048 16.4704 17.1462 16.529C17.0876 16.5876 17.0547 16.6671 17.0547 16.75V17.6875H15.4922C15.4093 17.6875 15.3298 17.7204 15.2712 17.779C15.2126 17.8376 15.1797 17.9171 15.1797 18C15.1797 18.0829 15.2126 18.1624 15.2712 18.221C15.3298 18.2796 15.4093 18.3125 15.4922 18.3125H17.0547V19.875H15.4922C15.4093 19.875 15.3298 19.9079 15.2712 19.9665C15.2126 20.0251 15.1797 20.1046 15.1797 20.1875C15.1797 20.2704 15.2126 20.3499 15.2712 20.4085C15.3298 20.4671 15.4093 20.5 15.4922 20.5H17.0547V22.0625C17.0547 22.1454 17.0876 22.2249 17.1462 22.2835C17.2048 22.3421 17.2843 22.375 17.3672 22.375C17.4501 22.375 17.5296 22.3421 17.5882 22.2835C17.6468 22.2249 17.6797 22.1454 17.6797 22.0625V20.5H20.1797V22.0625C20.1797 22.1454 20.2126 22.2249 20.2712 22.2835C20.3298 22.3421 20.4093 22.375 20.4922 22.375C20.5751 22.375 20.6546 22.3421 20.7132 22.2835C20.7718 22.2249 20.8047 22.1454 20.8047 22.0625V20.5H23.3047V22.0625C23.3047 22.1454 23.3376 22.2249 23.3962 22.2835C23.4548 22.3421 23.5343 22.375 23.6172 22.375C23.7001 22.375 23.7796 22.3421 23.8382 22.2835C23.8968 22.2249 23.9297 22.1454 23.9297 22.0625V20.5H25.1797C25.2626 20.5 25.3421 20.4671 25.4007 20.4085C25.4593 20.3499 25.4922 20.2704 25.4922 20.1875C25.4922 20.1046 25.4593 20.0251 25.4007 19.9665C25.3421 19.9079 25.2626 19.875 25.1797 19.875H23.9297V18.3125H25.4922C25.5743 18.3113 25.6527 18.2779 25.7103 18.2194C25.768 18.1609 25.8003 18.0821 25.8003 18C25.8003 17.9179 25.768 17.8391 25.7103 17.7806C25.6527 17.7221 25.5743 17.6887 25.4922 17.6875ZM20.1797 19.875H17.6797V18.3125H20.1797V19.875ZM23.3047 19.875H20.8047V18.3125H23.3047V19.875ZM20.4922 13.759C20.5332 13.759 20.5739 13.7509 20.6118 13.7352C20.6497 13.7195 20.6842 13.6965 20.7132 13.6675C20.7422 13.6384 20.7652 13.604 20.7809 13.5661C20.7966 13.5282 20.8047 13.4875 20.8047 13.4465V12.0625C20.8047 11.9796 20.7718 11.9001 20.7132 11.8415C20.6546 11.7829 20.5751 11.75 20.4922 11.75C20.4093 11.75 20.3298 11.7829 20.2712 11.8415C20.2126 11.9001 20.1797 11.9796 20.1797 12.0625V13.4465C20.1797 13.4875 20.1878 13.5282 20.2035 13.5661C20.2192 13.604 20.2422 13.6384 20.2712 13.6675C20.3002 13.6965 20.3347 13.7195 20.3726 13.7352C20.4105 13.7509 20.4511 13.759 20.4922 13.759ZM18.6903 14.0251C18.7441 14.0867 18.8199 14.1248 18.9015 14.1312C18.9831 14.1375 19.0639 14.1116 19.1266 14.0591C19.1893 14.0065 19.2289 13.9314 19.2368 13.8499C19.2448 13.7685 19.2205 13.6872 19.1691 13.6235L18.2795 12.5633C18.2257 12.5017 18.1499 12.4636 18.0683 12.4573C17.9867 12.4509 17.9059 12.4768 17.8432 12.5294C17.7806 12.582 17.741 12.657 17.733 12.7385C17.7251 12.8199 17.7494 12.9012 17.8007 12.9649L18.6903 14.0251ZM22.0546 14.1368C22.1002 14.1369 22.1454 14.1269 22.1868 14.1076C22.2282 14.0883 22.2648 14.0601 22.2941 14.0251L23.1837 12.9649C23.2351 12.9012 23.2594 12.8199 23.2514 12.7384C23.2435 12.657 23.2039 12.5819 23.1412 12.5293C23.0785 12.4767 22.9977 12.4508 22.9161 12.4572C22.8345 12.4635 22.7587 12.5016 22.7049 12.5633L21.8153 13.6235C21.7779 13.6693 21.7543 13.7247 21.747 13.7834C21.7397 13.842 21.749 13.9016 21.774 13.9551C21.799 14.0087 21.8385 14.0542 21.8882 14.0863C21.9378 14.1184 21.9954 14.1359 22.0546 14.1368Z" fill="white"/>
</svg>
