<svg xmlns="http://www.w3.org/2000/svg" width="22" height="22" viewBox="0 0 22 22">
  <g id="Trade_Actualization" data-name="Trade Actualization" transform="translate(-1 -1)">
    <path id="Union_7" data-name="Union 7" d="M-112-97h-22v-9h22v9Zm-3.056-6.75a.612.612,0,0,0-.611.611v3.278a.612.612,0,0,0,.611.611.612.612,0,0,0,.611-.611v-3.278A.612.612,0,0,0-115.056-103.75Zm-3.667,0a.612.612,0,0,0-.611.611v3.278a.612.612,0,0,0,.611.611.612.612,0,0,0,.611-.611v-3.278A.612.612,0,0,0-118.723-103.75Zm-8.555,0a.612.612,0,0,0-.611.611v3.278a.612.612,0,0,0,.611.611.612.612,0,0,0,.611-.611v-3.278A.612.612,0,0,0-127.278-103.75Zm-3.667,0a.612.612,0,0,0-.611.611v3.278a.612.612,0,0,0,.611.611.612.612,0,0,0,.611-.611v-3.278A.612.612,0,0,0-130.945-103.75Z" transform="translate(135 107)" fill="#32bcf3"/>
    <path id="Union_8" data-name="Union 8" d="M-112-97h-22v-9h22v9Zm-3.056-6.75a.612.612,0,0,0-.611.611v3.278a.612.612,0,0,0,.611.611.612.612,0,0,0,.611-.611v-3.278A.612.612,0,0,0-115.056-103.75Zm-3.667,0a.612.612,0,0,0-.611.611v3.278a.612.612,0,0,0,.611.611.612.612,0,0,0,.611-.611v-3.278A.612.612,0,0,0-118.723-103.75Zm-8.555,0a.612.612,0,0,0-.611.611v3.278a.612.612,0,0,0,.611.611.612.612,0,0,0,.611-.611v-3.278A.612.612,0,0,0-127.278-103.75Zm-3.667,0a.612.612,0,0,0-.611.611v3.278a.612.612,0,0,0,.611.611.612.612,0,0,0,.611-.611v-3.278A.612.612,0,0,0-130.945-103.75Z" transform="translate(135 120)" fill="#32bcf3"/>
    <rect id="Rectangle_52" data-name="Rectangle 52" width="5" height="2" transform="translate(3 11)" fill="#14054e"/>
    <rect id="Rectangle_53" data-name="Rectangle 53" width="5" height="2" transform="translate(16 11)" fill="#14054e"/>
  </g>
</svg>
