<svg width="16" height="16" viewBox="0 0 16 16" fill="none" xmlns="http://www.w3.org/2000/svg">
<mask id="mask0_323_6331" style="mask-type:alpha" maskUnits="userSpaceOnUse" x="2" y="0" width="8" height="7">
<path fill-rule="evenodd" clip-rule="evenodd" d="M5.56517 0C3.64418 0 2.08691 1.55727 2.08691 3.47826C2.08691 5.39925 3.64418 6.95652 5.56517 6.95652C7.48616 6.95652 9.04343 5.39925 9.04343 3.47826C9.04343 1.55727 7.48616 0 5.56517 0ZM5.56517 0.69565C7.10196 0.69565 8.34778 1.94147 8.34778 3.47826C8.34778 5.01505 7.10196 6.26087 5.56517 6.26087C4.02838 6.26087 2.78256 5.01505 2.78256 3.47826C2.78256 1.94147 4.02838 0.69565 5.56517 0.69565Z" fill="white"/>
</mask>
<g mask="url(#mask0_323_6331)">
<mask id="mask1_323_6331" style="mask-type:alpha" maskUnits="userSpaceOnUse" x="-1" y="-1" width="18" height="18">
<path d="M-0.727539 16.7275H16.727V-0.727051H-0.727539V16.7275Z" fill="black"/>
</mask>
<g mask="url(#mask1_323_6331)">
<path d="M-1.5498 -3.63611H12.6794V10.5931H-1.5498L-1.5498 -3.63611Z" fill="#14094E"/>
</g>
</g>
<mask id="mask2_323_6331" style="mask-type:alpha" maskUnits="userSpaceOnUse" x="0" y="7" width="12" height="9">
<path fill-rule="evenodd" clip-rule="evenodd" d="M8 7.65198H3.13043C1.40154 7.65198 0 9.05352 0 10.7824V14.2607C0 15.2212 0.77863 15.9998 1.73913 15.9998H9.3913C10.3518 15.9998 11.1304 15.2212 11.1304 14.2607V10.7824C11.1304 9.05352 9.72889 7.65198 7.99999 7.65198H8ZM3.13043 8.34763H8C9.34469 8.34763 10.4348 9.43772 10.4348 10.7824V14.2607C10.4348 14.837 9.9676 15.3041 9.39131 15.3041H1.73914C1.16284 15.3041 0.69566 14.837 0.69566 14.2607V10.7824C0.69566 9.43772 1.78575 8.34763 3.13044 8.34763H3.13043Z" fill="white"/>
</mask>
<g mask="url(#mask2_323_6331)">
<mask id="mask3_323_6331" style="mask-type:alpha" maskUnits="userSpaceOnUse" x="-1" y="-1" width="18" height="18">
<path d="M-0.726562 16.7275H16.728V-0.727051H-0.726562V16.7275Z" fill="black"/>
</mask>
<g mask="url(#mask3_323_6331)">
<path d="M-3.63574 4.01599H14.7674V19.6365H-3.63574V4.01599Z" fill="#14094E"/>
</g>
</g>
<mask id="mask4_323_6331" style="mask-type:alpha" maskUnits="userSpaceOnUse" x="10" y="2" width="6" height="7">
<path fill-rule="evenodd" clip-rule="evenodd" d="M13.0907 2.90906C14.6974 2.90906 15.9998 4.2115 15.9998 5.81815C15.9998 7.4248 14.6974 8.72724 13.0907 8.72724C11.4841 8.72724 10.1816 7.4248 10.1816 5.81815C10.1816 4.2115 11.4841 2.90906 13.0907 2.90906ZM13.0907 3.63633C11.8858 3.63633 10.9089 4.61317 10.9089 5.81815C10.9089 7.02313 11.8858 7.99997 13.0907 7.99997C14.2957 7.99997 15.2726 7.02313 15.2726 5.81815C15.2726 4.61317 14.2957 3.63633 13.0907 3.63633Z" fill="white"/>
</mask>
<g mask="url(#mask4_323_6331)">
<mask id="mask5_323_6331" style="mask-type:alpha" maskUnits="userSpaceOnUse" x="-1" y="-1" width="18" height="18">
<path d="M-0.727539 16.7276H16.727V-0.726929H-0.727539V16.7276Z" fill="black"/>
</mask>
<g mask="url(#mask5_323_6331)">
<path d="M6.5459 -0.726929H19.6368V12.364H6.5459L6.5459 -0.726929Z" fill="#2EBDF3"/>
</g>
</g>
<mask id="mask6_323_6331" style="mask-type:alpha" maskUnits="userSpaceOnUse" x="12" y="4" width="3" height="3">
<path d="M14.0113 4.83281C14.1537 4.69122 14.384 4.69189 14.5256 4.8343C14.6514 4.9609 14.6649 5.15688 14.5663 5.29832L14.5241 5.34856L13.3473 6.51852C13.221 6.64413 13.0255 6.65782 12.884 6.55978L12.8338 6.51778L12.1065 5.79051C11.9645 5.6485 11.9645 5.41826 12.1065 5.27625C12.2327 5.15002 12.4287 5.136 12.5704 5.23418L12.6208 5.27625L13.0909 5.74669L14.0113 4.83281Z" fill="black"/>
</mask>
<g mask="url(#mask6_323_6331)">
<mask id="mask7_323_6331" style="mask-type:alpha" maskUnits="userSpaceOnUse" x="-1" y="-1" width="18" height="18">
<path d="M-0.726562 16.7266H16.728V-0.727905H-0.726562V16.7266Z" fill="black"/>
</mask>
<g mask="url(#mask7_323_6331)">
<path d="M8.36426 1.09009H18.2683V10.26H8.36426L8.36426 1.09009Z" fill="#2EBDF3"/>
</g>
</g>
</svg>
