<svg width="16" height="15" viewBox="0 0 16 15" fill="none" xmlns="http://www.w3.org/2000/svg">
<mask id="mask0_323_6254" style="mask-type:alpha" maskUnits="userSpaceOnUse" x="0" y="0" width="16" height="15">
<path d="M7.33332 0C11.26 0 14.4658 3.08612 14.6576 6.96514L15.4177 6.11168C15.5401 5.97418 15.7508 5.96196 15.8883 6.08437C16.0105 6.19318 16.0338 6.37175 15.9515 6.50666L15.9156 6.55498L14.7286 7.88831C14.6193 8.01105 14.4398 8.0339 14.3048 7.95054L14.2565 7.91429L12.7768 6.58096C12.6401 6.45772 12.6291 6.24695 12.7524 6.11019C12.8619 5.98863 13.0406 5.96646 13.175 6.04959L13.2231 6.08571L13.976 6.7639C13.6871 3.34855 10.8234 0.66667 7.33333 0.66667C3.65143 0.66667 0.66666 3.65143 0.66666 7.33333C0.66666 11.0152 3.65143 14 7.33333 14C7.51742 14 7.66666 14.1492 7.66666 14.3333C7.66666 14.5174 7.51742 14.6667 7.33333 14.6667C3.28324 14.6667 0 11.3834 0 7.33333C0 3.28324 3.28324 0 7.33333 0H7.33332Z" fill="black"/>
</mask>
<g mask="url(#mask0_323_6254)">
<mask id="mask1_323_6254" style="mask-type:alpha" maskUnits="userSpaceOnUse" x="-1" y="-2" width="18" height="18">
<path d="M-0.726562 15.9996H16.728V-1.45496H-0.726562V15.9996Z" fill="black"/>
</mask>
<g mask="url(#mask1_323_6254)">
<path d="M-3.63574 -3.63696H19.637V18.3024H-3.63574V-3.63696Z" fill="#14094E"/>
</g>
</g>
<mask id="mask2_323_6254" style="mask-type:alpha" maskUnits="userSpaceOnUse" x="2" y="2" width="10" height="10">
<path fill-rule="evenodd" clip-rule="evenodd" d="M7.27282 2.90906C9.68279 2.90906 11.6365 4.86272 11.6365 7.2727C11.6365 9.68267 9.68279 11.6363 7.27282 11.6363C4.86285 11.6363 2.90918 9.68267 2.90918 7.2727C2.90918 4.86273 4.86285 2.90906 7.27282 2.90906ZM3.59177 7.94247L3.61242 8.0452C3.9232 9.52517 5.10887 10.6832 6.60341 10.9532C6.34935 10.3873 6.15814 9.50814 6.07369 8.47151C5.03715 8.38716 4.15829 8.19606 3.59176 7.94247H3.59177ZM10.9533 7.94209L10.9065 7.96327C10.3389 8.20659 9.47985 8.38966 8.47188 8.47179C8.38744 9.50834 8.19624 10.3874 7.94253 10.954C9.47129 10.6769 10.6771 9.47117 10.9533 7.94209H10.9533ZM6.70285 8.50891C6.75874 9.14567 6.85766 9.72163 6.99062 10.187C7.06341 10.4418 7.14358 10.652 7.22394 10.8075L7.27282 10.8939L7.28154 10.8807C7.36176 10.7437 7.44299 10.5503 7.51804 10.3106L7.55501 10.187C7.68797 9.72162 7.78689 9.14566 7.84306 8.50958L7.69306 8.51374C7.62391 8.51563 7.55429 8.51705 7.48424 8.51801L7.27281 8.51945C7.07963 8.51945 6.88939 8.51586 6.70285 8.50891ZM7.27282 6.64932C7.06631 6.64932 6.86238 6.65361 6.66238 6.66197C6.65374 6.86225 6.64945 7.06617 6.64945 7.27269C6.64945 7.47921 6.65375 7.68313 6.66211 7.88314C6.86239 7.89178 7.06632 7.89607 7.27283 7.89607C7.47935 7.89607 7.68327 7.89178 7.88327 7.88342C7.89191 7.68314 7.8962 7.47922 7.8962 7.2727C7.8962 7.06618 7.89191 6.86226 7.88355 6.66226C7.68327 6.65362 7.47935 6.64933 7.27283 6.64933L7.27282 6.64932ZM6.0366 6.70273L5.92964 6.71228C5.33568 6.76981 4.79782 6.86498 4.35851 6.9905C4.10374 7.06329 3.89351 7.14346 3.73797 7.22382L3.65099 7.2727L3.6648 7.28142C3.80183 7.36164 3.99524 7.44287 4.23488 7.51792L4.35851 7.55489C4.82388 7.68785 5.39984 7.78677 6.03592 7.84294C6.03186 7.71568 6.02869 7.58715 6.02715 7.45715L6.02606 7.27269C6.02606 7.07951 6.02965 6.88927 6.0366 6.70273ZM8.5097 6.70245L8.51386 6.85245C8.51763 6.99075 8.51957 7.13094 8.51957 7.2727C8.51957 7.46588 8.51598 7.65613 8.50902 7.84266C9.14578 7.78677 9.72174 7.68785 10.1871 7.55489C10.4419 7.4821 10.6521 7.40193 10.8076 7.32157L10.894 7.27269L10.8808 7.26397C10.7438 7.18375 10.5504 7.10252 10.3107 7.02747L10.1871 6.9905C9.72174 6.85754 9.14578 6.75862 8.50969 6.70245H8.5097ZM6.60304 3.59165L6.50031 3.6123C5.02034 3.92308 3.86233 5.10875 3.59229 6.6033C4.15825 6.34924 5.03737 6.15803 6.074 6.07358C6.15835 5.03704 6.34945 4.15817 6.60304 3.59164V3.59165ZM7.94221 3.59217L7.96339 3.63904C8.20671 4.20664 8.38978 5.06566 8.47191 6.07364C9.50846 6.15808 10.3875 6.34928 10.9541 6.60299C10.6771 5.07423 9.47129 3.86846 7.94221 3.59218V3.59217ZM7.27282 3.65088L7.2641 3.66469C7.18388 3.80172 7.10265 3.99513 7.0276 4.23477L6.99062 4.35839C6.85766 4.82376 6.75874 5.39972 6.70257 6.03581C6.82983 6.03175 6.95836 6.02858 7.08836 6.02704L7.27282 6.02594C7.466 6.02594 7.65625 6.02953 7.84278 6.03649C7.78689 5.39973 7.68797 4.82377 7.55501 4.3584C7.48222 4.10364 7.40205 3.8934 7.32169 3.73786L7.27282 3.65088Z" fill="white"/>
</mask>
<g mask="url(#mask2_323_6254)">
<mask id="mask3_323_6254" style="mask-type:alpha" maskUnits="userSpaceOnUse" x="-1" y="-2" width="18" height="18">
<path d="M-0.726562 15.9996H16.728V-1.45496H-0.726562V15.9996Z" fill="black"/>
</mask>
<g mask="url(#mask3_323_6254)">
<path d="M-0.726562 -0.727905H15.2734V15.2721H-0.726562V-0.727905Z" fill="#2EBDF3"/>
</g>
</g>
</svg>
