<svg width="20" height="20" viewBox="0 0 20 20" fill="none" xmlns="http://www.w3.org/2000/svg">
<g style="mix-blend-mode:saturation">
<rect x="9.93887" y="2.59121" width="2.78958" height="0.221483" stroke="#140C4D" stroke-width="0.221483"/>
</g>
<rect x="5.49375" y="3.32578" width="12.1046" height="14.7038" rx="1.6" fill="white" stroke="#140C4D" stroke-width="0.8"/>
<line x1="11.5172" y1="6.95547" x2="15.0187" y2="6.95547" stroke="#140C4D" stroke-width="0.8" stroke-linecap="round"/>
<line x1="11.5172" y1="10.9438" x2="15.0187" y2="10.9438" stroke="#140C4D" stroke-width="0.8" stroke-linecap="round"/>
<line x1="11.5172" y1="14.9281" x2="15.0187" y2="14.9281" stroke="#140C4D" stroke-width="0.8" stroke-linecap="round"/>
<mask id="path-6-inside-1_14035_38228" fill="white">
<path d="M7.72623 8.24826C7.698 8.27733 7.65801 8.30156 7.62273 8.30156C7.58744 8.30156 7.54745 8.27612 7.51805 8.24705L6.85938 7.56876L7.06874 7.35316L7.6239 7.92486L9.0918 6.40234L9.29763 6.62158L7.72623 8.24826Z"/>
</mask>
<path d="M7.72623 8.24826C7.698 8.27733 7.65801 8.30156 7.62273 8.30156C7.58744 8.30156 7.54745 8.27612 7.51805 8.24705L6.85938 7.56876L7.06874 7.35316L7.6239 7.92486L9.0918 6.40234L9.29763 6.62158L7.72623 8.24826Z" fill="white"/>
<path d="M7.51805 8.24705L6.94412 8.80438L6.94981 8.81023L6.95561 8.81597L7.51805 8.24705ZM6.85938 7.56876L6.28545 7.01144L5.74425 7.56876L6.28545 8.12609L6.85938 7.56876ZM7.06874 7.35316L7.64266 6.79584L7.06874 6.20482L6.49481 6.79584L7.06874 7.35316ZM7.6239 7.92486L7.04998 8.48219L7.62597 9.07534L8.19983 8.48012L7.6239 7.92486ZM9.0918 6.40234L9.67502 5.85476L9.09948 5.24176L8.51587 5.84708L9.0918 6.40234ZM9.29763 6.62158L9.87301 7.1774L10.4024 6.62943L9.88086 6.07399L9.29763 6.62158ZM7.15231 7.69094C7.1889 7.65325 7.23596 7.61487 7.29689 7.58195C7.35201 7.55217 7.46547 7.50156 7.62273 7.50156V9.10156C7.972 9.10156 8.20668 8.90185 8.30016 8.80559L7.15231 7.69094ZM7.62273 7.50156C7.78817 7.50156 7.90506 7.55734 7.9551 7.58499C8.01229 7.6166 8.05276 7.65073 8.08048 7.67813L6.95561 8.81597C7.01273 8.87244 7.08791 8.93383 7.18127 8.98542C7.26747 9.03305 7.422 9.10156 7.62273 9.10156V7.50156ZM8.09197 7.68973L7.4333 7.01144L6.28545 8.12609L6.94412 8.80438L8.09197 7.68973ZM7.4333 8.12609L7.64266 7.91049L6.49481 6.79584L6.28545 7.01144L7.4333 8.12609ZM6.49481 7.91049L7.04998 8.48219L8.19783 7.36754L7.64266 6.79584L6.49481 7.91049ZM8.19983 8.48012L9.66772 6.9576L8.51587 5.84708L7.04798 7.3696L8.19983 8.48012ZM8.50857 6.94993L8.7144 7.16916L9.88086 6.07399L9.67502 5.85476L8.50857 6.94993ZM8.72225 6.06575L7.15085 7.69244L8.30161 8.80409L9.87301 7.1774L8.72225 6.06575Z" fill="#140C4D" mask="url(#path-6-inside-1_14035_38228)"/>
<mask id="path-8-inside-2_14035_38228" fill="white">
<path d="M7.67936 12.303C7.65113 12.332 7.61114 12.3562 7.57585 12.3562C7.54057 12.3562 7.50058 12.3308 7.47117 12.3017L6.8125 11.6234L7.02186 11.4078L7.57703 11.9796L9.04492 10.457L9.25076 10.6763L7.67936 12.303Z"/>
</mask>
<path d="M7.67936 12.303C7.65113 12.332 7.61114 12.3562 7.57585 12.3562C7.54057 12.3562 7.50058 12.3308 7.47117 12.3017L6.8125 11.6234L7.02186 11.4078L7.57703 11.9796L9.04492 10.457L9.25076 10.6763L7.67936 12.303Z" fill="white"/>
<path d="M7.47117 12.3017L6.89724 12.8591L6.90293 12.8649L6.90874 12.8707L7.47117 12.3017ZM6.8125 11.6234L6.23857 11.0661L5.69737 11.6234L6.23857 12.1808L6.8125 11.6234ZM7.02186 11.4078L7.59579 10.8505L7.02186 10.2595L6.44794 10.8505L7.02186 11.4078ZM7.57703 11.9796L7.0031 12.5369L7.57909 13.13L8.15295 12.5348L7.57703 11.9796ZM9.04492 10.457L9.62815 9.90945L9.05261 9.29644L8.469 9.90177L9.04492 10.457ZM9.25076 10.6763L9.82614 11.2321L10.3555 10.6841L9.83398 10.1287L9.25076 10.6763ZM7.10543 11.7456C7.14203 11.7079 7.18908 11.6696 7.25001 11.6366C7.30513 11.6069 7.4186 11.5562 7.57585 11.5562V13.1562C7.92512 13.1562 8.1598 12.9565 8.25328 12.8603L7.10543 11.7456ZM7.57585 11.5562C7.7413 11.5562 7.85818 11.612 7.90822 11.6397C7.96541 11.6713 8.00589 11.7054 8.0336 11.7328L6.90874 12.8707C6.96586 12.9271 7.04103 12.9885 7.13439 13.0401C7.2206 13.0877 7.37512 13.1562 7.57585 13.1562V11.5562ZM8.0451 11.7444L7.38643 11.0661L6.23857 12.1808L6.89724 12.8591L8.0451 11.7444ZM7.38643 12.1808L7.59579 11.9652L6.44794 10.8505L6.23857 11.0661L7.38643 12.1808ZM6.44794 11.9652L7.0031 12.5369L8.15095 11.4222L7.59579 10.8505L6.44794 11.9652ZM8.15295 12.5348L9.62084 11.0123L8.469 9.90177L7.00111 11.4243L8.15295 12.5348ZM8.46169 11.0046L8.66753 11.2238L9.83398 10.1287L9.62815 9.90945L8.46169 11.0046ZM8.67538 10.1204L7.10398 11.7471L8.25474 12.8588L9.82614 11.2321L8.67538 10.1204Z" fill="#140C4D" mask="url(#path-8-inside-2_14035_38228)"/>
<path d="M12.9465 4.09312H13.3465V3.69312V3C13.3465 2.2268 12.7197 1.6 11.9465 1.6H10.5781C9.80493 1.6 9.17812 2.2268 9.17812 3V3.69312V4.09312H9.57812H12.9465Z" fill="white" stroke="#140C4D" stroke-width="0.8"/>
<rect x="2.25" y="13.2539" width="8.76309" height="6.27247" rx="0.75" fill="white" stroke="white" stroke-width="0.5"/>
<rect x="4.8125" y="14.0352" width="2.94122" height="2.15779" rx="0.75" fill="white" stroke="#140C4D" stroke-width="0.5"/>
<path d="M5.67188 14.2041C5.67188 13.867 5.94512 13.5938 6.28218 13.5938C6.61924 13.5938 6.89248 13.867 6.89248 14.2041V14.4226H5.67188V14.2041Z" fill="white" stroke="#140C4D" stroke-width="0.5"/>
<rect x="6.96094" y="16.6914" width="2.94122" height="2.15779" rx="0.75" fill="white" stroke="#140C4D" stroke-width="0.5"/>
<path d="M7.82031 16.8603C7.82031 16.5232 8.09356 16.25 8.43062 16.25C8.76768 16.25 9.04092 16.5232 9.04092 16.8603V17.0789H7.82031V16.8603Z" fill="white" stroke="#140C4D" stroke-width="0.5"/>
<rect x="3.09375" y="16.6914" width="2.94122" height="2.15779" rx="0.75" fill="white" stroke="#140C4D" stroke-width="0.5"/>
<path d="M3.95312 16.8603C3.95312 16.5232 4.22637 16.25 4.56343 16.25C4.90049 16.25 5.17373 16.5232 5.17373 16.8603V17.0789H3.95312V16.8603Z" fill="white" stroke="#140C4D" stroke-width="0.5"/>
</svg>
