<svg xmlns="http://www.w3.org/2000/svg" xmlns:xlink="http://www.w3.org/1999/xlink" width="24" height="24" viewBox="0 0 24 24">
  <defs>
    <clipPath id="clip-Unit_of_Measurement_">
      <rect width="24" height="24"/>
    </clipPath>
  </defs>
  <g id="Unit_of_Measurement_" data-name="Unit of Measurement " clip-path="url(#clip-Unit_of_Measurement_)">
    <rect width="24" height="24" fill="#fff"/>
    <g id="Group_181" data-name="Group 181">
      <g id="Path_302" data-name="Path 302" transform="translate(7 1)" fill="none">
        <path d="M0,0H8V8H0Z" stroke="none"/>
        <path d="M 1 1 L 1 7 L 7 7 L 7 1 L 1 1 M 0 0 L 8 0 L 8 8 L 0 8 L 0 0 Z" stroke="none" fill="#2dacee"/>
      </g>
      <g id="Path_297" data-name="Path 297" transform="translate(1 15)" fill="none">
        <path d="M0,0H8V8H0Z" stroke="none"/>
        <path d="M 1 1 L 1 7 L 7 7 L 7 1 L 1 1 M 0 0 L 8 0 L 8 8 L 0 8 L 0 0 Z" stroke="none" fill="#14014e"/>
      </g>
      <g id="Path_300" data-name="Path 300" transform="translate(4 8)" fill="none">
        <path d="M0,0H8V8H0Z" stroke="none"/>
        <path d="M 1 1 L 1 7 L 7 7 L 7 1 L 1 1 M 0 0 L 8 0 L 8 8 L 0 8 L 0 0 Z" stroke="none" fill="#14014e"/>
      </g>
      <g id="Path_301" data-name="Path 301" transform="translate(11 8)" fill="none">
        <path d="M0,0H8V8H0Z" stroke="none"/>
        <path d="M 1 1 L 1 7 L 7 7 L 7 1 L 1 1 M 0 0 L 8 0 L 8 8 L 0 8 L 0 0 Z" stroke="none" fill="#14014e"/>
      </g>
      <g id="Path_298" data-name="Path 298" transform="translate(8 15)" fill="none">
        <path d="M0,0H8V8H0Z" stroke="none"/>
        <path d="M 1 1 L 1 7 L 7 7 L 7 1 L 1 1 M 0 0 L 8 0 L 8 8 L 0 8 L 0 0 Z" stroke="none" fill="#14014e"/>
      </g>
      <g id="Path_299" data-name="Path 299" transform="translate(15 15)" fill="none">
        <path d="M0,0H8V8H0Z" stroke="none"/>
        <path d="M 1 1 L 1 7 L 7 7 L 7 1 L 1 1 M 0 0 L 8 0 L 8 8 L 0 8 L 0 0 Z" stroke="none" fill="#14014e"/>
      </g>
      <g id="Group_175" data-name="Group 175" transform="translate(0.5)">
        <path id="Path_296" data-name="Path 296" d="M0,0V3" transform="translate(3.5 15.5)" fill="none" stroke="#14004e" stroke-linecap="round" stroke-width="1"/>
        <path id="Path_295" data-name="Path 295" d="M0,0V3" transform="translate(5.5 15.5)" fill="none" stroke="#14004e" stroke-linecap="round" stroke-width="1"/>
        <path id="Path_293" data-name="Path 293" d="M0,1,1,0" transform="translate(3.5 17.5)" fill="none" stroke="#14004e" stroke-linecap="round" stroke-width="1"/>
        <path id="Path_294" data-name="Path 294" d="M1,1,0,0" transform="translate(4.5 17.5)" fill="none" stroke="#14004e" stroke-linecap="round" stroke-width="1"/>
      </g>
      <g id="Group_178" data-name="Group 178" transform="translate(3.5 -7)">
        <path id="Path_296-2" data-name="Path 296" d="M0,0V3" transform="translate(3.5 15.5)" fill="none" stroke="#14004e" stroke-linecap="round" stroke-width="1"/>
        <path id="Path_295-2" data-name="Path 295" d="M0,0V3" transform="translate(5.5 15.5)" fill="none" stroke="#14004e" stroke-linecap="round" stroke-width="1"/>
        <path id="Path_293-2" data-name="Path 293" d="M0,1,1,0" transform="translate(3.5 17.5)" fill="none" stroke="#14004e" stroke-linecap="round" stroke-width="1"/>
        <path id="Path_294-2" data-name="Path 294" d="M1,1,0,0" transform="translate(4.5 17.5)" fill="none" stroke="#14004e" stroke-linecap="round" stroke-width="1"/>
      </g>
      <g id="Group_180" data-name="Group 180" transform="translate(6.5 -14)">
        <path id="Path_296-3" data-name="Path 296" d="M0,0V3" transform="translate(3.5 15.5)" fill="none" stroke="#31abee" stroke-linecap="round" stroke-width="1"/>
        <path id="Path_295-3" data-name="Path 295" d="M0,0V3" transform="translate(5.5 15.5)" fill="none" stroke="#31abee" stroke-linecap="round" stroke-width="1"/>
        <path id="Path_293-3" data-name="Path 293" d="M0,1,1,0" transform="translate(3.5 17.5)" fill="none" stroke="#31abee" stroke-linecap="round" stroke-width="1"/>
        <path id="Path_294-3" data-name="Path 294" d="M1,1,0,0" transform="translate(4.5 17.5)" fill="none" stroke="#31abee" stroke-linecap="round" stroke-width="1"/>
      </g>
      <g id="Group_179" data-name="Group 179" transform="translate(10.5 -7)">
        <path id="Path_296-4" data-name="Path 296" d="M0,0V3" transform="translate(3.5 15.5)" fill="none" stroke="#14004e" stroke-linecap="round" stroke-width="1"/>
        <path id="Path_295-4" data-name="Path 295" d="M0,0V3" transform="translate(5.5 15.5)" fill="none" stroke="#14004e" stroke-linecap="round" stroke-width="1"/>
        <path id="Path_293-4" data-name="Path 293" d="M0,1,1,0" transform="translate(3.5 17.5)" fill="none" stroke="#14004e" stroke-linecap="round" stroke-width="1"/>
        <path id="Path_294-4" data-name="Path 294" d="M1,1,0,0" transform="translate(4.5 17.5)" fill="none" stroke="#14004e" stroke-linecap="round" stroke-width="1"/>
      </g>
      <g id="Group_176" data-name="Group 176" transform="translate(7.5)">
        <path id="Path_296-5" data-name="Path 296" d="M0,0V3" transform="translate(3.5 15.5)" fill="none" stroke="#14004e" stroke-linecap="round" stroke-width="1"/>
        <path id="Path_295-5" data-name="Path 295" d="M0,0V3" transform="translate(5.5 15.5)" fill="none" stroke="#14004e" stroke-linecap="round" stroke-width="1"/>
        <path id="Path_293-5" data-name="Path 293" d="M0,1,1,0" transform="translate(3.5 17.5)" fill="none" stroke="#14004e" stroke-linecap="round" stroke-width="1"/>
        <path id="Path_294-5" data-name="Path 294" d="M1,1,0,0" transform="translate(4.5 17.5)" fill="none" stroke="#14004e" stroke-linecap="round" stroke-width="1"/>
      </g>
      <g id="Group_177" data-name="Group 177" transform="translate(14.5)">
        <path id="Path_296-6" data-name="Path 296" d="M0,0V3" transform="translate(3.5 15.5)" fill="none" stroke="#14004e" stroke-linecap="round" stroke-width="1"/>
        <path id="Path_295-6" data-name="Path 295" d="M0,0V3" transform="translate(5.5 15.5)" fill="none" stroke="#14004e" stroke-linecap="round" stroke-width="1"/>
        <path id="Path_293-6" data-name="Path 293" d="M0,1,1,0" transform="translate(3.5 17.5)" fill="none" stroke="#14004e" stroke-linecap="round" stroke-width="1"/>
        <path id="Path_294-6" data-name="Path 294" d="M1,1,0,0" transform="translate(4.5 17.5)" fill="none" stroke="#14004e" stroke-linecap="round" stroke-width="1"/>
      </g>
    </g>
  </g>
</svg>
