<svg xmlns="http://www.w3.org/2000/svg" width="22" height="22" viewBox="0 0 22 22">
  <g id="trade_planning" data-name="trade planning" transform="translate(-0.083)">
    <path id="Path_365" data-name="Path 365" d="M23.833,54.667H21.771a.688.688,0,0,0,0,1.377h2.063a.688.688,0,0,0,0-1.377Z" transform="translate(-17.562 -45.719)" fill="#14054e"/>
    <path id="Path_366" data-name="Path 366" d="M96.683,55.355a.65.65,0,0,0,.688.688h2.75a.688.688,0,0,0,0-1.377H97.37A.65.65,0,0,0,96.683,55.355Z" transform="translate(-80.787 -45.719)" fill="#14054e"/>
    <path id="Path_367" data-name="Path 367" d="M74.233,54.667H72.171a.688.688,0,0,0,0,1.377h2.063a.688.688,0,0,0,0-1.377Z" transform="translate(-59.712 -45.719)" fill="#14054e"/>
    <path id="Path_368" data-name="Path 368" d="M49.033,54.667H46.971a.688.688,0,0,0,0,1.377h2.062a.688.688,0,0,0,0-1.377Z" transform="translate(-38.637 -45.719)" fill="#14054e"/>
    <path id="Path_369" data-name="Path 369" d="M23.833,75.693H21.771a.688.688,0,0,0,0,1.377h2.063a.688.688,0,0,0,0-1.377Z" transform="translate(-17.562 -63.303)" fill="#14054e"/>
    <path id="Path_370" data-name="Path 370" d="M100.12,75.693H97.37a.688.688,0,0,0,0,1.377h2.75a.688.688,0,0,0,0-1.377Z" transform="translate(-80.787 -63.303)" fill="#14054e"/>
    <path id="Path_371" data-name="Path 371" d="M19.952,1.467H18.646V.733a.689.689,0,1,0-1.375,0v.733h-2.75V.733a.689.689,0,1,0-1.375,0v.733H10.4V.733a.689.689,0,1,0-1.375,0v.733H6.271V.733A.689.689,0,1,0,4.9.733v.733H2.9A2.9,2.9,0,0,0,.083,4.107V19.433A2.734,2.734,0,0,0,2.9,22h17.05c1.306,0,2.131-1.027,2.131-2.567V4.107C22.083,2.567,21.258,1.467,19.952,1.467Zm.756,4.4H19.333c-.412,0-.412,1.467,0,1.467h1.375v12.1c0,1.1-.55,1.1-.756,1.1h-8.42a86.006,86.006,0,0,1-8.63,0c-1.085.113-1.444-.513-1.444-1.1V7.333H19.952c.413,0,.413-1.466,0-1.466H1.458V4.107A1.535,1.535,0,0,1,2.9,2.933H4.9v.733a.689.689,0,1,0,1.375,0V2.933h2.75v.733a.689.689,0,1,0,1.375,0V2.933h2.75v.733a.689.689,0,1,0,1.375,0V2.933h2.75v.733a.689.689,0,1,0,1.375,0V2.933h1.306c.687,0,.756.733.756,1.173Z" fill="#14054e"/>
    <path id="Subtraction_6" data-name="Subtraction 6" d="M-31.417-102a3.5,3.5,0,0,1-3.5-3.5,3.5,3.5,0,0,1,3.5-3.5,3.5,3.5,0,0,1,3.5,3.5A3.5,3.5,0,0,1-31.417-102Zm0-6a2.5,2.5,0,0,0-2.5,2.5,2.5,2.5,0,0,0,2.5,2.5,2.5,2.5,0,0,0,2.5-2.5A2.5,2.5,0,0,0-31.417-108Z" transform="translate(43 121)" fill="#32bcf3"/>
    <path id="Union_4" data-name="Union 4" d="M-33.5-106a.5.5,0,0,1-.5-.5v-1a.5.5,0,0,1,.5-.5.5.5,0,0,1,.5.5v.5h1.5a.5.5,0,0,1,.5.5.5.5,0,0,1-.5.5Z" transform="matrix(0.719, -0.695, 0.695, 0.719, 109.29, 69.393)" fill="#36bbf3"/>
  </g>
</svg>
